SplineFontDB: 3.2
FontName: BurbankText-Regular
FullName: BurbankText-Regular
FamilyName: Burbank Text Regular
Weight: Book
Copyright: Copyright 2006 House Industries/Brand Design Co., Inc. All Rights Reserved.
Version: 1.000;PS 001.001;hotconv 1.0.38
ItalicAngle: 0
UnderlinePosition: -204
UnderlineWidth: 102
Ascent: 1536
Descent: 512
InvalidEm: 0
sfntRevision: 0x00010000
LayerCount: 2
Layer: 0 1 "Back" 1
Layer: 1 1 "Fore" 0
XUID: [1021 382 509860542 11584228]
StyleMap: 0x0000
FSType: 4
OS2Version: 2
OS2_WeightWidthSlopeOnly: 0
OS2_UseTypoMetrics: 0
CreationTime: 1167175253
ModificationTime: 1774174730
PfmFamily: 81
TTFWeight: 400
TTFWidth: 5
LineGap: 0
VLineGap: 0
Panose: 0 0 0 0 0 0 0 0 0 0
OS2TypoAscent: 1536
OS2TypoAOffset: 0
OS2TypoDescent: -512
OS2TypoDOffset: 0
OS2TypoLinegap: 0
OS2WinAscent: 1536
OS2WinAOffset: 0
OS2WinDescent: 512
OS2WinDOffset: 0
HheadAscent: 1536
HheadAOffset: 0
HheadDescent: -512
HheadDOffset: 0
OS2SubXSize: 1434
OS2SubYSize: 1331
OS2SubXOff: 0
OS2SubYOff: 287
OS2SupXSize: 1434
OS2SupYSize: 1331
OS2SupXOff: 0
OS2SupYOff: 977
OS2StrikeYSize: 102
OS2StrikeYPos: 512
OS2CapHeight: 1536
OS2XHeight: 1024
OS2Vendor: 'HOUS'
OS2CodePages: 2000009b.00000000
OS2UnicodeRanges: 8000002f.4000044a.00000000.00000000
Lookup: 1 0 0 "'rtla' Right to Left Alternates in Latin lookup 0" { "'rtla' Right to Left Alternates in Latin lookup 0 subtable"  } ['rtla' ('DFLT' <'dflt' > 'latn' <'dflt' > ) ]
Lookup: 1 0 0 "<10,1> Superiors lookup 1" { "<10,1> Superiors lookup 1 subtable" ("superior") } [<10,1> ('DFLT' <'dflt' > ) 'sups' ('DFLT' <'dflt' > ) ]
Lookup: 1 0 0 "<11,2> Diagonal Fractions lookup 2" { "<11,2> Diagonal Fractions lookup 2 subtable"  } [<11,2> ('DFLT' <'dflt' > ) 'frac' ('DFLT' <'dflt' > ) ]
Lookup: 254 0 0 "<11,2> Diagonal Fractions lookup 3" { "<11,2> Diagonal Fractions lookup 3 subtable"  } [<11,2> ('DFLT' <'dflt' > ) ]

StartChar: exclam
Encoding: 33 33 4
Width: 645
GlyphClass: 1
Flags: W
LayerCount: 2
Fore
SplineSet
326 -27 m 0,0,1
 256 -27 256 -27 215 16 c 128,-1,2
 174 59 174 59 174 129 c 0,3,4
 174 193 174 193 213 236 c 128,-1,5
 252 279 252 279 324 279 c 0,6,7
 393 279 393 279 432 234 c 128,-1,8
 471 189 471 189 471 123 c 128,-1,9
 471 57 471 57 429 15 c 128,-1,10
 387 -27 387 -27 326 -27 c 0,0,1
240 393 m 1,11,12
 233 839 233 839 213 1452 c 1,13,14
 318 1448 318 1448 422 1452 c 1,15,16
 414 955 414 955 410 395 c 1,17,18
 334 397 334 397 240 393 c 1,11,12
EndSplineSet
EndChar

StartChar: quotedbl
Encoding: 34 34 5
Width: 786
GlyphClass: 1
Flags: W
LayerCount: 2
Fore
SplineSet
162 862 m 1,0,1
 159 1076 159 1076 143 1425 c 1,2,3
 201 1426 201 1426 299 1430 c 1,4,5
 295 1234 295 1234 293 868 c 1,6,7
 240 868 240 868 162 862 c 1,0,1
487 850 m 1,8,9
 491 1064 491 1064 487 1456 c 1,10,-1
 643 1454 l 1,11,12
 630 1207 630 1207 618 846 c 1,13,14
 555 850 555 850 487 850 c 1,8,9
EndSplineSet
EndChar

StartChar: numbersign
Encoding: 35 35 6
Width: 1253
GlyphClass: 1
Flags: W
LayerCount: 2
Fore
SplineSet
780 106 m 1,0,1
 782 235 782 235 782 397 c 1,2,-1
 463 395 l 1,3,4
 467 218 467 218 471 133 c 1,5,6
 408 137 408 137 324 137 c 1,7,8
 324 246 324 246 326 393 c 1,9,-1
 94 389 l 1,10,11
 96 442 96 442 92 530 c 1,12,13
 179 528 179 528 326 528 c 1,14,15
 326 774 326 774 324 924 c 1,16,17
 254 924 254 924 102 920 c 1,18,19
 104 973 104 973 100 1059 c 1,20,-1
 322 1059 l 1,21,22
 322 1105 322 1105 317 1315 c 1,23,24
 375 1313 375 1313 463 1317 c 1,25,26
 461 1211 461 1211 461 1059 c 1,27,-1
 778 1061 l 1,28,29
 778 1162 778 1162 774 1346 c 1,30,31
 838 1342 838 1342 918 1348 c 1,32,33
 915 1235 915 1235 915 1063 c 1,34,35
 987 1063 987 1063 1155 1067 c 1,36,37
 1151 1010 1151 1010 1151 932 c 1,38,-1
 915 932 l 1,39,40
 915 910 915 910 920 530 c 1,41,-1
 1161 535 l 1,42,-1
 1159 395 l 1,43,44
 1061 397 1061 397 922 397 c 1,45,46
 922 302 922 302 926 106 c 1,47,48
 866 110 866 110 780 106 c 1,0,1
461 926 m 1,49,50
 461 671 461 671 463 528 c 1,51,-1
 782 528 l 1,52,-1
 780 930 l 1,53,54
 699 930 699 930 461 926 c 1,49,50
EndSplineSet
EndChar

StartChar: dollar
Encoding: 36 36 7
Width: 1132
GlyphClass: 1
Flags: W
LayerCount: 2
Fore
SplineSet
672 -270 m 1,0,-1
 502 -270 l 1,1,2
 510 -106 510 -106 510 -41 c 1,3,4
 417 -31 417 -31 340 1 c 128,-1,5
 263 33 263 33 203 87.5 c 128,-1,6
 143 142 143 142 108.5 224.5 c 128,-1,7
 74 307 74 307 72 410 c 1,8,9
 160 416 160 416 260 430 c 1,10,11
 263 268 263 268 346 187 c 128,-1,12
 429 106 429 106 575 106 c 0,13,14
 706 106 706 106 790 167.5 c 128,-1,15
 874 229 874 229 874 317 c 0,16,17
 874 360 874 360 861.5 392.5 c 128,-1,18
 849 425 849 425 814 459 c 128,-1,19
 779 493 779 493 710.5 523.5 c 128,-1,20
 642 554 642 554 537 584 c 0,21,22
 304 651 304 651 204 737.5 c 128,-1,23
 104 824 104 824 104 977 c 0,24,25
 104 1131 104 1131 211.5 1239 c 128,-1,26
 319 1347 319 1347 504 1362 c 1,27,-1
 496 1591 l 1,28,-1
 676 1589 l 1,29,30
 666 1387 666 1387 666 1356 c 1,31,32
 847 1327 847 1327 947 1203.5 c 128,-1,33
 1047 1080 1047 1080 1049 889 c 1,34,35
 981 886 981 886 866 870 c 1,36,37
 868 1024 868 1024 791.5 1120.5 c 128,-1,38
 715 1217 715 1217 563 1217 c 0,39,40
 439 1217 439 1217 365 1151.5 c 128,-1,41
 291 1086 291 1086 291 991 c 0,42,43
 291 902 291 902 368 841.5 c 128,-1,44
 445 781 445 781 645 721 c 0,45,46
 772 683 772 683 856.5 639.5 c 128,-1,47
 941 596 941 596 984.5 546 c 128,-1,48
 1028 496 1028 496 1044.5 446.5 c 128,-1,49
 1061 397 1061 397 1061 334 c 0,50,51
 1061 188 1061 188 948.5 86.5 c 128,-1,52
 836 -15 836 -15 670 -39 c 1,53,-1
 672 -270 l 1,0,-1
EndSplineSet
Substitution2: "<6,0> Monospaced Numbers in Latin lookup 6 subtable" dollar.tab
EndChar

StartChar: percent
Encoding: 37 37 8
Width: 1615
GlyphClass: 1
Flags: W
LayerCount: 2
Fore
SplineSet
1217 -37 m 0,0,1
 1063 -37 1063 -37 979 67.5 c 128,-1,2
 895 172 895 172 895 336 c 0,3,4
 895 435 895 435 932 519.5 c 128,-1,5
 969 604 969 604 1044.5 658.5 c 128,-1,6
 1120 713 1120 713 1219 713 c 0,7,8
 1373 713 1373 713 1458.5 606.5 c 128,-1,9
 1544 500 1544 500 1544 338 c 0,10,11
 1544 156 1544 156 1454.5 59.5 c 128,-1,12
 1365 -37 1365 -37 1217 -37 c 0,0,1
393 618 m 0,13,14
 240 618 240 618 156 723 c 128,-1,15
 72 828 72 828 72 997 c 0,16,17
 72 1070 72 1070 94 1136.5 c 128,-1,18
 116 1203 116 1203 156 1255 c 128,-1,19
 196 1307 196 1307 258.5 1337.5 c 128,-1,20
 321 1368 321 1368 397 1368 c 0,21,22
 552 1368 552 1368 636.5 1264.5 c 128,-1,23
 721 1161 721 1161 721 991 c 0,24,25
 721 825 721 825 626.5 721.5 c 128,-1,26
 532 618 532 618 393 618 c 0,13,14
434 -41 m 1,27,-1
 324 -25 l 1,28,29
 573 376 573 376 782 718 c 128,-1,30
 991 1060 991 1060 1075 1202 c 2,31,-1
 1159 1343 l 1,32,-1
 1278 1329 l 1,33,-1
 434 -41 l 1,27,-1
393 727 m 128,-1,35
 480 727 480 727 529 801.5 c 128,-1,36
 578 876 578 876 580 997 c 0,37,38
 580 1113 580 1113 533 1187.5 c 128,-1,39
 486 1262 486 1262 397 1262 c 0,40,41
 314 1262 314 1262 263.5 1186 c 128,-1,42
 213 1110 213 1110 213 995 c 0,43,44
 213 869 213 869 259.5 798 c 128,-1,34
 306 727 306 727 393 727 c 128,-1,35
1221 72 m 0,45,46
 1307 72 1307 72 1354 145 c 128,-1,47
 1401 218 1401 218 1401 330 c 0,48,49
 1401 459 1401 459 1354.5 530.5 c 128,-1,50
 1308 602 1308 602 1214 602 c 0,51,52
 1135 602 1135 602 1086.5 526.5 c 128,-1,53
 1038 451 1038 451 1038 342 c 0,54,55
 1038 216 1038 216 1087 144 c 128,-1,56
 1136 72 1136 72 1221 72 c 0,45,46
EndSplineSet
EndChar

StartChar: ampersand
Encoding: 38 38 9
Width: 1437
GlyphClass: 1
Flags: W
LayerCount: 2
Fore
SplineSet
592 -72 m 0,0,1
 371 -72 371 -72 236.5 41.5 c 128,-1,2
 102 155 102 155 102 332 c 0,3,4
 102 406 102 406 123.5 466.5 c 128,-1,5
 145 527 145 527 187 572.5 c 128,-1,6
 229 618 229 618 275 650.5 c 128,-1,7
 321 683 321 683 385 715 c 1,8,9
 244 907 244 907 244 1090 c 0,10,11
 244 1267 244 1267 353.5 1370 c 128,-1,12
 463 1473 463 1473 645 1473 c 0,13,14
 809 1473 809 1473 909.5 1378.5 c 128,-1,15
 1010 1284 1010 1284 1010 1145 c 0,16,17
 1010 1090 1010 1090 997.5 1041.5 c 128,-1,18
 985 993 985 993 967 956.5 c 128,-1,19
 949 920 949 920 915 883.5 c 128,-1,20
 881 847 881 847 854 824 c 128,-1,21
 827 801 827 801 779.5 772 c 128,-1,22
 732 743 732 743 702.5 727.5 c 128,-1,23
 673 712 673 712 621 686 c 1,24,25
 766 531 766 531 1028 358 c 1,26,27
 1093 511 1093 511 1096 725 c 1,28,29
 1137 720 1137 720 1175 716.5 c 128,-1,30
 1213 713 1213 713 1231 712 c 2,31,-1
 1249 711 l 1,32,33
 1243 456 1243 456 1163 272 c 1,34,35
 1242 223 1242 223 1407 133 c 1,36,37
 1378 92 1378 92 1327 6 c 1,38,39
 1185 77 1185 77 1081 137 c 1,40,41
 909 -72 909 -72 592 -72 c 0,0,1
471 610 m 1,42,43
 382 557 382 557 334.5 496 c 128,-1,44
 287 435 287 435 287 348 c 0,45,46
 287 221 287 221 380.5 145.5 c 128,-1,47
 474 70 474 70 616 70 c 0,48,49
 817 70 817 70 944 221 c 1,50,51
 647 413 647 413 471 610 c 1,42,43
850 1128 m 0,52,53
 850 1218 850 1218 791.5 1276.5 c 128,-1,54
 733 1335 733 1335 637 1335 c 0,55,56
 544 1335 544 1335 481 1268 c 128,-1,57
 418 1201 418 1201 418 1090 c 0,58,59
 418 944 418 944 535 784 c 1,60,61
 594 811 594 811 633 831.5 c 128,-1,62
 672 852 672 852 717 884 c 128,-1,63
 762 916 762 916 788 949 c 128,-1,64
 814 982 814 982 832 1028 c 128,-1,65
 850 1074 850 1074 850 1128 c 0,52,53
EndSplineSet
EndChar

StartChar: quotesingle
Encoding: 39 39 10
Width: 442
GlyphClass: 1
Flags: W
LayerCount: 2
Fore
SplineSet
145 860 m 1,0,1
 149 1046 149 1046 143 1444 c 1,2,3
 197 1440 197 1440 299 1440 c 1,4,5
 288 1219 288 1219 274 858 c 1,6,7
 217 860 217 860 145 860 c 1,0,1
EndSplineSet
EndChar

StartChar: parenleft
Encoding: 40 40 11
Width: 618
GlyphClass: 1
Flags: W
LayerCount: 2
Fore
SplineSet
381 -281 m 1,0,1
 143 156 143 156 143 614 c 0,2,3
 143 878 143 878 207.5 1115 c 128,-1,4
 272 1352 272 1352 395 1538 c 1,5,-1
 547 1481 l 1,6,7
 332 1117 332 1117 332 625 c 0,8,9
 332 408 332 408 380.5 209.5 c 128,-1,10
 429 11 429 11 545 -223 c 1,11,12
 503 -236 503 -236 462 -250.5 c 128,-1,13
 421 -265 421 -265 401 -273 c 2,14,-1
 381 -281 l 1,0,1
EndSplineSet
Substitution2: "<6,0> Monospaced Numbers in Latin lookup 6 subtable" parenleft.tab
Substitution2: "'rtla' Right to Left Alternates in Latin lookup 0 subtable" parenright
EndChar

StartChar: parenright
Encoding: 41 41 12
Width: 618
GlyphClass: 1
Flags: W
LayerCount: 2
Fore
SplineSet
238 -285 m 1,0,1
 168 -254 168 -254 72 -227 c 1,2,3
 181 -1 181 -1 234 206.5 c 128,-1,4
 287 414 287 414 287 633 c 0,5,6
 287 860 287 860 233.5 1082 c 128,-1,7
 180 1304 180 1304 74 1485 c 1,8,9
 137 1509 137 1509 227 1550 c 1,10,11
 349 1358 349 1358 412 1119 c 128,-1,12
 475 880 475 880 475 625 c 0,13,14
 475 164 475 164 238 -285 c 1,0,1
EndSplineSet
Substitution2: "<6,0> Monospaced Numbers in Latin lookup 6 subtable" parenright.tab
Substitution2: "'rtla' Right to Left Alternates in Latin lookup 0 subtable" parenleft
EndChar

StartChar: asterisk
Encoding: 42 42 13
Width: 860
GlyphClass: 1
Flags: W
LayerCount: 2
Fore
SplineSet
293 666 m 1,0,-1
 166 727 l 1,1,2
 286 917 286 917 340 1014 c 1,3,4
 276 1025 276 1025 211.5 1034.5 c 128,-1,5
 147 1044 147 1044 114 1048 c 2,6,-1
 82 1051 l 1,7,-1
 111 1186 l 1,8,9
 244 1146 244 1146 373 1116 c 1,10,11
 370 1189 370 1189 365 1265 c 128,-1,12
 360 1341 360 1341 356 1381 c 2,13,-1
 352 1421 l 1,14,-1
 506 1423 l 1,15,-1
 485 1112 l 1,16,-1
 754 1178 l 1,17,18
 758 1143 758 1143 764 1108.5 c 128,-1,19
 770 1074 770 1074 774 1057 c 2,20,-1
 778 1040 l 1,21,22
 594 1018 594 1018 528 1012 c 1,23,-1
 705 731 l 1,24,25
 672 717 672 717 641 702.5 c 128,-1,26
 610 688 610 688 595 680 c 2,27,-1
 580 672 l 1,28,-1
 436 963 l 1,29,30
 402 899 402 899 366.5 825 c 128,-1,31
 331 751 331 751 312 708 c 2,32,-1
 293 666 l 1,0,-1
EndSplineSet
EndChar

StartChar: plus
Encoding: 43 43 14
Width: 1081
GlyphClass: 1
Flags: W
LayerCount: 2
Fore
SplineSet
459 213 m 1,0,1
 463 471 463 471 463 606 c 1,2,-1
 104 604 l 1,3,-1
 102 758 l 1,4,5
 275 752 275 752 465 752 c 1,6,-1
 463 1128 l 1,7,-1
 616 1124 l 1,8,9
 612 854 612 854 612 752 c 1,10,-1
 979 754 l 1,11,12
 976 711 976 711 975 673.5 c 128,-1,13
 974 636 974 636 974 620 c 2,14,-1
 975 604 l 1,15,16
 858 606 858 606 612 606 c 1,17,-1
 616 215 l 1,18,-1
 459 213 l 1,0,1
EndSplineSet
Substitution2: "<6,0> Monospaced Numbers in Latin lookup 6 subtable" plus.tab
EndChar

StartChar: comma
Encoding: 44 44 15
Width: 546
GlyphClass: 1
Flags: W
LayerCount: 2
Fore
SplineSet
166 -324 m 1,0,1
 143 -297 143 -297 123.5 -276 c 128,-1,2
 104 -255 104 -255 96 -248 c 2,3,-1
 88 -240 l 1,4,5
 202 -151 202 -151 248 -16 c 1,6,7
 193 -12 193 -12 158 29.5 c 128,-1,8
 123 71 123 71 123 133 c 0,9,10
 123 196 123 196 164.5 242.5 c 128,-1,11
 206 289 206 289 274 289 c 0,12,13
 343 289 343 289 383.5 239 c 128,-1,14
 424 189 424 189 424 109 c 0,15,16
 424 -14 424 -14 353.5 -124.5 c 128,-1,17
 283 -235 283 -235 166 -324 c 1,0,1
EndSplineSet
Substitution2: "<6,0> Monospaced Numbers in Latin lookup 6 subtable" comma.tab
EndChar

StartChar: hyphen
Encoding: 45 45 16
Width: 759
GlyphClass: 1
Flags: W
LayerCount: 2
Fore
SplineSet
74 621 m 1,0,-1
 72 782 l 1,1,2
 277 778 277 778 431 776.5 c 128,-1,3
 585 775 585 775 636 776 c 2,4,-1
 688 776 l 1,5,-1
 684 621 l 1,6,7
 503 623 503 623 350.5 623 c 128,-1,8
 198 623 198 623 136 622 c 2,9,-1
 74 621 l 1,0,-1
EndSplineSet
EndChar

StartChar: period
Encoding: 46 46 17
Width: 540
GlyphClass: 1
Flags: W
LayerCount: 2
Fore
SplineSet
270 -20 m 0,0,1
 201 -20 201 -20 162 23 c 128,-1,2
 123 66 123 66 123 137 c 128,-1,3
 123 208 123 208 163.5 250.5 c 128,-1,4
 204 293 204 293 268 293 c 0,5,6
 337 293 337 293 377.5 249 c 128,-1,7
 418 205 418 205 418 143 c 0,8,9
 418 67 418 67 378 23.5 c 128,-1,10
 338 -20 338 -20 270 -20 c 0,0,1
EndSplineSet
Substitution2: "<6,0> Monospaced Numbers in Latin lookup 6 subtable" period.tab
EndChar

StartChar: slash
Encoding: 47 47 18
Width: 909
GlyphClass: 1
Flags: W
LayerCount: 2
Fore
SplineSet
72 -229 m 1,0,1
 215 178 215 178 363 610.5 c 128,-1,2
 511 1043 511 1043 588 1272 c 2,3,-1
 664 1501 l 1,4,5
 710 1499 710 1499 753.5 1499 c 128,-1,6
 797 1499 797 1499 818 1500 c 2,7,-1
 838 1501 l 1,8,9
 643 946 643 946 495 513.5 c 128,-1,10
 347 81 347 81 296 -74 c 2,11,-1
 246 -229 l 1,12,-1
 72 -229 l 1,0,1
EndSplineSet
Substitution2: "<11,2> Diagonal Fractions lookup 5 subtable" fraction
EndChar

StartChar: zero
Encoding: 48 48 19
Width: 1316
GlyphClass: 1
Flags: W
LayerCount: 2
Fore
SplineSet
659 -45 m 0,0,1
 567 -45 567 -45 485.5 -19 c 128,-1,2
 404 7 404 7 333 63.5 c 128,-1,3
 262 120 262 120 211 203 c 128,-1,4
 160 286 160 286 131 407.5 c 128,-1,5
 102 529 102 529 102 678 c 0,6,7
 102 1000 102 1000 254.5 1190 c 128,-1,8
 407 1380 407 1380 659 1380 c 0,9,10
 920 1380 920 1380 1067 1198 c 128,-1,11
 1214 1016 1214 1016 1214 686 c 0,12,13
 1214 351 1214 351 1064.5 153 c 128,-1,14
 915 -45 915 -45 659 -45 c 0,0,1
668 117 m 0,15,16
 831 117 831 117 928.5 264 c 128,-1,17
 1026 411 1026 411 1026 688 c 0,18,19
 1026 928 1026 928 931 1075.5 c 128,-1,20
 836 1223 836 1223 664 1223 c 0,21,22
 488 1223 488 1223 390.5 1074.5 c 128,-1,23
 293 926 293 926 293 688 c 0,24,25
 293 417 293 417 387.5 267 c 128,-1,26
 482 117 482 117 668 117 c 0,15,16
EndSplineSet
Substitution2: "<6,0> Monospaced Numbers in Latin lookup 6 subtable" zero.tab
Substitution2: "<11,2> Diagonal Fractions lookup 2 subtable" zero.numerator
Substitution2: "<10,1> Superiors lookup 1 subtable" zero.numerator
EndChar

StartChar: one
Encoding: 49 49 20
Width: 782
GlyphClass: 1
Flags: W
LayerCount: 2
Fore
SplineSet
371 -6 m 1,0,1
 376 702 376 702 367 1145 c 1,2,-1
 90 991 l 1,3,-1
 31 1135 l 1,4,5
 143 1195 143 1195 241.5 1251 c 128,-1,6
 340 1307 340 1307 382 1332 c 2,7,-1
 424 1358 l 1,8,-1
 541 1341 l 1,9,10
 541 1037 541 1037 545 700.5 c 128,-1,11
 549 364 549 364 553 180 c 2,12,-1
 557 -4 l 1,13,-1
 371 -6 l 1,0,1
EndSplineSet
Substitution2: "<6,0> Monospaced Numbers in Latin lookup 6 subtable" one.tab
Substitution2: "<11,2> Diagonal Fractions lookup 2 subtable" one.numerator
Substitution2: "<10,1> Superiors lookup 1 subtable" one.numerator
EndChar

StartChar: two
Encoding: 50 50 21
Width: 1171
GlyphClass: 1
Flags: W
LayerCount: 2
Fore
SplineSet
1067 -6 m 1,0,1
 822 0 822 0 577 3.5 c 128,-1,2
 332 7 332 7 209 8 c 2,3,-1
 86 8 l 1,4,-1
 82 182 l 1,5,6
 388 361 388 361 564.5 499 c 128,-1,7
 741 637 741 637 816 752 c 128,-1,8
 891 867 891 867 891 989 c 0,9,10
 891 1092 891 1092 814 1163.5 c 128,-1,11
 737 1235 737 1235 625 1235 c 0,12,13
 457 1235 457 1235 370.5 1132 c 128,-1,14
 284 1029 284 1029 281 844 c 1,15,16
 190 856 190 856 84 868 c 1,17,18
 101 1130 101 1130 239.5 1258 c 128,-1,19
 378 1386 378 1386 621 1386 c 0,20,21
 715 1386 715 1386 800 1358.5 c 128,-1,22
 885 1331 885 1331 949.5 1281 c 128,-1,23
 1014 1231 1014 1231 1052 1154.5 c 128,-1,24
 1090 1078 1090 1078 1090 987 c 0,25,26
 1090 869 1090 869 1040.5 761 c 128,-1,27
 991 653 991 653 891 552.5 c 128,-1,28
 791 452 791 452 657 359.5 c 128,-1,29
 523 267 523 267 336 166 c 1,30,31
 564 162 564 162 726.5 162.5 c 128,-1,32
 889 163 889 163 979 166 c 2,33,-1
 1069 170 l 1,34,-1
 1067 -6 l 1,0,1
EndSplineSet
Substitution2: "<6,0> Monospaced Numbers in Latin lookup 6 subtable" two.tab
Substitution2: "<11,2> Diagonal Fractions lookup 2 subtable" two.numerator
Substitution2: "<10,1> Superiors lookup 1 subtable" two.numerator
EndChar

StartChar: three
Encoding: 51 51 22
Width: 1224
GlyphClass: 1
Flags: W
LayerCount: 2
Fore
SplineSet
623 -47 m 0,0,1
 377 -47 377 -47 231 66.5 c 128,-1,2
 85 180 85 180 72 420 c 1,3,4
 139 424 139 424 262 440 c 1,5,6
 269 263 269 263 359.5 184.5 c 128,-1,7
 450 106 450 106 629 106 c 0,8,9
 767 106 767 106 854.5 175 c 128,-1,10
 942 244 942 244 942 362 c 0,11,12
 942 434 942 434 896 488.5 c 128,-1,13
 850 543 850 543 762 569 c 0,14,15
 653 602 653 602 444 602 c 1,16,17
 444 676 444 676 442 748 c 1,18,19
 539 743 539 743 547 743 c 0,20,21
 694 743 694 743 793 784 c 0,22,23
 852 808 852 808 889 862.5 c 128,-1,24
 926 917 926 917 926 987 c 0,25,26
 926 1109 926 1109 839.5 1177 c 128,-1,27
 753 1245 753 1245 612 1245 c 0,28,29
 330 1245 330 1245 291 934 c 1,30,-1
 96 973 l 1,31,32
 115 1084 115 1084 163 1166.5 c 128,-1,33
 211 1249 211 1249 280.5 1298 c 128,-1,34
 350 1347 350 1347 433.5 1371 c 128,-1,35
 517 1395 517 1395 616 1395 c 0,36,37
 836 1395 836 1395 976 1287.5 c 128,-1,38
 1116 1180 1116 1180 1116 1004 c 0,39,40
 1116 874 1116 874 1039 788.5 c 128,-1,41
 962 703 962 703 840 680 c 1,42,43
 973 653 973 653 1053 566 c 128,-1,44
 1133 479 1133 479 1133 356 c 0,45,46
 1133 174 1133 174 988 63.5 c 128,-1,47
 843 -47 843 -47 623 -47 c 0,0,1
EndSplineSet
Substitution2: "<6,0> Monospaced Numbers in Latin lookup 6 subtable" three.tab
Substitution2: "<11,2> Diagonal Fractions lookup 2 subtable" three.numerator
Substitution2: "<10,1> Superiors lookup 1 subtable" three.numerator
EndChar

StartChar: four
Encoding: 52 52 23
Width: 1202
GlyphClass: 1
Flags: W
LayerCount: 2
Fore
SplineSet
815 -2 m 1,0,1
 815 105 815 105 819 293 c 1,2,3
 484 293 484 293 53 287 c 1,4,5
 51 334 51 334 53 440 c 1,6,-1
 745 1380 l 1,7,-1
 997 1376 l 1,8,9
 993 979 993 979 993 440 c 1,10,11
 1092 440 1092 440 1141 442 c 1,12,13
 1139 381 1139 381 1139 295 c 1,14,-1
 995 295 l 1,15,-1
 997 0 l 1,16,-1
 815 -2 l 1,0,1
823 1233 m 1,17,18
 689 1051 689 1051 563.5 877.5 c 128,-1,19
 438 704 438 704 350.5 583 c 128,-1,20
 263 462 263 462 246 438 c 1,21,-1
 819 438 l 1,22,23
 823 884 823 884 823 1233 c 1,17,18
EndSplineSet
Substitution2: "<6,0> Monospaced Numbers in Latin lookup 6 subtable" four.tab
Substitution2: "<11,2> Diagonal Fractions lookup 2 subtable" four.numerator
Substitution2: "<10,1> Superiors lookup 1 subtable" four.numerator
EndChar

StartChar: five
Encoding: 53 53 24
Width: 1222
GlyphClass: 1
Flags: W
LayerCount: 2
Fore
SplineSet
643 -45 m 0,0,1
 431 -45 431 -45 297 54 c 128,-1,2
 163 153 163 153 117 336 c 1,3,4
 167 344 167 344 217.5 354.5 c 128,-1,5
 268 365 268 365 294 372 c 2,6,-1
 319 379 l 1,7,8
 370 98 370 98 649 98 c 0,9,10
 794 98 794 98 882.5 196.5 c 128,-1,11
 971 295 971 295 971 451 c 0,12,13
 971 589 971 589 892.5 678.5 c 128,-1,14
 814 768 814 768 668 768 c 0,15,16
 449 768 449 768 336 549 c 1,17,18
 256 559 256 559 156 563 c 1,19,20
 168 923 168 923 172 1354 c 1,21,22
 717 1354 717 1354 1087 1362 c 1,23,24
 1085 1296 1085 1296 1085 1202 c 1,25,26
 650 1204 650 1204 348 1198 c 1,27,28
 335 892 335 892 332 735 c 1,29,30
 401 817 401 817 499 861 c 128,-1,31
 597 905 597 905 711 905 c 0,32,33
 919 905 919 905 1041 779.5 c 128,-1,34
 1163 654 1163 654 1165 442 c 0,35,36
 1165 219 1165 219 1023.5 87 c 128,-1,37
 882 -45 882 -45 643 -45 c 0,0,1
EndSplineSet
Substitution2: "<6,0> Monospaced Numbers in Latin lookup 6 subtable" five.tab
Substitution2: "<11,2> Diagonal Fractions lookup 2 subtable" five.numerator
Substitution2: "<10,1> Superiors lookup 1 subtable" five.numerator
EndChar

StartChar: six
Encoding: 54 54 25
Width: 1255
GlyphClass: 1
Flags: W
LayerCount: 2
Fore
SplineSet
659 -53 m 0,0,1
 400 -53 400 -53 251 129.5 c 128,-1,2
 102 312 102 312 102 653 c 0,3,4
 102 993 102 993 252 1188.5 c 128,-1,5
 402 1384 402 1384 664 1384 c 0,6,7
 1048 1384 1048 1384 1135 1010 c 1,8,9
 1084 1007 1084 1007 1031.5 1001.5 c 128,-1,10
 979 996 979 996 952 992 c 2,11,-1
 926 987 l 1,12,13
 900 1111 900 1111 838 1173 c 128,-1,14
 776 1235 776 1235 662 1235 c 0,15,16
 492 1235 492 1235 393.5 1087.5 c 128,-1,17
 295 940 295 940 295 666 c 2,18,-1
 295 618 l 1,19,20
 365 720 365 720 476.5 783 c 128,-1,21
 588 846 588 846 717 846 c 0,22,23
 932 846 932 846 1058 728 c 128,-1,24
 1184 610 1184 610 1184 428 c 0,25,26
 1184 276 1184 276 1114.5 166 c 128,-1,27
 1045 56 1045 56 927.5 1.5 c 128,-1,28
 810 -53 810 -53 659 -53 c 0,0,1
700 696 m 0,29,30
 578 696 578 696 477.5 635.5 c 128,-1,31
 377 575 377 575 309 469 c 1,32,33
 343 279 343 279 440 188.5 c 128,-1,34
 537 98 537 98 676 98 c 0,35,36
 814 98 814 98 898.5 186.5 c 128,-1,37
 983 275 983 275 983 412 c 0,38,39
 985 538 985 538 907 617 c 128,-1,40
 829 696 829 696 700 696 c 0,29,30
EndSplineSet
Substitution2: "<6,0> Monospaced Numbers in Latin lookup 6 subtable" six.tab
Substitution2: "<11,2> Diagonal Fractions lookup 2 subtable" six.numerator
Substitution2: "<10,1> Superiors lookup 1 subtable" six.numerator
EndChar

StartChar: seven
Encoding: 55 55 26
Width: 1062
GlyphClass: 1
Flags: W
LayerCount: 2
Fore
SplineSet
352 -18 m 1,0,1
 342 345 342 345 466 650.5 c 128,-1,2
 590 956 590 956 827 1196 c 1,3,-1
 51 1192 l 1,4,-1
 51 1356 l 1,5,-1
 1018 1364 l 1,6,-1
 1022 1192 l 1,7,8
 851 1014 851 1014 748.5 841 c 128,-1,9
 646 668 646 668 595.5 457 c 128,-1,10
 545 246 545 246 551 -18 c 1,11,-1
 352 -18 l 1,0,1
EndSplineSet
Substitution2: "<6,0> Monospaced Numbers in Latin lookup 6 subtable" seven.tab
Substitution2: "<11,2> Diagonal Fractions lookup 2 subtable" seven.numerator
Substitution2: "<10,1> Superiors lookup 1 subtable" seven.numerator
EndChar

StartChar: eight
Encoding: 56 56 27
Width: 1247
GlyphClass: 1
Flags: W
LayerCount: 2
Fore
SplineSet
633 -55 m 0,0,1
 368 -55 368 -55 225 51 c 128,-1,2
 82 157 82 157 82 348 c 0,3,4
 82 479 82 479 167 572.5 c 128,-1,5
 252 666 252 666 401 705 c 1,6,7
 270 747 270 747 200.5 834.5 c 128,-1,8
 131 922 131 922 131 1038 c 0,9,10
 131 1185 131 1185 261 1287 c 128,-1,11
 391 1389 391 1389 625 1389 c 0,12,13
 864 1389 864 1389 993 1290.5 c 128,-1,14
 1122 1192 1122 1192 1122 1042 c 0,15,16
 1122 920 1122 920 1052 834 c 128,-1,17
 982 748 982 748 846 705 c 1,18,19
 996 661 996 661 1079.5 565 c 128,-1,20
 1163 469 1163 469 1165 344 c 0,21,22
 1165 248 1165 248 1123.5 171 c 128,-1,23
 1082 94 1082 94 1009 45 c 128,-1,24
 936 -4 936 -4 840 -29.5 c 128,-1,25
 744 -55 744 -55 633 -55 c 0,0,1
627 90 m 0,26,27
 781 90 781 90 874 158 c 128,-1,28
 967 226 967 226 967 346 c 0,29,30
 967 463 967 463 863.5 541 c 128,-1,31
 760 619 760 619 592 643 c 1,32,33
 444 613 444 613 361.5 540.5 c 128,-1,34
 279 468 279 468 279 356 c 0,35,36
 279 232 279 232 372.5 161 c 128,-1,37
 466 90 466 90 627 90 c 0,26,27
664 760 m 1,38,39
 791 784 791 784 862.5 851.5 c 128,-1,40
 934 919 934 919 934 1024 c 0,41,42
 932 1130 932 1130 853 1191.5 c 128,-1,43
 774 1253 774 1253 625 1253 c 0,44,45
 487 1253 487 1253 402 1191.5 c 128,-1,46
 317 1130 317 1130 317 1024 c 0,47,48
 317 826 317 826 664 760 c 1,38,39
EndSplineSet
Substitution2: "<6,0> Monospaced Numbers in Latin lookup 6 subtable" eight.tab
Substitution2: "<11,2> Diagonal Fractions lookup 2 subtable" eight.numerator
Substitution2: "<10,1> Superiors lookup 1 subtable" eight.numerator
EndChar

StartChar: nine
Encoding: 57 57 28
Width: 1243
GlyphClass: 1
Flags: W
LayerCount: 2
Fore
SplineSet
596 -47 m 0,0,1
 377 -47 377 -47 246.5 66 c 128,-1,2
 116 179 116 179 82 395 c 1,3,4
 129 398 129 398 179 402.5 c 128,-1,5
 229 407 229 407 255 410 c 2,6,-1
 281 414 l 1,7,8
 305 257 305 257 385 185 c 128,-1,9
 465 113 465 113 598 113 c 0,10,11
 679 113 679 113 740.5 142.5 c 128,-1,12
 802 172 802 172 851 239 c 128,-1,13
 900 306 900 306 926 425 c 128,-1,14
 952 544 952 544 952 711 c 2,15,-1
 952 721 l 1,16,17
 886 626 886 626 778 572 c 128,-1,18
 670 518 670 518 535 518 c 0,19,20
 325 518 325 518 205.5 639.5 c 128,-1,21
 86 761 86 761 86 944 c 0,22,23
 86 1143 86 1143 226 1267 c 128,-1,24
 366 1391 366 1391 596 1391 c 0,25,26
 846 1391 846 1391 992.5 1212.5 c 128,-1,27
 1139 1034 1139 1034 1139 700 c 0,28,29
 1140 323 1140 323 996 138 c 128,-1,30
 852 -47 852 -47 596 -47 c 0,0,1
580 662 m 0,31,32
 687 662 687 662 783 716.5 c 128,-1,33
 879 771 879 771 942 862 c 1,34,35
 916 1046 916 1046 825 1142.5 c 128,-1,36
 734 1239 734 1239 592 1239 c 0,37,38
 449 1239 449 1239 365 1153.5 c 128,-1,39
 281 1068 281 1068 281 936 c 0,40,41
 281 805 281 805 363 733.5 c 128,-1,42
 445 662 445 662 580 662 c 0,31,32
EndSplineSet
Substitution2: "<6,0> Monospaced Numbers in Latin lookup 6 subtable" nine.tab
Substitution2: "<11,2> Diagonal Fractions lookup 2 subtable" nine.numerator
Substitution2: "<10,1> Superiors lookup 1 subtable" nine.numerator
EndChar

StartChar: colon
Encoding: 58 58 29
Width: 585
GlyphClass: 1
Flags: W
LayerCount: 2
Fore
SplineSet
293 -29 m 0,0,1
 227 -29 227 -29 186 14 c 128,-1,2
 145 57 145 57 145 131 c 0,3,4
 145 200 145 200 186.5 244.5 c 128,-1,5
 228 289 228 289 295 289 c 0,6,7
 372 289 372 289 407 243 c 128,-1,8
 442 197 442 197 442 131 c 0,9,10
 442 55 442 55 401.5 13 c 128,-1,11
 361 -29 361 -29 293 -29 c 0,0,1
291 551 m 128,-1,13
 224 551 224 551 183.5 595 c 128,-1,14
 143 639 143 639 143 713 c 0,15,16
 143 781 143 781 184 823.5 c 128,-1,17
 225 866 225 866 293 866 c 128,-1,18
 361 866 361 866 400.5 822.5 c 128,-1,19
 440 779 440 779 440 713 c 0,20,21
 440 634 440 634 399 592.5 c 128,-1,12
 358 551 358 551 291 551 c 128,-1,13
EndSplineSet
Substitution2: "<6,0> Monospaced Numbers in Latin lookup 6 subtable" colon.tab
EndChar

StartChar: semicolon
Encoding: 59 59 30
Width: 585
GlyphClass: 1
Flags: W
LayerCount: 2
Fore
SplineSet
195 -322 m 1,0,1
 183 -309 183 -309 170.5 -297 c 128,-1,2
 158 -285 158 -285 148 -276.5 c 128,-1,3
 138 -268 138 -268 130.5 -261 c 128,-1,4
 123 -254 123 -254 118 -250 c 2,5,-1
 113 -246 l 1,6,7
 209 -170 209 -170 272 -16 c 1,8,9
 216 -14 216 -14 177.5 25 c 128,-1,10
 139 64 139 64 139 125 c 0,11,12
 139 196 139 196 182 242.5 c 128,-1,13
 225 289 225 289 291 289 c 0,14,15
 362 289 362 289 402 234.5 c 128,-1,16
 442 180 442 180 442 106 c 0,17,18
 442 -3 442 -3 368 -126.5 c 128,-1,19
 294 -250 294 -250 195 -322 c 1,0,1
291 553 m 0,20,21
 227 553 227 553 185 596 c 128,-1,22
 143 639 143 639 143 719 c 0,23,24
 143 780 143 780 184.5 824 c 128,-1,25
 226 868 226 868 295 868 c 0,26,27
 355 868 355 868 397.5 826 c 128,-1,28
 440 784 440 784 440 719 c 0,29,30
 440 644 440 644 400 598.5 c 128,-1,31
 360 553 360 553 291 553 c 0,20,21
EndSplineSet
Substitution2: "<6,0> Monospaced Numbers in Latin lookup 6 subtable" semicolon.tab
EndChar

StartChar: less
Encoding: 60 60 31
Width: 1075
GlyphClass: 1
Flags: W
LayerCount: 2
Fore
SplineSet
963 313 m 1,0,1
 962 304 962 304 961 289 c 128,-1,2
 960 274 960 274 958.5 229.5 c 128,-1,3
 957 185 957 185 958 143 c 1,4,5
 558 350 558 350 92 575 c 1,6,7
 96 647 96 647 96 741 c 1,8,9
 451 916 451 916 952 1171 c 1,10,11
 948 1104 948 1104 948 995 c 1,12,13
 630 847 630 847 248 659 c 1,14,15
 562 504 562 504 963 313 c 1,0,1
EndSplineSet
Substitution2: "<6,0> Monospaced Numbers in Latin lookup 6 subtable" less.tab
Substitution2: "'rtla' Right to Left Alternates in Latin lookup 0 subtable" greater
EndChar

StartChar: equal
Encoding: 61 61 32
Width: 1058
GlyphClass: 1
Flags: W
LayerCount: 2
Fore
SplineSet
127 401 m 1,0,1
 127 439 127 439 123 539 c 1,2,3
 472 537 472 537 936 543 c 1,4,-1
 934 401 l 1,5,6
 611 405 611 405 127 401 c 1,0,1
936 805 m 1,7,8
 720 809 720 809 516.5 810 c 128,-1,9
 313 811 313 811 218 810 c 2,10,-1
 123 809 l 1,11,-1
 127 950 l 1,12,13
 325 948 325 948 527.5 948 c 128,-1,14
 730 948 730 948 833 949 c 2,15,-1
 936 950 l 1,16,-1
 936 805 l 1,7,8
EndSplineSet
Substitution2: "<6,0> Monospaced Numbers in Latin lookup 6 subtable" equal.tab
EndChar

StartChar: greater
Encoding: 62 62 33
Width: 1056
GlyphClass: 1
Flags: W
LayerCount: 2
Fore
SplineSet
117 141 m 1,0,-1
 113 305 l 1,1,2
 469 478 469 478 817 659 c 1,3,-1
 129 999 l 1,4,5
 131 1060 131 1060 125 1171 c 1,6,7
 349 1055 349 1055 558 948 c 128,-1,8
 767 841 767 841 864 792 c 2,9,-1
 961 743 l 1,10,-1
 965 582 l 1,11,-1
 117 141 l 1,0,-1
EndSplineSet
Substitution2: "<6,0> Monospaced Numbers in Latin lookup 6 subtable" greater.tab
Substitution2: "'rtla' Right to Left Alternates in Latin lookup 0 subtable" less
EndChar

StartChar: question
Encoding: 63 63 34
Width: 1212
GlyphClass: 1
Flags: W
LayerCount: 2
Fore
SplineSet
473 369 m 1,0,-1
 467 745 l 1,1,2
 705 733 705 733 809 803.5 c 128,-1,3
 913 874 913 874 913 1028 c 0,4,5
 913 1147 913 1147 833.5 1228 c 128,-1,6
 754 1309 754 1309 610 1309 c 0,7,8
 465 1309 465 1309 384 1222 c 128,-1,9
 303 1135 303 1135 270 963 c 1,10,11
 199 986 199 986 82 1004 c 1,12,13
 115 1211 115 1211 251 1337.5 c 128,-1,14
 387 1464 387 1464 598 1464 c 0,15,16
 722 1464 722 1464 821.5 1428.5 c 128,-1,17
 921 1393 921 1393 983 1332.5 c 128,-1,18
 1045 1272 1045 1272 1077.5 1197 c 128,-1,19
 1110 1122 1110 1122 1110 1040 c 0,20,21
 1110 839 1110 839 990.5 730 c 128,-1,22
 871 621 871 621 659 612 c 1,23,24
 656 559 656 559 655.5 499.5 c 128,-1,25
 655 440 655 440 656 406 c 2,26,-1
 657 373 l 1,27,-1
 473 369 l 1,0,-1
575 -37 m 0,28,29
 503 -37 503 -37 465.5 4 c 128,-1,30
 428 45 428 45 428 115 c 0,31,32
 428 178 428 178 468.5 218 c 128,-1,33
 509 258 509 258 573 258 c 0,34,35
 641 258 641 258 679 216.5 c 128,-1,36
 717 175 717 175 717 106 c 0,37,38
 717 41 717 41 678 2 c 128,-1,39
 639 -37 639 -37 575 -37 c 0,28,29
EndSplineSet
EndChar

StartChar: at
Encoding: 64 64 35
Width: 2066
GlyphClass: 1
Flags: W
LayerCount: 2
Fore
SplineSet
1032 1069 m 0,0,1
 1147 1069 1147 1069 1228.5 983.5 c 128,-1,2
 1310 898 1310 898 1333 772 c 1,3,4
 1348 838 1348 838 1374 999 c 1,5,6
 1448 995 1448 995 1544 999 c 1,7,8
 1448 561 1448 561 1409 319 c 0,9,10
 1401 265 1401 265 1401 221 c 0,11,12
 1401 153 1401 153 1435.5 115.5 c 128,-1,13
 1470 78 1470 78 1526 78 c 0,14,15
 1634 78 1634 78 1720 225 c 128,-1,16
 1806 372 1806 372 1806 610 c 0,17,18
 1806 751 1806 751 1754.5 876 c 128,-1,19
 1703 1001 1703 1001 1612 1093 c 128,-1,20
 1521 1185 1521 1185 1387 1238.5 c 128,-1,21
 1253 1292 1253 1292 1096 1292 c 0,22,23
 931 1292 931 1292 792.5 1245.5 c 128,-1,24
 654 1199 654 1199 557 1118.5 c 128,-1,25
 460 1038 460 1038 392 930.5 c 128,-1,26
 324 823 324 823 292 701 c 128,-1,27
 260 579 260 579 260 449 c 0,28,29
 260 235 260 235 346.5 68.5 c 128,-1,30
 433 -98 433 -98 593.5 -191.5 c 128,-1,31
 754 -285 754 -285 963 -285 c 0,32,33
 1215 -285 1215 -285 1421 -203 c 1,34,-1
 1456 -336 l 1,35,36
 1199 -416 1199 -416 956 -416 c 0,37,38
 796 -416 796 -416 659 -370.5 c 128,-1,39
 522 -325 522 -325 422.5 -244 c 128,-1,40
 323 -163 323 -163 252.5 -53.5 c 128,-1,41
 182 56 182 56 147.5 184.5 c 128,-1,42
 113 313 113 313 113 453 c 0,43,44
 113 580 113 580 143 701 c 128,-1,45
 173 822 173 822 230 929.5 c 128,-1,46
 287 1037 287 1037 374 1127.5 c 128,-1,47
 461 1218 461 1218 569 1283 c 128,-1,48
 677 1348 677 1348 814.5 1384.5 c 128,-1,49
 952 1421 952 1421 1106 1421 c 0,50,51
 1299 1421 1299 1421 1461 1354.5 c 128,-1,52
 1623 1288 1623 1288 1729.5 1177.5 c 128,-1,53
 1836 1067 1836 1067 1895 924.5 c 128,-1,54
 1954 782 1954 782 1954 627 c 0,55,56
 1954 318 1954 318 1831.5 130.5 c 128,-1,57
 1709 -57 1709 -57 1516 -57 c 0,58,59
 1384 -57 1384 -57 1312 17.5 c 128,-1,60
 1240 92 1240 92 1237 233 c 1,61,62
 1164 100 1164 100 1065.5 28.5 c 128,-1,63
 967 -43 967 -43 852 -43 c 0,64,65
 693 -43 693 -43 599.5 78.5 c 128,-1,66
 506 200 506 200 506 395 c 0,67,68
 506 537 506 537 564 680.5 c 128,-1,69
 622 824 622 824 711 913 c 0,70,71
 867 1069 867 1069 1032 1069 c 0,0,1
1047 932 m 0,72,73
 948 932 948 932 856 840 c 0,74,75
 780 764 780 764 732 638 c 128,-1,76
 684 512 684 512 684 387 c 0,77,78
 684 256 684 256 737.5 175 c 128,-1,79
 791 94 791 94 889 94 c 0,80,81
 993 94 993 94 1094 195 c 0,82,83
 1171 272 1171 272 1219.5 384 c 128,-1,84
 1268 496 1268 496 1268 612 c 0,85,86
 1268 744 1268 744 1206 838 c 128,-1,87
 1144 932 1144 932 1047 932 c 0,72,73
EndSplineSet
EndChar

StartChar: A
Encoding: 65 65 36
Width: 1280
GlyphClass: 1
Flags: W
LayerCount: 2
Fore
SplineSet
55 45 m 1,0,1
 230 584 230 584 489 1438 c 1,2,-1
 760 1442 l 1,3,4
 987 704 987 704 1225 -43 c 1,5,6
 1126 -43 1126 -43 1032 -47 c 1,7,8
 990 96 990 96 920 332 c 1,9,10
 686 338 686 338 326 338 c 1,11,12
 323 329 323 329 244 41 c 1,13,14
 151 45 151 45 55 45 c 1,0,1
616 1335 m 1,15,16
 480 875 480 875 367 481 c 1,17,18
 535 479 535 479 877 479 c 1,19,20
 831 635 831 635 616 1335 c 1,15,16
EndSplineSet
EndChar

StartChar: B
Encoding: 66 66 37
Width: 1294
GlyphClass: 1
Flags: W
LayerCount: 2
Fore
SplineSet
174 -6 m 1,0,1
 172 676 172 676 158 1425 c 1,2,3
 412 1465 412 1465 575 1462 c 0,4,5
 858 1459 858 1459 997.5 1359 c 128,-1,6
 1137 1259 1137 1259 1137 1081 c 0,7,8
 1137 952 1137 952 1053.5 858 c 128,-1,9
 970 764 970 764 805 733 c 1,10,11
 1003 711 1003 711 1103.5 614.5 c 128,-1,12
 1204 518 1204 518 1204 377 c 0,13,14
 1204 168 1204 168 1040.5 66.5 c 128,-1,15
 877 -35 877 -35 571 -37 c 0,16,17
 399 -37 399 -37 174 -6 c 1,0,1
350 131 m 1,18,19
 487 111 487 111 608 111 c 0,20,21
 1016 111 1016 111 1016 381 c 0,22,23
 1016 444 1016 444 991 490 c 128,-1,24
 966 536 966 536 905.5 572.5 c 128,-1,25
 845 609 845 609 735 627 c 128,-1,26
 625 645 625 645 465 645 c 0,27,28
 387 645 387 645 344 643 c 1,29,30
 347 229 347 229 350 131 c 1,18,19
342 1294 m 1,31,32
 342 948 342 948 344 805 c 1,33,34
 385 803 385 803 463 803 c 0,35,36
 604 803 604 803 701 820.5 c 128,-1,37
 798 838 798 838 853.5 873 c 128,-1,38
 909 908 909 908 932.5 954.5 c 128,-1,39
 956 1001 956 1001 956 1065 c 0,40,41
 956 1313 956 1313 571 1313 c 0,42,43
 475 1313 475 1313 342 1294 c 1,31,32
EndSplineSet
EndChar

StartChar: C
Encoding: 67 67 38
Width: 1353
GlyphClass: 1
Flags: W
LayerCount: 2
Fore
SplineSet
715 -41 m 0,0,1
 564 -41 564 -41 449.5 14 c 128,-1,2
 335 69 335 69 263.5 170 c 128,-1,3
 192 271 192 271 156.5 407.5 c 128,-1,4
 121 544 121 544 121 713 c 0,5,6
 121 1062 121 1062 276.5 1263 c 128,-1,7
 432 1464 432 1464 719 1464 c 0,8,9
 940 1464 940 1464 1064 1336 c 128,-1,10
 1188 1208 1188 1208 1223 977 c 1,11,12
 1166 969 1166 969 1118 960.5 c 128,-1,13
 1070 952 1070 952 1051 947 c 2,14,-1
 1032 942 l 1,15,16
 1005 1121 1005 1121 929 1213 c 128,-1,17
 853 1305 853 1305 715 1305 c 0,18,19
 615 1305 615 1305 537.5 1259.5 c 128,-1,20
 460 1214 460 1214 412 1133.5 c 128,-1,21
 364 1053 364 1053 339.5 948.5 c 128,-1,22
 315 844 315 844 315 719 c 0,23,24
 315 617 315 617 329.5 528 c 128,-1,25
 344 439 344 439 375.5 363.5 c 128,-1,26
 407 288 407 288 453.5 234.5 c 128,-1,27
 500 181 500 181 566.5 151 c 128,-1,28
 633 121 633 121 715 121 c 0,29,30
 871 121 871 121 959.5 220.5 c 128,-1,31
 1048 320 1048 320 1069 535 c 1,32,-1
 1264 508 l 1,33,34
 1234 234 1234 234 1094.5 96.5 c 128,-1,35
 955 -41 955 -41 715 -41 c 0,0,1
EndSplineSet
EndChar

StartChar: D
Encoding: 68 68 39
Width: 1351
GlyphClass: 1
Flags: W
LayerCount: 2
Fore
SplineSet
350 150 m 1,0,1
 396 147 396 147 438 147 c 0,2,3
 586 147 586 147 694.5 177.5 c 128,-1,4
 803 208 803 208 881.5 275 c 128,-1,5
 960 342 960 342 999 453 c 128,-1,6
 1038 564 1038 564 1038 721 c 0,7,8
 1038 979 1038 979 891.5 1127.5 c 128,-1,9
 745 1276 745 1276 463 1276 c 0,10,11
 406 1276 406 1276 338 1270 c 1,12,13
 339 1005 339 1005 342 725 c 128,-1,14
 345 445 345 445 348 298 c 2,15,-1
 350 150 l 1,0,1
160 4 m 1,16,17
 163 405 163 405 162.5 718 c 128,-1,18
 162 1031 162 1031 160 1221 c 2,19,-1
 158 1411 l 1,20,21
 318 1434 318 1434 461 1434 c 0,22,23
 655 1434 655 1434 803.5 1381.5 c 128,-1,24
 952 1329 952 1329 1045 1233.5 c 128,-1,25
 1138 1138 1138 1138 1184.5 1008.5 c 128,-1,26
 1231 879 1231 879 1231 719 c 0,27,28
 1231 360 1231 360 1027.5 174 c 128,-1,29
 824 -12 824 -12 412 -12 c 0,30,31
 304 -12 304 -12 160 4 c 1,16,17
EndSplineSet
EndChar

StartChar: E
Encoding: 69 69 40
Width: 1148
GlyphClass: 1
Flags: W
LayerCount: 2
Fore
SplineSet
174 8 m 1,0,1
 172 596 172 596 158 1421 c 1,2,3
 546 1426 546 1426 1030 1436 c 1,4,5
 1030 1382 1030 1382 1032 1282 c 1,6,7
 710 1280 710 1280 342 1272 c 1,8,9
 342 1072 342 1072 346 739 c 1,10,11
 804 739 804 739 952 741 c 1,12,13
 952 678 952 678 954 580 c 1,14,15
 918 581 918 581 861 581.5 c 128,-1,16
 804 582 804 582 633.5 583 c 128,-1,17
 463 584 463 584 348 582 c 1,18,19
 353 287 353 287 356 156 c 1,20,-1
 1053 147 l 1,21,22
 1053 90 1053 90 1051 -6 c 1,23,24
 576 6 576 6 174 8 c 1,0,1
EndSplineSet
EndChar

StartChar: F
Encoding: 70 70 41
Width: 1091
GlyphClass: 1
Flags: W
LayerCount: 2
Fore
SplineSet
174 4 m 1,0,1
 172 598 172 598 158 1421 c 1,2,3
 605 1428 605 1428 1010 1434 c 1,4,5
 1012 1368 1012 1368 1012 1270 c 1,6,7
 654 1268 654 1268 344 1262 c 1,8,9
 344 1074 344 1074 348 700 c 1,10,11
 646 700 646 700 934 705 c 1,12,13
 934 637 934 637 936 539 c 1,14,15
 699 543 699 543 350 539 c 1,16,-1
 358 6 l 1,17,18
 247 4 247 4 174 4 c 1,0,1
EndSplineSet
EndChar

StartChar: G
Encoding: 71 71 42
Width: 1380
GlyphClass: 1
Flags: W
LayerCount: 2
Fore
SplineSet
723 -49 m 0,0,1
 434 -49 434 -49 277.5 145 c 128,-1,2
 121 339 121 339 121 713 c 0,3,4
 121 837 121 837 144.5 948.5 c 128,-1,5
 168 1060 168 1060 217.5 1155 c 128,-1,6
 267 1250 267 1250 338 1319 c 128,-1,7
 409 1388 409 1388 508.5 1427 c 128,-1,8
 608 1466 608 1466 727 1466 c 0,9,10
 933 1466 933 1466 1063 1348.5 c 128,-1,11
 1193 1231 1193 1231 1227 1016 c 1,12,13
 1166 1006 1166 1006 1053 979 c 1,14,15
 1025 1139 1025 1139 939 1226 c 128,-1,16
 853 1313 853 1313 721 1313 c 0,17,18
 588 1313 588 1313 494.5 1236 c 128,-1,19
 401 1159 401 1159 356 1028.5 c 128,-1,20
 311 898 311 898 311 725 c 0,21,22
 311 109 311 109 739 109 c 0,23,24
 904 109 904 109 1004.5 231.5 c 128,-1,25
 1105 354 1105 354 1096 580 c 1,26,27
 966 580 966 580 641 575 c 1,28,29
 641 635 641 635 639 737 c 1,30,31
 791 733 791 733 1253 737 c 1,32,33
 1268 643 1268 643 1268 559 c 0,34,35
 1268 276 1268 276 1120.5 113.5 c 128,-1,36
 973 -49 973 -49 723 -49 c 0,0,1
EndSplineSet
EndChar

StartChar: H
Encoding: 72 72 43
Width: 1304
GlyphClass: 1
Flags: W
LayerCount: 2
Fore
SplineSet
963 -43 m 1,0,-1
 963 512 l 1,1,2
 815 516 815 516 346 510 c 1,3,-1
 352 41 l 1,4,5
 248 41 248 41 166 39 c 1,6,7
 168 550 168 550 158 1382 c 1,8,9
 240 1382 240 1382 338 1384 c 1,10,11
 340 1097 340 1097 344 678 c 1,12,13
 533 672 533 672 961 674 c 1,14,15
 961 801 961 801 958 1077 c 128,-1,16
 955 1353 955 1353 954 1466 c 1,17,18
 1037 1466 1037 1466 1141 1468 c 1,19,20
 1141 793 1141 793 1147 -43 c 1,21,22
 1055 -41 1055 -41 963 -43 c 1,0,-1
EndSplineSet
EndChar

StartChar: I
Encoding: 73 73 44
Width: 550
GlyphClass: 1
Flags: W
LayerCount: 2
Fore
SplineSet
186 -2 m 1,0,1
 186 624 186 624 178 1421 c 1,2,3
 243 1423 243 1423 362 1423 c 1,4,5
 365 740 365 740 373 -2 c 1,6,7
 288 0 288 0 186 -2 c 1,0,1
EndSplineSet
EndChar

StartChar: J
Encoding: 74 74 45
Width: 1093
GlyphClass: 1
Flags: W
LayerCount: 2
Fore
SplineSet
526 -39 m 0,0,1
 299 -39 299 -39 192.5 99 c 128,-1,2
 86 237 86 237 86 504 c 0,3,4
 86 564 86 564 92 631 c 1,5,6
 160 627 160 627 281 625 c 1,7,8
 276 527 276 527 276 514 c 0,9,10
 276 315 276 315 339 223 c 128,-1,11
 402 131 402 131 528 131 c 0,12,13
 656 131 656 131 722 228.5 c 128,-1,14
 788 326 788 326 788 553 c 0,15,16
 788 781 788 781 786 1002 c 128,-1,17
 784 1223 784 1223 782 1330 c 2,18,-1
 780 1438 l 1,19,20
 850 1438 850 1438 975 1444 c 1,21,22
 973 1097 973 1097 973 518 c 0,23,24
 973 243 973 243 857 102 c 128,-1,25
 741 -39 741 -39 526 -39 c 0,0,1
EndSplineSet
EndChar

StartChar: K
Encoding: 75 75 46
Width: 1273
GlyphClass: 1
Flags: W
LayerCount: 2
Fore
SplineSet
1022 -47 m 1,0,1
 779 300 779 300 549 614 c 1,2,3
 433 470 433 470 340 350 c 1,4,-1
 346 33 l 1,5,-1
 160 31 l 1,6,-1
 158 1382 l 1,7,-1
 340 1380 l 1,8,9
 337 893 337 893 340 578 c 1,10,11
 528 824 528 824 691.5 1042.5 c 128,-1,12
 855 1261 855 1261 925 1356 c 2,13,-1
 995 1452 l 1,14,-1
 1200 1440 l 1,15,16
 868 1013 868 1013 676 743 c 1,17,18
 817 541 817 541 955 347 c 128,-1,19
 1093 153 1093 153 1161 60 c 2,20,-1
 1229 -33 l 1,21,22
 1167 -36 1167 -36 1115.5 -39.5 c 128,-1,23
 1064 -43 1064 -43 1043 -45 c 2,24,-1
 1022 -47 l 1,0,1
EndSplineSet
EndChar

StartChar: L
Encoding: 76 76 47
Width: 1067
GlyphClass: 1
Flags: W
LayerCount: 2
Fore
SplineSet
170 6 m 1,0,1
 168 627 168 627 158 1411 c 1,2,3
 211 1409 211 1409 342 1411 c 1,4,5
 340 1018 340 1018 350 168 c 1,6,7
 539 164 539 164 701 161.5 c 128,-1,8
 863 159 863 159 930 158 c 2,9,-1
 997 158 l 1,10,-1
 995 -6 l 1,11,12
 773 -1 773 -1 566.5 2 c 128,-1,13
 360 5 360 5 265 6 c 2,14,-1
 170 6 l 1,0,1
EndSplineSet
EndChar

StartChar: M
Encoding: 77 77 48
Width: 1822
GlyphClass: 1
Flags: W
LayerCount: 2
Fore
SplineSet
152 45 m 1,0,1
 168 526 168 526 195 1382 c 1,2,3
 322 1385 322 1385 459 1393 c 1,4,5
 692 761 692 761 885 256 c 1,6,7
 1093 789 1093 789 1339 1468 c 1,8,9
 1471 1466 1471 1466 1608 1458 c 1,10,11
 1634 745 1634 745 1671 -41 c 1,12,13
 1579 -41 1579 -41 1481 -43 c 1,14,15
 1475 546 1475 546 1450 1309 c 1,16,17
 1171 588 1171 588 987 82 c 1,18,19
 872 82 872 82 780 84 c 1,20,21
 580 638 580 638 344 1241 c 1,22,23
 336 665 336 665 334 39 c 1,24,25
 244 43 244 43 152 45 c 1,0,1
EndSplineSet
EndChar

StartChar: N
Encoding: 78 78 49
Width: 1343
GlyphClass: 1
Flags: W
LayerCount: 2
Fore
SplineSet
164 41 m 1,0,1
 168 542 168 542 158 1376 c 1,2,3
 245 1383 245 1383 358 1389 c 1,4,5
 667 824 667 824 1016 207 c 1,6,7
 1007 997 1007 997 993 1466 c 1,8,9
 1067 1464 1067 1464 1169 1464 c 1,10,11
 1172 878 1172 878 1186 -31 c 1,12,-1
 977 -45 l 1,13,14
 692 480 692 480 326 1126 c 1,15,16
 326 575 326 575 340 37 c 1,17,18
 262 39 262 39 164 41 c 1,0,1
EndSplineSet
EndChar

StartChar: O
Encoding: 79 79 50
Width: 1433
GlyphClass: 1
Flags: W
LayerCount: 2
Fore
SplineSet
717 -47 m 0,0,1
 445 -47 445 -47 284 149 c 128,-1,2
 123 345 123 345 123 694 c 0,3,4
 123 1052 123 1052 285 1259 c 128,-1,5
 447 1466 447 1466 725 1466 c 0,6,7
 995 1466 995 1466 1153 1258 c 128,-1,8
 1311 1050 1311 1050 1311 698 c 0,9,10
 1311 342 1311 342 1153 147.5 c 128,-1,11
 995 -47 995 -47 717 -47 c 0,0,1
715 111 m 0,12,13
 893 111 893 111 1003.5 262.5 c 128,-1,14
 1114 414 1114 414 1114 707 c 0,15,16
 1114 995 1114 995 1009 1153 c 128,-1,17
 904 1311 904 1311 719 1311 c 0,18,19
 528 1311 528 1311 423.5 1148 c 128,-1,20
 319 985 319 985 319 707 c 0,21,22
 319 431 319 431 425.5 271 c 128,-1,23
 532 111 532 111 715 111 c 0,12,13
EndSplineSet
EndChar

StartChar: P
Encoding: 80 80 51
Width: 1206
GlyphClass: 1
Flags: W
LayerCount: 2
Fore
SplineSet
168 18 m 1,0,1
 170 543 170 543 158 1399 c 1,2,3
 308 1417 308 1417 442 1417 c 0,4,5
 660 1417 660 1417 814 1369 c 128,-1,6
 968 1321 968 1321 1054.5 1216.5 c 128,-1,7
 1141 1112 1141 1112 1141 954 c 0,8,9
 1141 855 1141 855 1107.5 776.5 c 128,-1,10
 1074 698 1074 698 1015 644.5 c 128,-1,11
 956 591 956 591 872 555 c 128,-1,12
 788 519 788 519 690 503 c 128,-1,13
 592 487 592 487 477 487 c 0,14,15
 402 487 402 487 348 492 c 1,16,-1
 356 20 l 1,17,18
 258 22 258 22 168 18 c 1,0,1
342 1255 m 1,19,20
 343 1081 343 1081 343 904 c 128,-1,21
 343 727 343 727 344 643 c 1,22,23
 423 635 423 635 510 635 c 0,24,25
 730 635 730 635 841 718.5 c 128,-1,26
 952 802 952 802 952 958 c 0,27,28
 952 1097 952 1097 843 1179.5 c 128,-1,29
 734 1262 734 1262 494 1262 c 0,30,31
 438 1262 438 1262 342 1255 c 1,19,20
EndSplineSet
EndChar

StartChar: Q
Encoding: 81 81 52
Width: 1429
GlyphClass: 1
Flags: W
LayerCount: 2
Fore
SplineSet
717 -45 m 0,0,1
 438 -45 438 -45 279.5 150.5 c 128,-1,2
 121 346 121 346 121 684 c 0,3,4
 121 839 121 839 152 967.5 c 128,-1,5
 183 1096 183 1096 237.5 1186.5 c 128,-1,6
 292 1277 292 1277 367 1339.5 c 128,-1,7
 442 1402 442 1402 529.5 1432 c 128,-1,8
 617 1462 617 1462 715 1462 c 0,9,10
 1005 1462 1005 1462 1157 1254.5 c 128,-1,11
 1309 1047 1309 1047 1309 684 c 0,12,13
 1309 484 1309 484 1251 332 c 128,-1,14
 1193 180 1193 180 1087 86 c 1,15,-1
 1325 -229 l 1,16,17
 1278 -258 1278 -258 1239.5 -284 c 128,-1,18
 1201 -310 1201 -310 1186 -321 c 2,19,-1
 1171 -332 l 1,20,21
 1071 -184 1071 -184 944 -2 c 1,22,23
 843 -45 843 -45 717 -45 c 0,0,1
719 115 m 0,24,25
 900 115 900 115 1006 258 c 128,-1,26
 1112 401 1112 401 1112 702 c 0,27,28
 1112 985 1112 985 1005.5 1145 c 128,-1,29
 899 1305 899 1305 711 1305 c 0,30,31
 594 1305 594 1305 504 1228.5 c 128,-1,32
 414 1152 414 1152 364.5 1013.5 c 128,-1,33
 315 875 315 875 315 698 c 0,34,35
 315 416 315 416 423.5 265.5 c 128,-1,36
 532 115 532 115 719 115 c 0,24,25
EndSplineSet
EndChar

StartChar: R
Encoding: 82 82 53
Width: 1277
GlyphClass: 1
Flags: W
LayerCount: 2
Fore
SplineSet
1026 -53 m 1,0,1
 883 214 883 214 672 584 c 1,2,3
 590 575 590 575 494 575 c 0,4,5
 433 575 433 575 344 582 c 1,6,7
 344 340 344 340 352 37 c 1,8,9
 252 39 252 39 168 35 c 1,10,11
 170 537 170 537 158 1397 c 1,12,13
 366 1438 366 1438 553 1438 c 0,14,15
 851 1438 851 1438 1010 1327.5 c 128,-1,16
 1169 1217 1169 1217 1169 1014 c 0,17,18
 1169 709 1169 709 842 614 c 1,19,-1
 1212 -27 l 1,20,21
 1137 -35 1137 -35 1026 -53 c 1,0,1
342 737 m 1,22,23
 446 723 446 723 545 723 c 0,24,25
 765 723 765 723 874 791.5 c 128,-1,26
 983 860 983 860 983 1004 c 0,27,28
 983 1282 983 1282 575 1282 c 0,29,30
 474 1282 474 1282 336 1260 c 1,31,-1
 342 737 l 1,22,23
EndSplineSet
EndChar

StartChar: S
Encoding: 83 83 54
Width: 1239
GlyphClass: 1
Flags: W
LayerCount: 2
Fore
SplineSet
616 -41 m 0,0,1
 377 -32 377 -32 244 92.5 c 128,-1,2
 111 217 111 217 96 459 c 1,3,4
 158 463 158 463 293 479 c 1,5,6
 299 307 299 307 385.5 212.5 c 128,-1,7
 472 118 472 118 621 113 c 0,8,9
 754 110 754 110 847 171.5 c 128,-1,10
 940 233 940 233 940 344 c 0,11,12
 940 381 940 381 933 408.5 c 128,-1,13
 926 436 926 436 902.5 468.5 c 128,-1,14
 879 501 879 501 838 529 c 128,-1,15
 797 557 797 557 725.5 587.5 c 128,-1,16
 654 618 654 618 553 647 c 0,17,18
 334 711 334 711 234.5 816 c 128,-1,19
 135 921 135 921 135 1081 c 0,20,21
 135 1248 135 1248 269.5 1355 c 128,-1,22
 404 1462 404 1462 621 1462 c 0,23,24
 831 1462 831 1462 961.5 1344.5 c 128,-1,25
 1092 1227 1092 1227 1112 1008 c 1,26,27
 1035 995 1035 995 926 983 c 1,28,29
 924 1126 924 1126 844 1215.5 c 128,-1,30
 764 1305 764 1305 621 1305 c 0,31,32
 481 1305 481 1305 400 1245 c 128,-1,33
 319 1185 319 1185 319 1083 c 0,34,35
 319 976 319 976 403.5 909.5 c 128,-1,36
 488 843 488 843 692 782 c 0,37,38
 830 741 830 741 921 691 c 128,-1,39
 1012 641 1012 641 1056.5 583.5 c 128,-1,40
 1101 526 1101 526 1117 472.5 c 128,-1,41
 1133 419 1133 419 1133 350 c 0,42,43
 1133 233 1133 233 1064.5 141.5 c 128,-1,44
 996 50 996 50 877.5 2 c 128,-1,45
 759 -46 759 -46 616 -41 c 0,0,1
EndSplineSet
EndChar

StartChar: T
Encoding: 84 84 55
Width: 1128
GlyphClass: 1
Flags: W
LayerCount: 2
Fore
SplineSet
57 1262 m 1,0,1
 57 1335 57 1335 55 1427 c 1,2,3
 558 1428 558 1428 1073 1436 c 1,4,5
 1071 1356 1071 1356 1073 1268 c 1,6,-1
 657 1268 l 1,7,8
 657 912 657 912 668 -20 c 1,9,10
 581 -21 581 -21 479 -23 c 1,11,12
 479 496 479 496 473 1266 c 1,13,14
 327 1266 327 1266 57 1262 c 1,0,1
EndSplineSet
EndChar

StartChar: U
Encoding: 85 85 56
Width: 1296
GlyphClass: 1
Flags: W
LayerCount: 2
Fore
SplineSet
659 -29 m 0,0,1
 390 -29 390 -29 265.5 129.5 c 128,-1,2
 141 288 141 288 141 594 c 2,3,-1
 137 1382 l 1,4,-1
 328 1380 l 1,5,6
 324 821 324 821 324 612 c 0,7,8
 324 362 324 362 406 249.5 c 128,-1,9
 488 137 488 137 666 137 c 0,10,11
 833 137 833 137 906 255 c 128,-1,12
 979 373 979 373 979 623 c 2,13,-1
 977 1458 l 1,14,15
 1032 1456 1032 1456 1159 1462 c 1,16,17
 1155 883 1155 883 1155 614 c 0,18,19
 1155 -29 1155 -29 659 -29 c 0,0,1
EndSplineSet
EndChar

StartChar: V
Encoding: 86 86 57
Width: 1255
GlyphClass: 1
Flags: W
LayerCount: 2
Fore
SplineSet
758 -47 m 1,0,-1
 483 -43 l 1,1,2
 368 336 368 336 261 684 c 128,-1,3
 154 1032 154 1032 104 1191 c 2,4,-1
 55 1350 l 1,5,-1
 252 1354 l 1,6,7
 389 856 389 856 621 92 c 1,8,-1
 1012 1442 l 1,9,-1
 1200 1432 l 1,10,11
 1092 1082 1092 1082 981.5 712 c 128,-1,12
 871 342 871 342 814 148 c 2,13,-1
 758 -47 l 1,0,-1
EndSplineSet
EndChar

StartChar: W
Encoding: 87 87 58
Width: 1808
GlyphClass: 1
Flags: W
LayerCount: 2
Fore
SplineSet
1206 -25 m 1,0,1
 983 887 983 887 893 1210 c 1,2,3
 803 878 803 878 725 581.5 c 128,-1,4
 647 285 647 285 614 155 c 2,5,-1
 582 25 l 1,6,-1
 319 39 l 1,7,8
 260 390 260 390 199.5 732.5 c 128,-1,9
 139 1075 139 1075 107.5 1246.5 c 128,-1,10
 76 1418 76 1418 76 1421 c 2,11,-1
 260 1427 l 1,12,13
 364 752 364 752 465 209 c 1,14,15
 566 573 566 573 642 858 c 128,-1,16
 718 1143 718 1143 744 1246 c 2,17,-1
 770 1348 l 1,18,-1
 1018 1346 l 1,19,20
 1269 382 1269 382 1339 133 c 1,21,22
 1426 606 1426 606 1484.5 942.5 c 128,-1,23
 1543 1279 1543 1279 1558 1379 c 2,24,-1
 1573 1479 l 1,25,-1
 1753 1473 l 1,26,27
 1652 950 1652 950 1583 579 c 128,-1,28
 1514 208 1514 208 1496 98 c 2,29,-1
 1477 -12 l 1,30,-1
 1206 -25 l 1,0,1
EndSplineSet
EndChar

StartChar: X
Encoding: 88 88 59
Width: 1267
GlyphClass: 1
Flags: W
LayerCount: 2
Fore
SplineSet
281 35 m 1,0,-1
 59 37 l 1,1,2
 353 487 353 487 500 719 c 1,3,4
 382 917 382 917 84 1380 c 1,5,6
 176 1380 176 1380 297 1389 c 1,7,8
 399 1207 399 1207 616 852 c 1,9,10
 733 1044 733 1044 825.5 1197.5 c 128,-1,11
 918 1351 918 1351 952 1408 c 2,12,-1
 985 1466 l 1,13,-1
 1194 1462 l 1,14,15
 878 968 878 968 725 723 c 1,16,17
 864 495 864 495 985 306 c 128,-1,18
 1106 117 1106 117 1157 42 c 2,19,-1
 1208 -33 l 1,20,-1
 995 -43 l 1,21,22
 786 311 786 311 608 584 c 1,23,24
 512 431 512 431 430.5 294 c 128,-1,25
 349 157 349 157 315 96 c 2,26,-1
 281 35 l 1,0,-1
EndSplineSet
EndChar

StartChar: Y
Encoding: 89 89 60
Width: 1245
GlyphClass: 1
Flags: W
LayerCount: 2
Fore
SplineSet
510 -20 m 1,0,1
 509 -12 509 -12 509 53.5 c 128,-1,2
 509 119 509 119 507 226 c 128,-1,3
 505 333 505 333 502 424 c 1,4,5
 380 702 380 702 45 1395 c 1,6,7
 109 1397 109 1397 248 1405 c 1,8,9
 342 1179 342 1179 596 631 c 1,10,11
 738 900 738 900 997 1444 c 1,12,13
 1079 1442 1079 1442 1200 1438 c 1,14,15
 996 1064 996 1064 688 426 c 1,16,17
 686 262 686 262 694 -18 c 1,18,19
 623 -16 623 -16 510 -20 c 1,0,1
EndSplineSet
EndChar

StartChar: Z
Encoding: 90 90 61
Width: 1146
GlyphClass: 1
Flags: W
LayerCount: 2
Fore
SplineSet
1024 -4 m 1,0,1
 844 0 844 0 616.5 2.5 c 128,-1,2
 389 5 389 5 252 6 c 2,3,-1
 115 6 l 1,4,-1
 117 145 l 1,5,6
 590 892 590 892 817 1270 c 1,7,8
 621 1268 621 1268 448 1265 c 128,-1,9
 275 1262 275 1262 200 1260 c 2,10,-1
 125 1257 l 1,11,-1
 123 1421 l 1,12,13
 386 1423 386 1423 611.5 1426.5 c 128,-1,14
 837 1430 837 1430 930 1433 c 2,15,-1
 1024 1436 l 1,16,-1
 1028 1288 l 1,17,18
 521 487 521 487 328 168 c 1,19,20
 454 165 454 165 629 163.5 c 128,-1,21
 804 162 804 162 916 162 c 2,22,-1
 1028 162 l 1,23,-1
 1024 -4 l 1,0,1
EndSplineSet
EndChar

StartChar: bracketleft
Encoding: 91 91 62
Width: 694
GlyphClass: 1
Flags: W
LayerCount: 2
Fore
SplineSet
608 -240 m 1,0,1
 409 -233 409 -233 186 -233 c 1,2,3
 190 291 190 291 178 1499 c 1,4,5
 342 1499 342 1499 596 1503 c 1,6,7
 596 1444 596 1444 600 1364 c 1,8,9
 502 1364 502 1364 367 1360 c 1,10,11
 363 452 363 452 369 -84 c 1,12,13
 467 -88 467 -88 612 -88 c 1,14,15
 608 -148 608 -148 608 -240 c 1,0,1
EndSplineSet
Substitution2: "<6,0> Monospaced Numbers in Latin lookup 6 subtable" bracketleft.tab
Substitution2: "'rtla' Right to Left Alternates in Latin lookup 0 subtable" bracketright
EndChar

StartChar: backslash
Encoding: 92 92 63
Width: 909
GlyphClass: 1
Flags: W
LayerCount: 2
Fore
SplineSet
838 -227 m 1,0,1
 764 -225 764 -225 662 -227 c 1,2,3
 507 254 507 254 72 1503 c 1,4,5
 140 1499 140 1499 246 1503 c 1,6,7
 515 686 515 686 838 -227 c 1,0,1
EndSplineSet
EndChar

StartChar: bracketright
Encoding: 93 93 64
Width: 694
GlyphClass: 1
Flags: W
LayerCount: 2
Fore
SplineSet
90 -246 m 1,0,1
 90 -208 90 -208 89 -172.5 c 128,-1,2
 88 -137 88 -137 87 -116 c 2,3,-1
 86 -96 l 1,4,5
 145 -96 145 -96 202.5 -95 c 128,-1,6
 260 -94 260 -94 294.5 -93 c 128,-1,7
 329 -92 329 -92 332 -92 c 0,8,9
 334 269 334 269 332 769.5 c 128,-1,10
 330 1270 330 1270 328 1376 c 1,11,12
 247 1380 247 1380 96 1380 c 1,13,14
 98 1417 98 1417 98 1522 c 1,15,16
 331 1518 331 1518 514 1518 c 1,17,18
 506 486 506 486 512 -240 c 1,19,20
 427 -239 427 -239 328 -240.5 c 128,-1,21
 229 -242 229 -242 161 -244 c 128,-1,22
 93 -246 93 -246 90 -246 c 1,0,1
EndSplineSet
Substitution2: "<6,0> Monospaced Numbers in Latin lookup 6 subtable" bracketright.tab
Substitution2: "'rtla' Right to Left Alternates in Latin lookup 0 subtable" bracketleft
EndChar

StartChar: asciicircum
Encoding: 94 94 65
Width: 1040
GlyphClass: 1
Flags: W
LayerCount: 2
Fore
SplineSet
948 631 m 1,0,1
 943 632 943 632 931.5 632.5 c 128,-1,2
 920 633 920 633 877.5 634 c 128,-1,3
 835 635 835 635 780 633 c 1,4,5
 700 855 700 855 518 1294 c 1,6,7
 372 928 372 928 258 621 c 1,8,9
 201 627 201 627 92 627 c 1,10,11
 217 921 217 921 426 1438 c 1,12,13
 499 1434 499 1434 616 1438 c 1,14,15
 729 1144 729 1144 948 631 c 1,0,1
EndSplineSet
EndChar

StartChar: underscore
Encoding: 95 95 66
Width: 985
GlyphClass: 1
Flags: W
LayerCount: 2
Fore
SplineSet
37 -166 m 1,0,1
 39 -78 39 -78 35 -18 c 1,2,3
 354 -25 354 -25 954 -18 c 1,4,5
 952 -112 952 -112 952 -168 c 1,6,7
 492 -163 492 -163 37 -166 c 1,0,1
EndSplineSet
EndChar

StartChar: grave
Encoding: 96 96 67
Width: 1187
GlyphClass: 1
Flags: W
LayerCount: 2
Fore
SplineSet
662 1139 m 1,0,1
 566 1253 566 1253 367 1462 c 1,2,3
 408 1491 408 1491 494 1554 c 1,4,5
 588 1423 588 1423 760 1210 c 1,6,7
 736 1194 736 1194 662 1139 c 1,0,1
EndSplineSet
EndChar

StartChar: a
Encoding: 97 97 68
Width: 1114
GlyphClass: 1
Flags: W
LayerCount: 2
Fore
SplineSet
446 -33 m 0,0,1
 293 -33 293 -33 197.5 46.5 c 128,-1,2
 102 126 102 126 102 272 c 0,3,4
 102 445 102 445 273.5 542.5 c 128,-1,5
 445 640 445 640 793 653 c 1,6,-1
 793 674 l 2,7,8
 793 793 793 793 735.5 862.5 c 128,-1,9
 678 932 678 932 565 932 c 0,10,11
 466 932 466 932 402 880 c 128,-1,12
 338 828 338 828 303 713 c 1,13,14
 237 738 237 738 141 756 c 1,15,16
 245 1063 245 1063 575 1063 c 0,17,18
 761 1063 761 1063 866 956.5 c 128,-1,19
 971 850 971 850 975 641 c 0,20,21
 979 484 979 484 979.5 315.5 c 128,-1,22
 980 147 980 147 978 57 c 2,23,-1
 977 -33 l 1,24,25
 923 -35 923 -35 823 -37 c 1,26,27
 827 62 827 62 829 209 c 1,28,29
 777 98 777 98 680 32.5 c 128,-1,30
 583 -33 583 -33 446 -33 c 0,0,1
801 469 m 2,31,-1
 801 535 l 1,32,33
 528 520 528 520 406.5 457 c 128,-1,34
 285 394 285 394 285 283 c 0,35,36
 285 201 285 201 338.5 154 c 128,-1,37
 392 107 392 107 489 106 c 0,38,39
 624 104 624 104 712.5 199 c 128,-1,40
 801 294 801 294 801 469 c 2,31,-1
EndSplineSet
EndChar

StartChar: b
Encoding: 98 98 69
Width: 1212
GlyphClass: 1
Flags: W
LayerCount: 2
Fore
SplineSet
147 -37 m 1,0,1
 153 94 153 94 143 1389 c 1,2,3
 149 1388 149 1388 162 1387.5 c 128,-1,4
 175 1387 175 1387 222 1386 c 128,-1,5
 269 1385 269 1385 326 1386 c 1,6,7
 321 1119 321 1119 319 817 c 1,8,9
 370 934 370 934 464.5 996.5 c 128,-1,10
 559 1059 559 1059 682 1059 c 0,11,12
 873 1059 873 1059 986.5 908 c 128,-1,13
 1100 757 1100 757 1100 512 c 0,14,15
 1100 251 1100 251 979 107 c 128,-1,16
 858 -37 858 -37 651 -37 c 0,17,18
 529 -37 529 -37 439.5 22.5 c 128,-1,19
 350 82 350 82 301 199 c 1,20,21
 301 72 301 72 307 -39 c 1,22,23
 219 -39 219 -39 147 -37 c 1,0,1
635 88 m 0,24,25
 765 88 765 88 840 197 c 128,-1,26
 915 306 915 306 915 522 c 0,27,28
 915 633 915 633 885 722.5 c 128,-1,29
 855 812 855 812 792.5 868 c 128,-1,30
 730 924 730 924 645 924 c 0,31,32
 514 924 514 924 419 805.5 c 128,-1,33
 324 687 324 687 324 489 c 0,34,35
 324 315 324 315 415 201.5 c 128,-1,36
 506 88 506 88 635 88 c 0,24,25
EndSplineSet
EndChar

StartChar: c
Encoding: 99 99 70
Width: 1132
GlyphClass: 1
Flags: W
LayerCount: 2
Fore
SplineSet
590 -45 m 0,0,1
 495 -45 495 -45 416.5 -17 c 128,-1,2
 338 11 338 11 282 61 c 128,-1,3
 226 111 226 111 188 180.5 c 128,-1,4
 150 250 150 250 132 333 c 128,-1,5
 114 416 114 416 115 510 c 0,6,7
 115 748 115 748 243 903.5 c 128,-1,8
 371 1059 371 1059 588 1059 c 0,9,10
 770 1059 770 1059 876.5 964.5 c 128,-1,11
 983 870 983 870 1020 698 c 1,12,13
 972 694 972 694 927 687 c 128,-1,14
 882 680 882 680 861 675 c 2,15,-1
 840 670 l 1,16,17
 814 785 814 785 755.5 850 c 128,-1,18
 697 915 697 915 586 915 c 0,19,20
 445 915 445 915 370 803 c 128,-1,21
 295 691 295 691 295 506 c 0,22,23
 295 318 295 318 370 209 c 128,-1,24
 445 100 445 100 588 100 c 0,25,26
 694 100 694 100 758 160 c 128,-1,27
 822 220 822 220 858 360 c 1,28,29
 907 346 907 346 1030 330 c 1,30,31
 989 138 989 138 881 46.5 c 128,-1,32
 773 -45 773 -45 590 -45 c 0,0,1
EndSplineSet
EndChar

StartChar: d
Encoding: 100 100 71
Width: 1212
GlyphClass: 1
Flags: W
LayerCount: 2
Fore
SplineSet
1069 -37 m 1,0,1
 977 -35 977 -35 903 -35 c 1,2,3
 907 63 907 63 911 213 c 1,4,5
 864 90 864 90 760 26.5 c 128,-1,6
 656 -37 656 -37 532 -37 c 0,7,8
 345 -37 345 -37 229 110 c 128,-1,9
 113 257 113 257 113 498 c 0,10,11
 113 748 113 748 233 903.5 c 128,-1,12
 353 1059 353 1059 545 1059 c 0,13,14
 664 1059 664 1059 754 998 c 128,-1,15
 844 937 844 937 893 840 c 1,16,17
 886 1277 886 1277 883 1405 c 1,18,19
 926 1403 926 1403 1069 1407 c 1,20,21
 1063 760 1063 760 1069 -37 c 1,0,1
582 94 m 0,22,23
 715 94 715 94 803 205.5 c 128,-1,24
 891 317 891 317 891 496 c 1,25,26
 886 619 886 619 851.5 713 c 128,-1,27
 817 807 817 807 745 865.5 c 128,-1,28
 673 924 673 924 571 924 c 0,29,30
 446 924 446 924 371.5 804 c 128,-1,31
 297 684 297 684 297 508 c 0,32,33
 297 319 297 319 369.5 206.5 c 128,-1,34
 442 94 442 94 582 94 c 0,22,23
EndSplineSet
EndChar

StartChar: e
Encoding: 101 101 72
Width: 1138
GlyphClass: 1
Flags: W
LayerCount: 2
Fore
SplineSet
584 -43 m 0,0,1
 466 -43 466 -43 374.5 0.5 c 128,-1,2
 283 44 283 44 227 120.5 c 128,-1,3
 171 197 171 197 142.5 296 c 128,-1,4
 114 395 114 395 115 512 c 0,5,6
 115 664 115 664 170.5 786.5 c 128,-1,7
 226 909 226 909 338.5 984 c 128,-1,8
 451 1059 451 1059 604 1059 c 0,9,10
 718 1058 718 1058 806 1009 c 128,-1,11
 894 960 894 960 943.5 879.5 c 128,-1,12
 993 799 993 799 1011 698 c 128,-1,13
 1029 597 1029 597 1012 489 c 1,14,15
 798 487 798 487 299 471 c 1,16,17
 307 297 307 297 382 196.5 c 128,-1,18
 457 96 457 96 590 96 c 0,19,20
 797 96 797 96 868 322 c 1,21,22
 903 308 903 308 1032 279 c 1,23,24
 978 126 978 126 865 41.5 c 128,-1,25
 752 -43 752 -43 584 -43 c 0,0,1
596 924 m 0,26,27
 475 924 475 924 399.5 839 c 128,-1,28
 324 754 324 754 305 606 c 1,29,30
 310 606 310 606 846 629 c 1,31,32
 843 755 843 755 778 839.5 c 128,-1,33
 713 924 713 924 596 924 c 0,26,27
EndSplineSet
EndChar

StartChar: f
Encoding: 102 102 73
Width: 804
GlyphClass: 1
Flags: W
LayerCount: 2
Fore
SplineSet
727 889 m 1,0,1
 594 891 594 891 401 889 c 1,2,-1
 403 4 l 1,3,4
 323 6 323 6 227 2 c 1,5,6
 221 509 221 509 221 889 c 1,7,-1
 63 887 l 1,8,9
 63 936 63 936 61 1032 c 1,10,11
 121 1028 121 1028 223 1028 c 1,12,-1
 223 1069 l 2,13,14
 223 1254 223 1254 306 1346 c 128,-1,15
 389 1438 389 1438 565 1438 c 0,16,17
 639 1438 639 1438 754 1415 c 1,18,19
 747 1364 747 1364 739 1274 c 1,20,21
 640 1298 640 1298 575 1298 c 0,22,23
 478 1298 478 1298 440.5 1244.5 c 128,-1,24
 403 1191 403 1191 403 1063 c 2,25,-1
 403 1026 l 1,26,27
 592 1026 592 1026 729 1028 c 1,28,29
 727 975 727 975 727 889 c 1,0,1
EndSplineSet
EndChar

StartChar: g
Encoding: 103 103 74
Width: 1107
GlyphClass: 1
Flags: W
LayerCount: 2
Fore
SplineSet
543 264 m 0,0,1
 498 264 498 264 455 270 c 1,2,3
 375 222 375 222 375 178 c 0,4,5
 375 140 375 140 430.5 118 c 128,-1,6
 486 96 486 96 621 86 c 0,7,8
 792 72 792 72 892 34 c 128,-1,9
 992 -4 992 -4 1029.5 -58 c 128,-1,10
 1067 -112 1067 -112 1067 -193 c 0,11,12
 1067 -302 1067 -302 991.5 -386 c 128,-1,13
 916 -470 916 -470 790 -513.5 c 128,-1,14
 664 -557 664 -557 510 -557 c 0,15,16
 300 -557 300 -557 180.5 -478 c 128,-1,17
 61 -399 61 -399 61 -272 c 0,18,19
 61 -186 61 -186 126.5 -115 c 128,-1,20
 192 -44 192 -44 291 2 c 1,21,22
 209 51 209 51 209 133 c 0,23,24
 209 175 209 175 242.5 221 c 128,-1,25
 276 267 276 267 338 301 c 1,26,27
 218 349 218 349 149.5 449 c 128,-1,28
 81 549 81 549 82 680 c 0,29,30
 84 852 84 852 209.5 961.5 c 128,-1,31
 335 1071 335 1071 535 1071 c 0,32,33
 657 1071 657 1071 764 1024 c 1,34,35
 808 1147 808 1147 864 1319 c 1,36,37
 931 1290 931 1290 1044 1249 c 1,38,39
 989 1169 989 1169 864 958 c 1,40,41
 927 902 927 902 961 827.5 c 128,-1,42
 995 753 995 753 995 670 c 0,43,44
 995 485 995 485 863.5 374.5 c 128,-1,45
 732 264 732 264 543 264 c 0,0,1
539 395 m 0,46,47
 667 395 667 395 741 466 c 128,-1,48
 815 537 815 537 815 674 c 0,49,50
 815 784 815 784 741.5 860 c 128,-1,51
 668 936 668 936 537 936 c 0,52,53
 409 936 409 936 334.5 866 c 128,-1,54
 260 796 260 796 260 674 c 0,55,56
 260 546 260 546 334.5 470.5 c 128,-1,57
 409 395 409 395 539 395 c 0,46,47
893 -211 m 0,58,59
 893 -189 893 -189 884.5 -170.5 c 128,-1,60
 876 -152 876 -152 856.5 -137.5 c 128,-1,61
 837 -123 837 -123 814 -111.5 c 128,-1,62
 791 -100 791 -100 754.5 -91 c 128,-1,63
 718 -82 718 -82 682.5 -75.5 c 128,-1,64
 647 -69 647 -69 595.5 -64 c 128,-1,65
 544 -59 544 -59 498.5 -55 c 128,-1,66
 453 -51 453 -51 389 -47 c 1,67,68
 244 -137 244 -137 244 -248 c 0,69,70
 244 -325 244 -325 318 -370.5 c 128,-1,71
 392 -416 392 -416 526 -416 c 0,72,73
 690 -416 690 -416 791.5 -357 c 128,-1,74
 893 -298 893 -298 893 -211 c 0,58,59
EndSplineSet
EndChar

StartChar: h
Encoding: 104 104 75
Width: 1148
GlyphClass: 1
Flags: W
LayerCount: 2
Fore
SplineSet
150 39 m 1,0,1
 151 600 151 600 143 1384 c 1,2,3
 209 1384 209 1384 326 1386 c 1,4,-1
 324 791 l 1,5,6
 380 915 380 915 475 984 c 128,-1,7
 570 1053 570 1053 692 1053 c 0,8,9
 846 1053 846 1053 925.5 958 c 128,-1,10
 1005 863 1005 863 1010 680 c 0,11,12
 1014 505 1014 505 1014.5 325 c 128,-1,13
 1015 145 1015 145 1014 52 c 2,14,-1
 1012 -41 l 1,15,-1
 834 -41 l 1,16,17
 835 -10 835 -10 836 45.5 c 128,-1,18
 837 101 837 101 838 279 c 128,-1,19
 839 457 839 457 836 618 c 0,20,21
 833 761 833 761 788.5 830 c 128,-1,22
 744 899 744 899 641 899 c 0,23,24
 548 899 548 899 475 832 c 128,-1,25
 402 765 402 765 365 663.5 c 128,-1,26
 328 562 328 562 326 449 c 2,27,-1
 328 41 l 1,28,29
 252 41 252 41 150 39 c 1,0,1
EndSplineSet
EndChar

StartChar: i
Encoding: 105 105 76
Width: 534
GlyphClass: 1
Flags: W
LayerCount: 2
Fore
SplineSet
184 4 m 1,0,1
 188 275 188 275 180 1026 c 1,2,3
 252 1026 252 1026 356 1028 c 1,4,5
 357 632 357 632 365 6 c 1,6,7
 288 6 288 6 184 4 c 1,0,1
270 1157 m 0,8,9
 210 1157 210 1157 171.5 1191.5 c 128,-1,10
 133 1226 133 1226 133 1286 c 0,11,12
 133 1344 133 1344 171 1378.5 c 128,-1,13
 209 1413 209 1413 270 1413 c 0,14,15
 330 1413 330 1413 365.5 1375.5 c 128,-1,16
 401 1338 401 1338 401 1288 c 0,17,18
 401 1227 401 1227 365 1192 c 128,-1,19
 329 1157 329 1157 270 1157 c 0,8,9
EndSplineSet
EndChar

StartChar: j
Encoding: 106 106 77
Width: 534
GlyphClass: 1
Flags: W
LayerCount: 2
Fore
SplineSet
270 1159 m 0,0,1
 205 1159 205 1159 169 1196 c 128,-1,2
 133 1233 133 1233 133 1288 c 0,3,4
 133 1344 133 1344 171 1378.5 c 128,-1,5
 209 1413 209 1413 266 1413 c 0,6,7
 328 1413 328 1413 364.5 1377.5 c 128,-1,8
 401 1342 401 1342 401 1288 c 0,9,10
 401 1228 401 1228 364 1193.5 c 128,-1,11
 327 1159 327 1159 270 1159 c 0,0,1
-78 -424 m 1,12,13
 -74 -354 -74 -354 -72 -256 c 1,14,15
 -14 -268 -14 -268 33 -268 c 0,16,17
 106 -268 106 -268 144.5 -231 c 128,-1,18
 183 -194 183 -194 184 -111 c 0,19,20
 186 154 186 154 185 407 c 128,-1,21
 184 660 184 660 182 843 c 2,22,-1
 180 1026 l 1,23,24
 240 1025 240 1025 279 1025.5 c 128,-1,25
 318 1026 318 1026 336 1027 c 2,26,-1
 354 1028 l 1,27,28
 355 970 355 970 356.5 870.5 c 128,-1,29
 358 771 358 771 360.5 457.5 c 128,-1,30
 363 144 363 144 360 -121 c 0,31,32
 360 -281 360 -281 273.5 -357.5 c 128,-1,33
 187 -434 187 -434 41 -434 c 0,34,35
 -10 -434 -10 -434 -78 -424 c 1,12,13
EndSplineSet
EndChar

StartChar: k
Encoding: 107 107 78
Width: 1058
GlyphClass: 1
Flags: W
LayerCount: 2
Fore
SplineSet
823 -43 m 1,0,1
 570 360 570 360 479 496 c 1,2,-1
 324 319 l 1,3,-1
 328 37 l 1,4,-1
 147 41 l 1,5,6
 149 521 149 521 148 820 c 128,-1,7
 147 1119 147 1119 145 1252 c 2,8,-1
 143 1386 l 1,9,-1
 324 1384 l 1,10,11
 321 796 321 796 324 506 c 1,12,13
 477 686 477 686 591.5 825 c 128,-1,14
 706 964 706 964 744 1012 c 2,15,-1
 782 1061 l 1,16,-1
 999 1053 l 1,17,18
 738 766 738 766 604 606 c 1,19,20
 723 417 723 417 826.5 256.5 c 128,-1,21
 930 96 930 96 974 30 c 2,22,-1
 1018 -35 l 1,23,24
 956 -36 956 -36 907.5 -38 c 128,-1,25
 859 -40 859 -40 841 -42 c 2,26,-1
 823 -43 l 1,0,1
EndSplineSet
EndChar

StartChar: l
Encoding: 108 108 79
Width: 491
GlyphClass: 1
Flags: W
LayerCount: 2
Fore
SplineSet
334 6 m 1,0,-1
 154 8 l 1,1,2
 157 442 157 442 157.5 795 c 128,-1,3
 158 1148 158 1148 157 1284 c 2,4,-1
 156 1419 l 1,5,-1
 338 1417 l 1,6,7
 334 913 334 913 333 560 c 128,-1,8
 332 207 332 207 333 106 c 2,9,-1
 334 6 l 1,0,-1
EndSplineSet
EndChar

StartChar: m
Encoding: 109 109 80
Width: 1773
GlyphClass: 1
Flags: W
LayerCount: 2
Fore
SplineSet
150 39 m 1,0,1
 151 423 151 423 143 993 c 1,2,3
 211 993 211 993 299 991 c 1,4,5
 293 882 293 882 293 743 c 1,6,7
 348 882 348 882 452 967.5 c 128,-1,8
 556 1053 556 1053 670 1053 c 0,9,10
 798 1053 798 1053 868 973.5 c 128,-1,11
 938 894 938 894 954 752 c 1,12,13
 1002 875 1002 875 1102.5 944.5 c 128,-1,14
 1203 1014 1203 1014 1315 1014 c 0,15,16
 1477 1014 1477 1014 1553 907 c 128,-1,17
 1629 800 1629 800 1634 618 c 0,18,19
 1638 483 1638 483 1639 318.5 c 128,-1,20
 1640 154 1640 154 1639 56 c 2,21,-1
 1638 -41 l 1,22,-1
 1458 -39 l 1,23,24
 1466 300 1466 300 1458 586 c 0,25,26
 1452 860 1452 860 1266 860 c 0,27,28
 1182 860 1182 860 1115 803 c 128,-1,29
 1048 746 1048 746 1013 653.5 c 128,-1,30
 978 561 978 561 977 453 c 2,31,-1
 979 76 l 1,32,33
 899 74 899 74 801 76 c 1,34,35
 807 343 807 343 799 645 c 0,36,37
 797 763 797 763 755 831 c 128,-1,38
 713 899 713 899 629 899 c 0,39,40
 517 899 517 899 421.5 772.5 c 128,-1,41
 326 646 326 646 326 453 c 0,42,43
 325 364 325 364 326 261 c 128,-1,44
 327 158 327 158 328 100 c 2,45,-1
 330 41 l 1,46,47
 254 39 254 39 150 39 c 1,0,1
EndSplineSet
EndChar

StartChar: n
Encoding: 110 110 81
Width: 1142
GlyphClass: 1
Flags: W
LayerCount: 2
Fore
SplineSet
829 -45 m 1,0,-1
 831 618 l 2,1,2
 831 754 831 754 788 825.5 c 128,-1,3
 745 897 745 897 637 897 c 0,4,5
 550 897 550 897 477.5 837 c 128,-1,6
 405 777 405 777 365 679 c 128,-1,7
 325 581 325 581 324 469 c 0,8,9
 322 405 322 405 322 298 c 128,-1,10
 322 191 322 191 323 116 c 2,11,-1
 324 41 l 1,12,13
 227 43 227 43 143 41 c 1,14,15
 144 83 144 83 144.5 159 c 128,-1,16
 145 235 145 235 146 489 c 128,-1,17
 147 743 147 743 145 995 c 1,18,19
 225 993 225 993 297 997 c 1,20,21
 296 983 296 983 295 958 c 128,-1,22
 294 933 294 933 293 865 c 128,-1,23
 292 797 292 797 293 741 c 1,24,25
 345 888 345 888 454 970.5 c 128,-1,26
 563 1053 563 1053 694 1051 c 0,27,28
 777 1051 777 1051 838 1022 c 128,-1,29
 899 993 899 993 934 940.5 c 128,-1,30
 969 888 969 888 986.5 823 c 128,-1,31
 1004 758 1004 758 1006 676 c 2,32,-1
 1010 -43 l 1,33,-1
 829 -45 l 1,0,-1
EndSplineSet
EndChar

StartChar: o
Encoding: 111 111 82
Width: 1187
GlyphClass: 1
Flags: W
LayerCount: 2
Fore
SplineSet
592 -41 m 0,0,1
 366 -41 366 -41 239.5 107.5 c 128,-1,2
 113 256 113 256 113 516 c 0,3,4
 113 761 113 761 245 910 c 128,-1,5
 377 1059 377 1059 594 1059 c 0,6,7
 814 1059 814 1059 944.5 911 c 128,-1,8
 1075 763 1075 763 1075 514 c 0,9,10
 1075 249 1075 249 942 104 c 128,-1,11
 809 -41 809 -41 592 -41 c 0,0,1
594 96 m 0,12,13
 728 96 728 96 809 204 c 128,-1,14
 890 312 890 312 891 514 c 0,15,16
 891 696 891 696 815 809 c 128,-1,17
 739 922 739 922 596 922 c 0,18,19
 465 922 465 922 381 812 c 128,-1,20
 297 702 297 702 297 520 c 0,21,22
 297 310 297 310 377 203 c 128,-1,23
 457 96 457 96 594 96 c 0,12,13
EndSplineSet
EndChar

StartChar: p
Encoding: 112 112 83
Width: 1216
GlyphClass: 1
Flags: W
LayerCount: 2
Fore
SplineSet
143 -438 m 1,0,1
 146 -103 146 -103 146 260.5 c 128,-1,2
 146 624 146 624 144 820 c 2,3,-1
 143 1016 l 1,4,-1
 307 1018 l 1,5,6
 305 960 305 960 305 817 c 1,7,8
 359 929 359 929 461.5 995 c 128,-1,9
 564 1061 564 1061 674 1061 c 0,10,11
 808 1061 808 1061 907 986 c 128,-1,12
 1006 911 1006 911 1055 788 c 128,-1,13
 1104 665 1104 665 1104 512 c 0,14,15
 1104 263 1104 263 986 111 c 128,-1,16
 868 -41 868 -41 664 -41 c 0,17,18
 565 -41 565 -41 470 9.5 c 128,-1,19
 375 60 375 60 317 152 c 1,20,21
 320 -21 320 -21 324.5 -168 c 128,-1,22
 329 -315 329 -315 332 -376 c 2,23,-1
 336 -436 l 1,24,-1
 143 -438 l 1,0,1
645 86 m 0,25,26
 770 86 770 86 845 199.5 c 128,-1,27
 920 313 920 313 920 510 c 0,28,29
 920 621 920 621 887 716 c 128,-1,30
 854 811 854 811 789 871.5 c 128,-1,31
 724 932 724 932 639 932 c 0,32,33
 544 932 544 932 470 866.5 c 128,-1,34
 396 801 396 801 360 704.5 c 128,-1,35
 324 608 324 608 324 504 c 0,36,37
 324 330 324 330 415.5 208 c 128,-1,38
 507 86 507 86 645 86 c 0,25,26
EndSplineSet
EndChar

StartChar: q
Encoding: 113 113 84
Width: 1214
GlyphClass: 1
Flags: W
LayerCount: 2
Fore
SplineSet
881 -436 m 1,0,1
 893 -118 893 -118 899 188 c 1,2,3
 847 76 847 76 757.5 17.5 c 128,-1,4
 668 -41 668 -41 551 -41 c 0,5,6
 414 -41 414 -41 313.5 30.5 c 128,-1,7
 213 102 213 102 163 225.5 c 128,-1,8
 113 349 113 349 113 510 c 0,9,10
 113 670 113 670 166.5 796 c 128,-1,11
 220 922 220 922 319 993.5 c 128,-1,12
 418 1065 418 1065 547 1065 c 0,13,14
 675 1065 675 1065 768.5 996.5 c 128,-1,15
 862 928 862 928 913 807 c 1,16,-1
 905 1051 l 1,17,-1
 1071 1051 l 1,18,19
 1068 646 1068 646 1068 275 c 128,-1,20
 1068 -96 1068 -96 1070 -265 c 2,21,-1
 1071 -434 l 1,22,-1
 881 -436 l 1,0,1
573 86 m 0,23,24
 708 86 708 86 801.5 205 c 128,-1,25
 895 324 895 324 895 504 c 0,26,27
 894 581 894 581 873 656 c 128,-1,28
 852 731 852 731 813.5 794 c 128,-1,29
 775 857 775 857 712.5 895.5 c 128,-1,30
 650 934 650 934 575 934 c 0,31,32
 455 934 455 934 376 812 c 128,-1,33
 297 690 297 690 297 514 c 0,34,35
 297 330 297 330 371.5 208 c 128,-1,36
 446 86 446 86 573 86 c 0,23,24
EndSplineSet
EndChar

StartChar: r
Encoding: 114 114 85
Width: 774
GlyphClass: 1
Flags: W
LayerCount: 2
Fore
SplineSet
145 2 m 1,0,1
 147 472 147 472 143 993 c 1,2,3
 211 991 211 991 299 995 c 1,4,5
 295 870 295 870 295 727 c 1,6,7
 345 873 345 873 457 953 c 128,-1,8
 569 1033 569 1033 713 1038 c 1,9,10
 713 974 713 974 711 870 c 1,11,12
 516 847 516 847 422.5 729 c 128,-1,13
 329 611 329 611 324 391 c 0,14,15
 322 288 322 288 323 202 c 128,-1,16
 324 116 324 116 326 60 c 2,17,-1
 328 4 l 1,18,19
 260 2 260 2 145 2 c 1,0,1
EndSplineSet
EndChar

StartChar: s
Encoding: 115 115 86
Width: 1054
GlyphClass: 1
Flags: W
LayerCount: 2
Fore
SplineSet
520 -47 m 0,0,1
 433 -47 433 -47 358 -24.5 c 128,-1,2
 283 -2 283 -2 222 43 c 128,-1,3
 161 88 161 88 122 163 c 128,-1,4
 83 238 83 238 72 336 c 1,5,6
 135 338 135 338 244 352 c 1,7,8
 268 216 268 216 337 156.5 c 128,-1,9
 406 97 406 97 528 94 c 0,10,11
 640 91 640 91 707 136.5 c 128,-1,12
 774 182 774 182 774 254 c 0,13,14
 774 294 774 294 755.5 321.5 c 128,-1,15
 737 349 737 349 670.5 380.5 c 128,-1,16
 604 412 604 412 479 444 c 0,17,18
 286 494 286 494 203.5 571 c 128,-1,19
 121 648 121 648 121 770 c 0,20,21
 121 902 121 902 231 983.5 c 128,-1,22
 341 1065 341 1065 520 1065 c 0,23,24
 685 1065 685 1065 794 974.5 c 128,-1,25
 903 884 903 884 940 719 c 1,26,27
 874 712 874 712 776 696 c 1,28,29
 749 806 749 806 678 869 c 128,-1,30
 607 932 607 932 504 932 c 0,31,32
 406 932 406 932 351.5 886 c 128,-1,33
 297 840 297 840 297 770 c 0,34,35
 297 699 297 699 360 655.5 c 128,-1,36
 423 612 423 612 571 578 c 0,37,38
 788 527 788 527 870 456 c 128,-1,39
 952 385 952 385 952 266 c 0,40,41
 952 115 952 115 833.5 34 c 128,-1,42
 715 -47 715 -47 520 -47 c 0,0,1
EndSplineSet
EndChar

StartChar: t
Encoding: 116 116 87
Width: 874
GlyphClass: 1
Flags: W
LayerCount: 2
Fore
SplineSet
803 53 m 1,0,1
 660 -8 660 -8 528 -8 c 0,2,3
 389 -8 389 -8 304.5 78 c 128,-1,4
 220 164 220 164 217 340 c 0,5,6
 213 518 213 518 213 887 c 1,7,-1
 53 887 l 1,8,-1
 51 1032 l 1,9,-1
 213 1028 l 1,10,-1
 217 1319 l 1,11,-1
 393 1317 l 1,12,13
 389 1198 389 1198 387 1026 c 1,14,-1
 774 1026 l 1,15,-1
 772 883 l 1,16,17
 472 887 472 887 387 887 c 1,18,19
 384 665 384 665 391 367 c 0,20,21
 394 258 394 258 432.5 204 c 128,-1,22
 471 150 471 150 555 150 c 0,23,24
 638 150 638 150 772 205 c 1,25,26
 780 158 780 158 788 120 c 128,-1,27
 796 82 796 82 800 68 c 2,28,-1
 803 53 l 1,0,1
EndSplineSet
EndChar

StartChar: u
Encoding: 117 117 88
Width: 1136
GlyphClass: 1
Flags: W
LayerCount: 2
Fore
SplineSet
492 -6 m 0,0,1
 326 -6 326 -6 231.5 104.5 c 128,-1,2
 137 215 137 215 137 420 c 2,3,-1
 133 999 l 1,4,5
 192 995 192 995 315 995 c 1,6,7
 311 775 311 775 311 442 c 0,8,9
 311 284 311 284 362.5 212.5 c 128,-1,10
 414 141 414 141 535 141 c 0,11,12
 648 141 648 141 729.5 260 c 128,-1,13
 811 379 811 379 815 578 c 0,14,15
 818 698 818 698 817.5 807.5 c 128,-1,16
 817 917 817 917 815 994 c 2,17,-1
 813 1071 l 1,18,19
 862 1069 862 1069 993 1069 c 1,20,21
 987 620 987 620 993 -20 c 1,22,23
 920 -20 920 -20 834 -18 c 1,24,25
 838 94 838 94 840 256 c 1,26,27
 791 130 791 130 700 62 c 128,-1,28
 609 -6 609 -6 492 -6 c 0,0,1
EndSplineSet
EndChar

StartChar: v
Encoding: 118 118 89
Width: 1011
GlyphClass: 1
Flags: W
LayerCount: 2
Fore
SplineSet
621 8 m 1,0,-1
 399 12 l 1,1,2
 287 320 287 320 195 567 c 128,-1,3
 103 814 103 814 67 906 c 2,4,-1
 31 999 l 1,5,6
 83 1001 83 1001 129.5 1004 c 128,-1,7
 176 1007 176 1007 196 1010 c 2,8,-1
 217 1012 l 1,9,10
 399 458 399 458 510 156 c 1,11,-1
 801 1061 l 1,12,-1
 981 1055 l 1,13,-1
 621 8 l 1,0,-1
EndSplineSet
EndChar

StartChar: w
Encoding: 119 119 90
Width: 1511
GlyphClass: 1
Flags: W
LayerCount: 2
Fore
SplineSet
514 12 m 1,0,-1
 285 16 l 1,1,2
 214 319 214 319 153 570 c 128,-1,3
 92 821 92 821 66 920 c 2,4,-1
 41 1020 l 1,5,-1
 209 1028 l 1,6,7
 318 539 318 539 408 172 c 1,8,-1
 639 1024 l 1,9,-1
 840 1026 l 1,10,11
 1001 427 1001 427 1087 156 c 1,12,-1
 1307 1073 l 1,13,-1
 1470 1067 l 1,14,15
 1388 751 1388 751 1321 482 c 128,-1,16
 1254 213 1254 213 1228 102 c 2,17,-1
 1202 -8 l 1,18,-1
 975 -14 l 1,19,20
 836 528 836 528 741 850 c 1,21,22
 665 588 665 588 608 378.5 c 128,-1,23
 551 169 551 169 532 90 c 2,24,-1
 514 12 l 1,0,-1
EndSplineSet
EndChar

StartChar: x
Encoding: 120 120 91
Width: 1097
GlyphClass: 1
Flags: W
LayerCount: 2
Fore
SplineSet
61 8 m 1,0,1
 157 135 157 135 237 243.5 c 128,-1,2
 317 352 317 352 375.5 432.5 c 128,-1,3
 434 513 434 513 438 518 c 1,4,5
 330 670 330 670 237 798 c 128,-1,6
 144 926 144 926 105 978 c 2,7,-1
 66 1030 l 1,8,-1
 274 1034 l 1,9,10
 353 917 353 917 543 645 c 1,11,12
 632 765 632 765 707.5 870 c 128,-1,13
 783 975 783 975 814 1020 c 2,14,-1
 844 1065 l 1,15,-1
 1036 1053 l 1,16,17
 818 778 818 778 637 532 c 1,18,19
 750 364 750 364 849 221 c 128,-1,20
 948 78 948 78 991 20 c 2,21,-1
 1034 -39 l 1,22,-1
 829 -47 l 1,23,24
 632 260 632 260 535 399 c 1,25,26
 451 279 451 279 385 181 c 128,-1,27
 319 83 319 83 294 46 c 2,28,-1
 270 8 l 1,29,30
 206 10 206 10 153.5 10 c 128,-1,31
 101 10 101 10 81 9 c 2,32,-1
 61 8 l 1,0,1
EndSplineSet
EndChar

StartChar: y
Encoding: 121 121 92
Width: 1009
GlyphClass: 1
Flags: W
LayerCount: 2
Fore
SplineSet
979 1059 m 1,0,-1
 467 -483 l 1,1,-1
 295 -446 l 1,2,3
 394 -166 394 -166 426 -55 c 1,4,5
 317 244 317 244 218 505.5 c 128,-1,6
 119 767 119 767 75 879 c 2,7,-1
 31 991 l 1,8,-1
 225 1001 l 1,9,10
 327 691 327 691 518 137 c 1,11,12
 602 404 602 404 672.5 637.5 c 128,-1,13
 743 871 743 871 772 971 c 2,14,-1
 801 1071 l 1,15,-1
 979 1059 l 1,0,-1
EndSplineSet
EndChar

StartChar: z
Encoding: 122 122 93
Width: 1028
GlyphClass: 1
Flags: W
LayerCount: 2
Fore
SplineSet
911 -6 m 1,0,1
 651 2 651 2 451.5 6 c 128,-1,2
 252 10 252 10 182 10 c 2,3,-1
 113 10 l 1,4,-1
 117 139 l 1,5,6
 325 403 325 403 469.5 589 c 128,-1,7
 614 775 614 775 655 829 c 2,8,-1
 696 883 l 1,9,10
 492 881 492 881 350 878 c 128,-1,11
 208 875 208 875 168 872 c 2,12,-1
 129 870 l 1,13,-1
 125 1020 l 1,14,-1
 903 1028 l 1,15,-1
 905 901 l 1,16,17
 731 679 731 679 587.5 491.5 c 128,-1,18
 444 304 444 304 387 228 c 2,19,-1
 330 152 l 1,20,21
 519 148 519 148 665.5 147 c 128,-1,22
 812 146 812 146 864 146 c 2,23,-1
 915 147 l 1,24,-1
 911 -6 l 1,0,1
EndSplineSet
EndChar

StartChar: braceleft
Encoding: 123 123 94
Width: 774
GlyphClass: 1
Flags: W
LayerCount: 2
Fore
SplineSet
692 -229 m 1,0,1
 608 -244 608 -244 559 -244 c 0,2,3
 407 -244 407 -244 340.5 -173 c 128,-1,4
 274 -102 274 -102 274 53 c 1,5,-1
 291 358 l 1,6,7
 291 475 291 475 242 528.5 c 128,-1,8
 193 582 193 582 63 578 c 1,9,-1
 68 743 l 1,10,11
 199 737 199 737 246 777 c 128,-1,12
 293 817 293 817 293 920 c 0,13,14
 293 967 293 967 282.5 1085.5 c 128,-1,15
 272 1204 272 1204 272 1257 c 0,16,17
 272 1391 272 1391 338 1453.5 c 128,-1,18
 404 1516 404 1516 537 1516 c 0,19,20
 592 1516 592 1516 678 1497 c 1,21,-1
 678 1360 l 1,22,23
 629 1366 629 1366 592 1366 c 0,24,25
 516 1366 516 1366 483.5 1328 c 128,-1,26
 451 1290 451 1290 451 1206 c 0,27,28
 451 1162 451 1162 460 1054 c 128,-1,29
 469 946 469 946 469 899 c 0,30,31
 469 790 469 790 433 735.5 c 128,-1,32
 397 681 397 681 295 657 c 1,33,34
 392 634 392 634 427.5 572.5 c 128,-1,35
 463 511 463 511 463 397 c 1,36,-1
 451 115 l 1,37,38
 451 -2 451 -2 487 -47 c 128,-1,39
 523 -92 523 -92 621 -92 c 0,40,41
 638 -92 638 -92 688 -88 c 1,42,-1
 692 -229 l 1,0,1
EndSplineSet
Substitution2: "<6,0> Monospaced Numbers in Latin lookup 6 subtable" braceleft.tab
Substitution2: "'rtla' Right to Left Alternates in Latin lookup 0 subtable" braceright
EndChar

StartChar: bar
Encoding: 124 124 95
Width: 620
GlyphClass: 1
Flags: W
LayerCount: 2
Fore
SplineSet
231 -238 m 1,0,1
 233 649 233 649 225 1511 c 1,2,3
 278 1507 278 1507 391 1507 c 1,4,5
 387 777 387 777 395 -233 c 1,6,7
 331 -234 331 -234 231 -238 c 1,0,1
EndSplineSet
EndChar

StartChar: braceright
Encoding: 125 125 96
Width: 774
GlyphClass: 1
Flags: W
LayerCount: 2
Fore
SplineSet
82 -242 m 1,0,1
 86 -194 86 -194 86 -102 c 1,2,3
 140 -109 140 -109 170 -109 c 0,4,5
 258 -109 258 -109 294 -67 c 128,-1,6
 330 -25 330 -25 330 76 c 0,7,8
 330 124 330 124 320.5 240 c 128,-1,9
 311 356 311 356 311 410 c 0,10,11
 311 516 311 516 348.5 575.5 c 128,-1,12
 386 635 386 635 481 657 c 1,13,14
 385 677 385 677 346 733 c 128,-1,15
 307 789 307 789 307 901 c 0,16,17
 307 955 307 955 317.5 1066 c 128,-1,18
 328 1177 328 1177 328 1219 c 0,19,20
 328 1300 328 1300 289.5 1335 c 128,-1,21
 251 1370 251 1370 172 1370 c 0,22,23
 136 1370 136 1370 96 1364 c 1,24,-1
 98 1503 l 1,25,26
 171 1520 171 1520 231 1520 c 0,27,28
 373 1520 373 1520 439.5 1458.5 c 128,-1,29
 506 1397 506 1397 506 1266 c 0,30,31
 506 1210 506 1210 493.5 1093.5 c 128,-1,32
 481 977 481 977 481 928 c 0,33,34
 481 820 481 820 530.5 778 c 128,-1,35
 580 736 580 736 707 743 c 1,36,37
 707 596 707 596 711 580 c 1,38,39
 585 586 585 586 534 536.5 c 128,-1,40
 483 487 483 487 483 373 c 0,41,42
 483 321 483 321 494.5 197 c 128,-1,43
 506 73 506 73 506 16 c 0,44,45
 506 -123 506 -123 437.5 -188.5 c 128,-1,46
 369 -254 369 -254 223 -256 c 0,47,48
 145 -256 145 -256 82 -242 c 1,0,1
EndSplineSet
Substitution2: "<6,0> Monospaced Numbers in Latin lookup 6 subtable" braceright.tab
Substitution2: "'rtla' Right to Left Alternates in Latin lookup 0 subtable" braceleft
EndChar

StartChar: asciitilde
Encoding: 126 126 97
Width: 1046
GlyphClass: 1
Flags: W
LayerCount: 2
Fore
SplineSet
229 1094 m 1,0,1
 166 1108 166 1108 92 1116 c 1,2,3
 98 1280 98 1280 166 1370 c 128,-1,4
 234 1460 234 1460 350 1460 c 0,5,6
 397 1460 397 1460 440 1437.5 c 128,-1,7
 483 1415 483 1415 514.5 1382.5 c 128,-1,8
 546 1350 546 1350 575 1318 c 128,-1,9
 604 1286 604 1286 635 1263.5 c 128,-1,10
 666 1241 666 1241 696 1241 c 0,11,12
 745 1241 745 1241 779 1291 c 128,-1,13
 813 1341 813 1341 817 1458 c 1,14,15
 882 1450 882 1450 954 1444 c 1,16,17
 953 1327 953 1327 916.5 1247 c 128,-1,18
 880 1167 880 1167 823.5 1132.5 c 128,-1,19
 767 1098 767 1098 694 1098 c 0,20,21
 647 1098 647 1098 603 1120.5 c 128,-1,22
 559 1143 559 1143 527 1175.5 c 128,-1,23
 495 1208 495 1208 466 1240 c 128,-1,24
 437 1272 437 1272 408 1294.5 c 128,-1,25
 379 1317 379 1317 354 1317 c 0,26,27
 303 1317 303 1317 271 1267 c 128,-1,28
 239 1217 239 1217 229 1094 c 1,0,1
EndSplineSet
EndChar

StartChar: exclamdown
Encoding: 161 161 98
Width: 645
GlyphClass: 1
Flags: W
LayerCount: 2
Fore
SplineSet
319 1165 m 0,0,1
 389 1165 389 1165 430 1122.5 c 128,-1,2
 471 1080 471 1080 471 1010 c 0,3,4
 471 946 471 946 432.5 903 c 128,-1,5
 394 860 394 860 322 860 c 0,6,7
 253 860 253 860 213.5 905 c 128,-1,8
 174 950 174 950 174 1016 c 128,-1,9
 174 1082 174 1082 216 1123.5 c 128,-1,10
 258 1165 258 1165 319 1165 c 0,0,1
406 745 m 1,11,12
 412 300 412 300 432 -313 c 1,13,14
 327 -309 327 -309 223 -313 c 1,15,16
 232 183 232 183 236 743 c 1,17,18
 312 741 312 741 406 745 c 1,11,12
EndSplineSet
EndChar

StartChar: cent
Encoding: 162 162 99
Width: 1202
GlyphClass: 1
Flags: W
LayerCount: 2
Fore
SplineSet
530 -135 m 1,0,1
 539 52 539 52 539 96 c 1,2,3
 334 127 334 127 223.5 292 c 128,-1,4
 113 457 113 457 113 702 c 0,5,6
 113 953 113 953 225 1121 c 128,-1,7
 337 1289 337 1289 537 1321 c 1,8,-1
 528 1554 l 1,9,-1
 709 1556 l 1,10,-1
 696 1325 l 1,11,12
 861 1305 861 1305 964 1196 c 128,-1,13
 1067 1087 1067 1087 1092 905 c 1,14,15
 1040 901 1040 901 994.5 895 c 128,-1,16
 949 889 949 889 929 885 c 2,17,-1
 909 881 l 1,18,19
 878 1032 878 1032 814 1106 c 128,-1,20
 750 1180 750 1180 627 1180 c 0,21,22
 520 1180 520 1180 444 1116.5 c 128,-1,23
 368 1053 368 1053 332.5 949.5 c 128,-1,24
 297 846 297 846 297 715 c 0,25,26
 297 490 297 490 386 369 c 128,-1,27
 475 248 475 248 629 248 c 0,28,29
 747 248 747 248 818 313 c 128,-1,30
 889 378 889 378 920 535 c 1,31,32
 981 518 981 518 1100 500 c 1,33,34
 1070 320 1070 320 965 216.5 c 128,-1,35
 860 113 860 113 698 94 c 1,36,37
 698 31 698 31 700 -26 c 128,-1,38
 702 -83 702 -83 704 -109 c 2,39,-1
 705 -135 l 1,40,-1
 530 -135 l 1,0,1
EndSplineSet
Substitution2: "<6,0> Monospaced Numbers in Latin lookup 6 subtable" cent.tab
EndChar

StartChar: sterling
Encoding: 163 163 100
Width: 1202
GlyphClass: 1
Flags: W
LayerCount: 2
Fore
SplineSet
297 530 m 1,0,-1
 115 530 l 1,1,-1
 113 682 l 1,2,3
 156 680 156 680 236 680 c 1,4,5
 207 740 207 740 191.5 774.5 c 128,-1,6
 176 809 176 809 160.5 868.5 c 128,-1,7
 145 928 145 928 145 981 c 0,8,9
 145 1165 145 1165 282.5 1274.5 c 128,-1,10
 420 1384 420 1384 627 1384 c 0,11,12
 848 1384 848 1384 972 1263.5 c 128,-1,13
 1096 1143 1096 1143 1120 924 c 1,14,15
 1059 916 1059 916 928 893 c 1,16,17
 922 1047 922 1047 846.5 1135 c 128,-1,18
 771 1223 771 1223 627 1223 c 0,19,20
 492 1223 492 1223 415 1150.5 c 128,-1,21
 338 1078 338 1078 338 979 c 0,22,23
 338 945 338 945 350 902.5 c 128,-1,24
 362 860 362 860 371.5 835.5 c 128,-1,25
 381 811 381 811 409 752 c 128,-1,26
 437 693 437 693 444 678 c 1,27,-1
 868 680 l 1,28,-1
 870 524 l 1,29,30
 588 528 588 528 494 528 c 1,31,32
 498 496 498 496 498 479 c 0,33,34
 498 387 498 387 457.5 302.5 c 128,-1,35
 417 218 417 218 348 162 c 1,36,37
 552 155 552 155 1104 162 c 1,38,39
 1103 155 1103 155 1102 141 c 128,-1,40
 1101 127 1101 127 1100 81.5 c 128,-1,41
 1099 36 1099 36 1100 -12 c 1,42,43
 868 -4 868 -4 121 0 c 1,44,45
 123 86 123 86 123 158 c 1,46,47
 305 271 305 271 305 471 c 0,48,49
 305 503 305 503 297 530 c 1,0,-1
EndSplineSet
Substitution2: "<6,0> Monospaced Numbers in Latin lookup 6 subtable" sterling.tab
EndChar

StartChar: yen
Encoding: 165 165 101
Width: 1249
GlyphClass: 1
Flags: W
LayerCount: 2
Fore
SplineSet
186 393 m 1,0,1
 186 450 186 450 182 530 c 1,2,3
 268 530 268 530 444 532 c 1,4,5
 358 729 358 729 72 1325 c 1,6,7
 137 1325 137 1325 270 1333 c 1,8,9
 446 921 446 921 618 549 c 1,10,11
 751 798 751 798 1022 1395 c 1,12,13
 1096 1388 1096 1388 1219 1386 c 1,14,15
 1016 1005 1016 1005 793 541 c 1,16,17
 801 541 801 541 899.5 543 c 128,-1,18
 998 545 998 545 1061 547 c 1,19,-1
 1059 410 l 1,20,21
 946 410 946 410 713 406 c 1,22,23
 711 354 711 354 711 274 c 1,24,-1
 1065 283 l 1,25,26
 1065 222 1065 222 1067 150 c 1,27,-1
 713 147 l 1,28,-1
 719 -25 l 1,29,30
 645 -25 645 -25 528 -27 c 1,31,32
 530 41 530 41 530 143 c 1,33,-1
 178 135 l 1,34,35
 180 194 180 194 180 272 c 1,36,37
 299 270 299 270 528 272 c 1,38,-1
 524 401 l 1,39,-1
 186 393 l 1,0,1
EndSplineSet
Substitution2: "<6,0> Monospaced Numbers in Latin lookup 6 subtable" yen.tab
EndChar

StartChar: section
Encoding: 167 167 102
Width: 1271
GlyphClass: 1
Flags: W
LayerCount: 2
Fore
SplineSet
653 -410 m 0,0,1
 145 -410 145 -410 102 18 c 1,2,3
 154 26 154 26 200 35 c 128,-1,4
 246 44 246 44 266 48 c 2,5,-1
 285 53 l 1,6,7
 311 -116 311 -116 398 -185 c 128,-1,8
 485 -254 485 -254 653 -254 c 0,9,10
 774 -254 774 -254 863 -193.5 c 128,-1,11
 952 -133 952 -133 952 -33 c 0,12,13
 952 7 952 7 938 35.5 c 128,-1,14
 924 64 924 64 885 92.5 c 128,-1,15
 846 121 846 121 768.5 143.5 c 128,-1,16
 691 166 691 166 571 184 c 0,17,18
 345 217 345 217 239 292 c 128,-1,19
 133 367 133 367 133 510 c 0,20,21
 133 604 133 604 207 675 c 128,-1,22
 281 746 281 746 379 776 c 1,23,24
 276 811 276 811 211.5 899 c 128,-1,25
 147 987 147 987 147 1090 c 0,26,27
 147 1254 147 1254 276.5 1360 c 128,-1,28
 406 1466 406 1466 635 1466 c 0,29,30
 850 1466 850 1466 974.5 1357 c 128,-1,31
 1099 1248 1099 1248 1124 1044 c 1,32,33
 1068 1038 1068 1038 1023.5 1031.5 c 128,-1,34
 979 1025 979 1025 962 1022 c 2,35,-1
 946 1018 l 1,36,37
 933 1163 933 1163 852 1241 c 128,-1,38
 771 1319 771 1319 637 1319 c 0,39,40
 496 1319 496 1319 416 1260 c 128,-1,41
 336 1201 336 1201 336 1102 c 0,42,43
 336 1004 336 1004 422 950.5 c 128,-1,44
 508 897 508 897 725 864 c 0,45,46
 893 838 893 838 989 795.5 c 128,-1,47
 1085 753 1085 753 1122 696 c 128,-1,48
 1159 639 1159 639 1159 553 c 0,49,50
 1159 461 1159 461 1100 380.5 c 128,-1,51
 1041 300 1041 300 948 254 c 1,52,53
 1038 224 1038 224 1093 154.5 c 128,-1,54
 1148 85 1148 85 1151 -14 c 0,55,56
 1151 -90 1151 -90 1123.5 -155.5 c 128,-1,57
 1096 -221 1096 -221 1048.5 -267 c 128,-1,58
 1001 -313 1001 -313 937.5 -346 c 128,-1,59
 874 -379 874 -379 801.5 -394.5 c 128,-1,60
 729 -410 729 -410 653 -410 c 0,0,1
324 537 m 0,61,62
 324 477 324 477 358 438.5 c 128,-1,63
 392 400 392 400 502.5 365 c 128,-1,64
 613 330 613 330 821 301 c 1,65,66
 890 340 890 340 930.5 395 c 128,-1,67
 971 450 971 450 971 508 c 0,68,69
 971 553 971 553 958 582.5 c 128,-1,70
 945 612 945 612 916 635.5 c 128,-1,71
 887 659 887 659 828.5 676 c 128,-1,72
 770 693 770 693 693 706.5 c 128,-1,73
 616 720 616 720 492 735 c 1,74,75
 324 654 324 654 324 537 c 0,61,62
EndSplineSet
EndChar

StartChar: dieresis
Encoding: 168 168 103
Width: 1187
GlyphClass: 1
Flags: W
LayerCount: 2
Fore
SplineSet
403 1192 m 0,0,1
 353 1192 353 1192 321 1225 c 128,-1,2
 289 1258 289 1258 289 1311 c 0,3,4
 289 1362 289 1362 323 1391.5 c 128,-1,5
 357 1421 357 1421 406 1421 c 0,6,7
 461 1421 461 1421 491.5 1387 c 128,-1,8
 522 1353 522 1353 522 1307 c 0,9,10
 522 1253 522 1253 489.5 1222.5 c 128,-1,11
 457 1192 457 1192 403 1192 c 0,0,1
774 1194 m 0,12,13
 726 1194 726 1194 694 1226.5 c 128,-1,14
 662 1259 662 1259 662 1313 c 0,15,16
 662 1359 662 1359 694 1390 c 128,-1,17
 726 1421 726 1421 776 1421 c 0,18,19
 822 1421 822 1421 853.5 1391 c 128,-1,20
 885 1361 885 1361 885 1309 c 0,21,22
 885 1258 885 1258 855 1226 c 128,-1,23
 825 1194 825 1194 774 1194 c 0,12,13
EndSplineSet
EndChar

StartChar: copyright
Encoding: 169 169 104
Width: 1505
GlyphClass: 1
Flags: W
LayerCount: 2
Fore
SplineSet
758 250 m 0,0,1
 592 250 592 250 485.5 366.5 c 128,-1,2
 379 483 379 483 379 649 c 0,3,4
 379 830 379 830 486 951.5 c 128,-1,5
 593 1073 593 1073 758 1073 c 0,6,7
 897 1073 897 1073 988.5 1001 c 128,-1,8
 1080 929 1080 929 1106 795 c 1,9,10
 1065 792 1065 792 1025.5 787 c 128,-1,11
 986 782 986 782 967 778 c 2,12,-1
 948 774 l 1,13,14
 924 866 924 866 882.5 907 c 128,-1,15
 841 948 841 948 758 948 c 0,16,17
 654 948 654 948 591 864 c 128,-1,18
 528 780 528 780 528 651 c 0,19,20
 528 531 528 531 595 458 c 128,-1,21
 662 385 662 385 766 385 c 0,22,23
 901 385 901 385 956 541 c 1,24,-1
 1104 512 l 1,25,26
 1021 250 1021 250 758 250 c 0,0,1
741 -49 m 0,27,28
 601 -49 601 -49 484 -0.5 c 128,-1,29
 367 48 367 48 282 138.5 c 128,-1,30
 197 229 197 229 149.5 366.5 c 128,-1,31
 102 504 102 504 102 674 c 0,32,33
 102 811 102 811 145.5 936 c 128,-1,34
 189 1061 189 1061 270 1159.5 c 128,-1,35
 351 1258 351 1258 478.5 1317 c 128,-1,36
 606 1376 606 1376 762 1376 c 0,37,38
 951 1376 951 1376 1097 1284 c 128,-1,39
 1243 1192 1243 1192 1323 1029 c 128,-1,40
 1403 866 1403 866 1403 659 c 0,41,42
 1403 323 1403 323 1225 137 c 128,-1,43
 1047 -49 1047 -49 741 -49 c 0,27,28
752 37 m 0,44,45
 871 37 871 37 970.5 74.5 c 128,-1,46
 1070 112 1070 112 1146 185.5 c 128,-1,47
 1222 259 1222 259 1264.5 379 c 128,-1,48
 1307 499 1307 499 1307 655 c 0,49,50
 1307 938 1307 938 1156.5 1113 c 128,-1,51
 1006 1288 1006 1288 756 1288 c 0,52,53
 582 1288 582 1288 453.5 1203 c 128,-1,54
 325 1118 325 1118 261 975.5 c 128,-1,55
 197 833 197 833 197 653 c 0,56,57
 197 358 197 358 349 197.5 c 128,-1,58
 501 37 501 37 752 37 c 0,44,45
EndSplineSet
EndChar

StartChar: ordfeminine
Encoding: 170 170 105
Width: 899
GlyphClass: 1
Flags: W
LayerCount: 2
Fore
SplineSet
365 588 m 0,0,1
 242 588 242 588 167 655 c 128,-1,2
 92 722 92 722 92 831 c 0,3,4
 92 886 92 886 122 935.5 c 128,-1,5
 152 985 152 985 213 1027 c 128,-1,6
 274 1069 274 1069 381 1095 c 128,-1,7
 488 1121 488 1121 629 1124 c 1,8,-1
 629 1141 l 2,9,10
 629 1333 629 1333 453 1333 c 0,11,12
 384 1333 384 1333 332 1293.5 c 128,-1,13
 280 1254 280 1254 258 1188 c 1,14,15
 211 1204 211 1204 117 1227 c 1,16,17
 151 1329 151 1329 242 1387.5 c 128,-1,18
 333 1446 333 1446 459 1446 c 0,19,20
 625 1446 625 1446 705.5 1349.5 c 128,-1,21
 786 1253 786 1253 786 1075 c 2,22,-1
 780 606 l 1,23,24
 735 608 735 608 649 610 c 1,25,-1
 657 813 l 1,26,27
 618 704 618 704 544.5 646 c 128,-1,28
 471 588 471 588 365 588 c 0,0,1
635 993 m 2,29,-1
 635 1032 l 1,30,31
 431 1025 431 1025 338.5 967.5 c 128,-1,32
 246 910 246 910 246 827 c 0,33,34
 246 765 246 765 289 731.5 c 128,-1,35
 332 698 332 698 401 698 c 0,36,37
 494 698 494 698 564.5 784 c 128,-1,38
 635 870 635 870 635 993 c 2,29,-1
EndSplineSet
EndChar

StartChar: guillemotleft
Encoding: 171 171 106
Width: 913
GlyphClass: 1
Flags: W
LayerCount: 2
Fore
SplineSet
330 205 m 1,0,1
 241 377 241 377 61 700 c 1,2,3
 192 900 192 900 352 1169 c 1,4,5
 406 1163 406 1163 506 1161 c 1,6,7
 369 950 369 950 217 696 c 1,8,9
 313 509 313 509 479 221 c 1,10,11
 420 219 420 219 330 205 c 1,0,1
688 207 m 1,12,13
 596 384 596 384 418 688 c 1,14,15
 530 863 530 863 684 1124 c 1,16,17
 748 1118 748 1118 836 1114 c 1,18,19
 710 924 710 924 571 682 c 1,20,21
 664 511 664 511 842 211 c 1,22,23
 782 213 782 213 688 207 c 1,12,13
EndSplineSet
EndChar

StartChar: registered
Encoding: 174 174 107
Width: 1011
GlyphClass: 1
Flags: W
LayerCount: 2
Fore
SplineSet
514 516 m 0,0,1
 302 516 302 516 181.5 650 c 128,-1,2
 61 784 61 784 61 987 c 0,3,4
 61 1112 61 1112 111.5 1217.5 c 128,-1,5
 162 1323 162 1323 263.5 1389.5 c 128,-1,6
 365 1456 365 1456 500 1456 c 0,7,8
 638 1456 638 1456 741.5 1392 c 128,-1,9
 845 1328 845 1328 897.5 1220.5 c 128,-1,10
 950 1113 950 1113 950 979 c 0,11,12
 950 872 950 872 916 783.5 c 128,-1,13
 882 695 882 695 823 637 c 128,-1,14
 764 579 764 579 684.5 547.5 c 128,-1,15
 605 516 605 516 514 516 c 0,0,1
516 586 m 0,16,17
 664 586 664 586 768 688.5 c 128,-1,18
 872 791 872 791 872 967 c 0,19,20
 872 1162 872 1162 768 1274 c 128,-1,21
 664 1386 664 1386 494 1386 c 0,22,23
 338 1386 338 1386 237.5 1274.5 c 128,-1,24
 137 1163 137 1163 137 981 c 0,25,26
 137 803 137 803 239.5 694.5 c 128,-1,27
 342 586 342 586 516 586 c 0,16,17
596 731 m 1,28,29
 565 817 565 817 516 932 c 1,30,31
 468 925 468 925 426 928 c 1,32,33
 426 829 426 829 430 737 c 1,34,35
 387 739 387 739 324 737 c 1,36,37
 328 910 328 910 328 1251 c 1,38,39
 408 1264 408 1264 461 1264 c 0,40,41
 587 1264 587 1264 650 1218.5 c 128,-1,42
 713 1173 713 1173 713 1102 c 0,43,44
 713 1004 713 1004 608 956 c 1,45,46
 632 887 632 887 702 748 c 1,47,48
 657 743 657 743 596 731 c 1,28,29
428 1006 m 1,49,50
 442 1004 442 1004 471 1004 c 0,51,52
 610 1004 610 1004 610 1094 c 0,53,54
 610 1133 610 1133 578.5 1158.5 c 128,-1,55
 547 1184 547 1184 477 1184 c 0,56,57
 462 1184 462 1184 426 1180 c 1,58,-1
 428 1006 l 1,49,50
EndSplineSet
EndChar

StartChar: macron
Encoding: 175 175 108
Width: 1187
GlyphClass: 1
Flags: W
LayerCount: 2
Fore
SplineSet
301 1249 m 1,0,1
 303 1294 303 1294 299 1376 c 1,2,3
 461 1374 461 1374 866 1380 c 1,4,-1
 864 1251 l 1,5,6
 658 1255 658 1255 301 1249 c 1,0,1
EndSplineSet
EndChar

StartChar: degree
Encoding: 176 176 109
Width: 712
GlyphClass: 1
Flags: W
LayerCount: 2
Fore
SplineSet
358 874 m 0,0,1
 238 874 238 874 155 955 c 128,-1,2
 72 1036 72 1036 72 1176 c 0,3,4
 72 1294 72 1294 148 1376 c 128,-1,5
 224 1458 224 1458 354 1458 c 0,6,7
 489 1458 489 1458 565 1379 c 128,-1,8
 641 1300 641 1300 641 1176 c 0,9,10
 641 1043 641 1043 565 958.5 c 128,-1,11
 489 874 489 874 358 874 c 0,0,1
358 983 m 0,12,13
 429 983 429 983 472.5 1032.5 c 128,-1,14
 516 1082 516 1082 516 1171 c 0,15,16
 516 1243 516 1243 472.5 1299.5 c 128,-1,17
 429 1356 429 1356 358 1356 c 0,18,19
 284 1356 284 1356 241.5 1302 c 128,-1,20
 199 1248 199 1248 199 1176 c 0,21,22
 199 1095 199 1095 242 1039 c 128,-1,23
 285 983 285 983 358 983 c 0,12,13
EndSplineSet
EndChar

StartChar: twosuperior
Encoding: 178 178 110
Width: 778
GlyphClass: 1
Flags: W
LayerCount: 2
Fore
SplineSet
686 733 m 1,0,-1
 686 614 l 1,1,-1
 86 623 l 1,2,-1
 82 750 l 1,3,4
 303 853 303 853 428 971 c 128,-1,5
 553 1089 553 1089 553 1210 c 0,6,7
 553 1284 553 1284 513 1325 c 128,-1,8
 473 1366 473 1366 399 1366 c 0,9,10
 312 1366 312 1366 272.5 1313 c 128,-1,11
 233 1260 233 1260 227 1157 c 1,12,13
 166 1167 166 1167 92 1171 c 1,14,15
 93 1313 93 1313 178 1393 c 128,-1,16
 263 1473 263 1473 399 1473 c 0,17,18
 543 1473 543 1473 619.5 1403 c 128,-1,19
 696 1333 696 1333 696 1214 c 0,20,21
 696 1079 696 1079 573.5 949.5 c 128,-1,22
 451 820 451 820 260 729 c 1,23,24
 398 727 398 727 493 728 c 128,-1,25
 588 729 588 729 637 731 c 2,26,-1
 686 733 l 1,0,-1
EndSplineSet
EndChar

StartChar: threesuperior
Encoding: 179 179 111
Width: 827
GlyphClass: 1
Flags: W
LayerCount: 2
Fore
SplineSet
410 588 m 128,-1,1
 258 588 258 588 166.5 661 c 128,-1,2
 75 734 75 734 61 864 c 1,3,4
 127 873 127 873 209 889 c 1,5,6
 219 789 219 789 269.5 742.5 c 128,-1,7
 320 696 320 696 412 696 c 128,-1,8
 504 696 504 696 553 733.5 c 128,-1,9
 602 771 602 771 602 836 c 0,10,11
 602 884 602 884 576.5 917.5 c 128,-1,12
 551 951 551 951 510 965 c 0,13,14
 435 991 435 991 299 983 c 1,15,-1
 299 1085 l 1,16,17
 459 1075 459 1075 524 1110 c 0,18,19
 556 1124 556 1124 575 1154.5 c 128,-1,20
 594 1185 594 1185 594 1225 c 0,21,22
 594 1292 594 1292 547.5 1333 c 128,-1,23
 501 1374 501 1374 416 1374 c 0,24,25
 269 1374 269 1374 244 1202 c 1,26,-1
 98 1221 l 1,27,28
 113 1343 113 1343 198 1410 c 128,-1,29
 283 1477 283 1477 418 1477 c 0,30,31
 561 1477 561 1477 648 1411.5 c 128,-1,32
 735 1346 735 1346 735 1239 c 0,33,34
 735 1159 735 1159 680 1102.5 c 128,-1,35
 625 1046 625 1046 535 1036 c 1,36,37
 636 1024 636 1024 690.5 967 c 128,-1,38
 745 910 745 910 745 829 c 0,39,40
 745 722 745 722 653.5 655 c 128,-1,0
 562 588 562 588 410 588 c 128,-1,1
EndSplineSet
EndChar

StartChar: acute
Encoding: 180 180 112
Width: 1187
GlyphClass: 1
Flags: W
LayerCount: 2
Fore
SplineSet
598 1145 m 1,0,-1
 502 1217 l 1,1,2
 579 1313 579 1313 645.5 1399.5 c 128,-1,3
 712 1486 712 1486 740 1524 c 2,4,-1
 768 1563 l 1,5,-1
 895 1473 l 1,6,7
 807 1380 807 1380 732.5 1298 c 128,-1,8
 658 1216 658 1216 628 1180 c 2,9,-1
 598 1145 l 1,0,-1
EndSplineSet
EndChar

StartChar: paragraph
Encoding: 182 182 113
Width: 1347
GlyphClass: 1
Flags: W
LayerCount: 2
Fore
SplineSet
102 809 m 0,0,1
 102 1111 102 1111 318.5 1279 c 128,-1,2
 535 1447 535 1447 915 1442 c 0,3,4
 1046 1439 1046 1439 1190 1417 c 1,5,6
 1181 697 1181 697 1204 -391 c 1,7,8
 1145 -385 1145 -385 1010 -385 c 1,9,-1
 1018 1272 l 1,10,11
 925 1278 925 1278 813 1268 c 1,12,13
 813 420 813 420 819 -371 c 1,14,15
 729 -369 729 -369 637 -371 c 1,16,17
 639 -71 639 -71 633 211 c 1,18,19
 385 256 385 256 243.5 409.5 c 128,-1,20
 102 563 102 563 102 809 c 0,0,1
EndSplineSet
EndChar

StartChar: periodcentered
Encoding: 183 183 114
Width: 585
GlyphClass: 1
Flags: W
LayerCount: 2
Fore
SplineSet
293 549 m 0,0,1
 227 549 227 549 186 592 c 128,-1,2
 145 635 145 635 145 709 c 0,3,4
 145 778 145 778 186.5 822 c 128,-1,5
 228 866 228 866 295 866 c 0,6,7
 372 866 372 866 407 820.5 c 128,-1,8
 442 775 442 775 442 709 c 0,9,10
 442 633 442 633 401.5 591 c 128,-1,11
 361 549 361 549 293 549 c 0,0,1
EndSplineSet
EndChar

StartChar: cedilla
Encoding: 184 184 115
Width: 1187
GlyphClass: 1
Flags: W
LayerCount: 2
Fore
SplineSet
557 -16 m 1,0,-1
 659 -14 l 1,1,2
 653 -65 653 -65 649 -133 c 1,3,4
 755 -133 755 -133 809.5 -177 c 128,-1,5
 864 -221 864 -221 864 -281 c 0,6,7
 864 -362 864 -362 790 -409.5 c 128,-1,8
 716 -457 716 -457 594 -457 c 0,9,10
 544 -457 544 -457 485.5 -441 c 128,-1,11
 427 -425 427 -425 383 -399 c 1,12,13
 402 -360 402 -360 422 -303 c 1,14,15
 508 -354 508 -354 594 -354 c 0,16,17
 647 -354 647 -354 682 -335 c 128,-1,18
 717 -316 717 -316 717 -283 c 0,19,20
 717 -200 717 -200 520 -223 c 1,21,22
 537 -147 537 -147 557 -16 c 1,0,-1
EndSplineSet
EndChar

StartChar: onesuperior
Encoding: 185 185 116
Width: 573
GlyphClass: 1
Flags: W
LayerCount: 2
Fore
SplineSet
260 614 m 1,0,1
 262 1000 262 1000 256 1294 c 1,2,-1
 88 1200 l 1,3,-1
 41 1311 l 1,4,5
 109 1348 109 1348 172 1384 c 128,-1,6
 235 1420 235 1420 264 1437 c 2,7,-1
 293 1454 l 1,8,-1
 391 1446 l 1,9,10
 391 1258 391 1258 393 1050.5 c 128,-1,11
 395 843 395 843 397 730 c 2,12,-1
 399 616 l 1,13,-1
 260 614 l 1,0,1
EndSplineSet
EndChar

StartChar: ordmasculine
Encoding: 186 186 117
Width: 925
GlyphClass: 1
Flags: W
LayerCount: 2
Fore
SplineSet
463 582 m 0,0,1
 283 582 283 582 182.5 699 c 128,-1,2
 82 816 82 816 82 1028 c 0,3,4
 82 1210 82 1210 186.5 1332 c 128,-1,5
 291 1454 291 1454 465 1454 c 0,6,7
 647 1454 647 1454 745.5 1332 c 128,-1,8
 844 1210 844 1210 844 1016 c 0,9,10
 844 912 844 912 813 828.5 c 128,-1,11
 782 745 782 745 729.5 692 c 128,-1,12
 677 639 677 639 608.5 610.5 c 128,-1,13
 540 582 540 582 463 582 c 0,0,1
463 702 m 0,14,15
 575 702 575 702 629.5 785.5 c 128,-1,16
 684 869 684 869 684 1016 c 0,17,18
 684 1106 684 1106 661 1177 c 128,-1,19
 638 1248 638 1248 588 1291.5 c 128,-1,20
 538 1335 538 1335 467 1335 c 0,21,22
 363 1335 363 1335 302.5 1249 c 128,-1,23
 242 1163 242 1163 242 1030 c 0,24,25
 242 869 242 869 299 785.5 c 128,-1,26
 356 702 356 702 463 702 c 0,14,15
EndSplineSet
EndChar

StartChar: guillemotright
Encoding: 187 187 118
Width: 919
GlyphClass: 1
Flags: W
LayerCount: 2
Fore
SplineSet
219 205 m 1,0,1
 158 211 158 211 72 215 c 1,2,3
 205 414 205 414 350 664 c 1,4,5
 252 859 252 859 94 1141 c 1,6,7
 156 1143 156 1143 246 1153 c 1,8,9
 334 975 334 975 504 657 c 1,10,11
 375 464 375 464 219 205 c 1,0,1
582 211 m 1,12,13
 528 219 528 219 428 223 c 1,14,15
 559 422 559 422 700 666 c 1,16,17
 600 865 600 865 442 1143 c 1,18,19
 502 1143 502 1143 598 1151 c 1,20,21
 694 958 694 958 858 662 c 1,22,23
 721 455 721 455 582 211 c 1,12,13
EndSplineSet
EndChar

StartChar: onequarter
Encoding: 188 188 119
Width: 1601
GlyphClass: 1
Flags: W
LayerCount: 2
Fore
SplineSet
260 614 m 1,0,1
 262 1000 262 1000 256 1294 c 1,2,-1
 88 1200 l 1,3,-1
 41 1311 l 1,4,5
 109 1348 109 1348 172 1384 c 128,-1,6
 235 1420 235 1420 264 1437 c 2,7,-1
 293 1454 l 1,8,-1
 391 1446 l 1,9,10
 391 1258 391 1258 393 1050.5 c 128,-1,11
 395 843 395 843 397 730 c 2,12,-1
 399 616 l 1,13,-1
 260 614 l 1,0,1
356 -41 m 1,14,-1
 246 -25 l 1,15,16
 495 376 495 376 718.5 742.5 c 128,-1,17
 942 1109 942 1109 1040 1274 c 2,18,-1
 1139 1440 l 1,19,-1
 1257 1425 l 1,20,-1
 356 -41 l 1,14,-1
1311 -20 m 1,21,22
 1311 105 1311 105 1313 166 c 1,23,-1
 840 160 l 1,24,25
 840 193 840 193 838 256 c 1,26,27
 952 408 952 408 1058 551.5 c 128,-1,28
 1164 695 1164 695 1213 763 c 2,29,-1
 1262 831 l 1,30,-1
 1444 827 l 1,31,32
 1442 499 1442 499 1442 268 c 1,33,-1
 1530 270 l 1,34,-1
 1530 166 l 1,35,-1
 1442 166 l 1,36,-1
 1442 -18 l 1,37,-1
 1311 -20 l 1,21,22
1315 715 m 1,38,39
 1181 537 1181 537 981 266 c 1,40,-1
 1313 266 l 1,41,42
 1315 524 1315 524 1315 715 c 1,38,39
EndSplineSet
EndChar

StartChar: onehalf
Encoding: 189 189 120
Width: 1646
GlyphClass: 1
Flags: W
LayerCount: 2
Fore
SplineSet
260 614 m 1,0,1
 262 1000 262 1000 256 1294 c 1,2,-1
 88 1200 l 1,3,-1
 41 1311 l 1,4,5
 109 1348 109 1348 172 1384 c 128,-1,6
 235 1420 235 1420 264 1437 c 2,7,-1
 293 1454 l 1,8,-1
 391 1446 l 1,9,10
 391 1258 391 1258 393 1050.5 c 128,-1,11
 395 843 395 843 397 730 c 2,12,-1
 399 616 l 1,13,-1
 260 614 l 1,0,1
356 -41 m 1,14,-1
 246 -25 l 1,15,16
 495 376 495 376 718.5 742.5 c 128,-1,17
 942 1109 942 1109 1040 1274 c 2,18,-1
 1139 1440 l 1,19,-1
 1257 1425 l 1,20,-1
 356 -41 l 1,14,-1
1554 96 m 1,21,-1
 1554 -23 l 1,22,-1
 954 -14 l 1,23,-1
 950 113 l 1,24,25
 1171 216 1171 216 1296 334 c 128,-1,26
 1421 452 1421 452 1421 573 c 0,27,28
 1421 647 1421 647 1381.5 688 c 128,-1,29
 1342 729 1342 729 1268 729 c 0,30,31
 1181 729 1181 729 1141.5 676 c 128,-1,32
 1102 623 1102 623 1096 520 c 1,33,34
 1035 531 1035 531 961 535 c 1,35,36
 962 677 962 677 1046.5 756.5 c 128,-1,37
 1131 836 1131 836 1268 836 c 0,38,39
 1412 836 1412 836 1488.5 766.5 c 128,-1,40
 1565 697 1565 697 1565 578 c 0,41,42
 1565 443 1565 443 1442 313 c 128,-1,43
 1319 183 1319 183 1128 92 c 1,44,45
 1266 90 1266 90 1361 91 c 128,-1,46
 1456 92 1456 92 1505 94 c 2,47,-1
 1554 96 l 1,21,-1
EndSplineSet
EndChar

StartChar: threequarters
Encoding: 190 190 121
Width: 1804
GlyphClass: 1
Flags: W
LayerCount: 2
Fore
SplineSet
410 588 m 128,-1,1
 258 588 258 588 166.5 661 c 128,-1,2
 75 734 75 734 61 864 c 1,3,4
 127 873 127 873 209 889 c 1,5,6
 219 789 219 789 269.5 742.5 c 128,-1,7
 320 696 320 696 412 696 c 128,-1,8
 504 696 504 696 553 733.5 c 128,-1,9
 602 771 602 771 602 836 c 0,10,11
 602 884 602 884 576.5 917.5 c 128,-1,12
 551 951 551 951 510 965 c 0,13,14
 435 991 435 991 299 983 c 1,15,-1
 299 1085 l 1,16,17
 459 1075 459 1075 524 1110 c 0,18,19
 556 1124 556 1124 575 1154.5 c 128,-1,20
 594 1185 594 1185 594 1225 c 0,21,22
 594 1292 594 1292 547.5 1333 c 128,-1,23
 501 1374 501 1374 416 1374 c 0,24,25
 269 1374 269 1374 244 1202 c 1,26,-1
 98 1221 l 1,27,28
 113 1343 113 1343 198 1410 c 128,-1,29
 283 1477 283 1477 418 1477 c 0,30,31
 561 1477 561 1477 648 1411.5 c 128,-1,32
 735 1346 735 1346 735 1239 c 0,33,34
 735 1159 735 1159 680 1102.5 c 128,-1,35
 625 1046 625 1046 535 1036 c 1,36,37
 636 1024 636 1024 690.5 967 c 128,-1,38
 745 910 745 910 745 829 c 0,39,40
 745 722 745 722 653.5 655 c 128,-1,0
 562 588 562 588 410 588 c 128,-1,1
559 -41 m 1,41,-1
 449 -25 l 1,42,43
 698 376 698 376 921 742.5 c 128,-1,44
 1144 1109 1144 1109 1242 1274 c 2,45,-1
 1341 1440 l 1,46,-1
 1460 1425 l 1,47,-1
 559 -41 l 1,41,-1
1513 -20 m 1,48,49
 1513 74 1513 74 1516 166 c 1,50,-1
 1042 160 l 1,51,52
 1042 193 1042 193 1040 256 c 1,53,54
 1154 408 1154 408 1260 551.5 c 128,-1,55
 1366 695 1366 695 1415 763 c 2,56,-1
 1464 831 l 1,57,-1
 1647 827 l 1,58,59
 1645 499 1645 499 1645 268 c 1,60,-1
 1733 270 l 1,61,-1
 1733 166 l 1,62,-1
 1645 166 l 1,63,-1
 1645 -18 l 1,64,-1
 1513 -20 l 1,48,49
1518 715 m 1,65,66
 1384 537 1384 537 1184 266 c 1,67,-1
 1516 266 l 1,68,69
 1518 524 1518 524 1518 715 c 1,65,66
EndSplineSet
EndChar

StartChar: questiondown
Encoding: 191 191 122
Width: 1212
GlyphClass: 1
Flags: W
LayerCount: 2
Fore
SplineSet
739 752 m 1,0,-1
 745 375 l 1,1,2
 507 387 507 387 403 316.5 c 128,-1,3
 299 246 299 246 299 92 c 0,4,5
 299 -27 299 -27 378.5 -107.5 c 128,-1,6
 458 -188 458 -188 602 -188 c 0,7,8
 747 -188 747 -188 828 -101 c 128,-1,9
 909 -14 909 -14 942 158 c 1,10,11
 1013 135 1013 135 1130 117 c 1,12,13
 1097 -90 1097 -90 961 -217 c 128,-1,14
 825 -344 825 -344 614 -344 c 0,15,16
 490 -344 490 -344 390.5 -308.5 c 128,-1,17
 291 -273 291 -273 229 -212.5 c 128,-1,18
 167 -152 167 -152 134.5 -77 c 128,-1,19
 102 -2 102 -2 102 80 c 0,20,21
 102 281 102 281 221.5 390 c 128,-1,22
 341 499 341 499 553 508 c 1,23,24
 556 561 556 561 556.5 621 c 128,-1,25
 557 681 557 681 556 714 c 2,26,-1
 555 748 l 1,27,-1
 739 752 l 1,0,-1
637 1157 m 0,28,29
 709 1157 709 1157 746.5 1116.5 c 128,-1,30
 784 1076 784 1076 784 1006 c 0,31,32
 784 943 784 943 743.5 902.5 c 128,-1,33
 703 862 703 862 639 862 c 0,34,35
 571 862 571 862 533.5 903.5 c 128,-1,36
 496 945 496 945 496 1014 c 0,37,38
 496 1080 496 1080 535 1118.5 c 128,-1,39
 574 1157 574 1157 637 1157 c 0,28,29
EndSplineSet
EndChar

StartChar: Agrave
Encoding: 192 192 123
Width: 1280
GlyphClass: 1
Flags: W
LayerCount: 2
Fore
SplineSet
55 45 m 1,0,1
 230 584 230 584 489 1438 c 1,2,-1
 760 1442 l 1,3,4
 987 704 987 704 1225 -43 c 1,5,6
 1126 -43 1126 -43 1032 -47 c 1,7,8
 990 96 990 96 920 332 c 1,9,10
 686 338 686 338 326 338 c 1,11,12
 323 329 323 329 244 41 c 1,13,14
 151 45 151 45 55 45 c 1,0,1
616 1335 m 1,15,16
 480 875 480 875 367 481 c 1,17,18
 535 479 535 479 877 479 c 1,19,20
 831 635 831 635 616 1335 c 1,15,16
655 1538 m 1,21,22
 559 1653 559 1653 360 1862 c 1,23,24
 401 1891 401 1891 487 1954 c 1,25,26
 582 1823 582 1823 754 1610 c 1,27,28
 729 1593 729 1593 655 1538 c 1,21,22
EndSplineSet
EndChar

StartChar: Aacute
Encoding: 193 193 124
Width: 1280
GlyphClass: 1
Flags: W
LayerCount: 2
Fore
SplineSet
55 45 m 1,0,1
 230 584 230 584 489 1438 c 1,2,-1
 760 1442 l 1,3,4
 987 704 987 704 1225 -43 c 1,5,6
 1126 -43 1126 -43 1032 -47 c 1,7,8
 990 96 990 96 920 332 c 1,9,10
 686 338 686 338 326 338 c 1,11,12
 323 329 323 329 244 41 c 1,13,14
 151 45 151 45 55 45 c 1,0,1
616 1335 m 1,15,16
 480 875 480 875 367 481 c 1,17,18
 535 479 535 479 877 479 c 1,19,20
 831 635 831 635 616 1335 c 1,15,16
621 1544 m 1,21,-1
 524 1616 l 1,22,23
 601 1712 601 1712 668 1798.5 c 128,-1,24
 735 1885 735 1885 763 1924 c 2,25,-1
 791 1962 l 1,26,-1
 918 1872 l 1,27,28
 830 1779 830 1779 755.5 1697 c 128,-1,29
 681 1615 681 1615 651 1580 c 2,30,-1
 621 1544 l 1,21,-1
EndSplineSet
EndChar

StartChar: Acircumflex
Encoding: 194 194 125
Width: 1280
GlyphClass: 1
Flags: W
LayerCount: 2
Fore
SplineSet
55 45 m 1,0,1
 230 584 230 584 489 1438 c 1,2,-1
 760 1442 l 1,3,4
 987 704 987 704 1225 -43 c 1,5,6
 1126 -43 1126 -43 1032 -47 c 1,7,8
 990 96 990 96 920 332 c 1,9,10
 686 338 686 338 326 338 c 1,11,12
 323 329 323 329 244 41 c 1,13,14
 151 45 151 45 55 45 c 1,0,1
616 1335 m 1,15,16
 480 875 480 875 367 481 c 1,17,18
 535 479 535 479 877 479 c 1,19,20
 831 635 831 635 616 1335 c 1,15,16
416 1530 m 1,21,22
 383 1561 383 1561 324 1606 c 1,23,24
 430 1722 430 1722 565 1886 c 1,25,26
 615 1884 615 1884 711 1886 c 1,27,28
 800 1778 800 1778 954 1614 c 1,29,30
 925 1593 925 1593 864 1536 c 1,31,32
 766 1649 766 1649 637 1780 c 1,33,34
 557 1704 557 1704 416 1530 c 1,21,22
EndSplineSet
EndChar

StartChar: Atilde
Encoding: 195 195 126
Width: 1280
GlyphClass: 1
Flags: W
LayerCount: 2
Fore
SplineSet
55 45 m 1,0,1
 230 584 230 584 489 1438 c 1,2,-1
 760 1442 l 1,3,4
 987 704 987 704 1225 -43 c 1,5,6
 1126 -43 1126 -43 1032 -47 c 1,7,8
 990 96 990 96 920 332 c 1,9,10
 686 338 686 338 326 338 c 1,11,12
 323 329 323 329 244 41 c 1,13,14
 151 45 151 45 55 45 c 1,0,1
616 1335 m 1,15,16
 480 875 480 875 367 481 c 1,17,18
 535 479 535 479 877 479 c 1,19,20
 831 635 831 635 616 1335 c 1,15,16
401 1585 m 1,21,22
 361 1598 361 1598 291 1606 c 1,23,24
 296 1726 296 1726 352 1794 c 128,-1,25
 408 1862 408 1862 504 1862 c 0,26,27
 540 1862 540 1862 574 1844.5 c 128,-1,28
 608 1827 608 1827 634 1801.5 c 128,-1,29
 660 1776 660 1776 683.5 1750.5 c 128,-1,30
 707 1725 707 1725 732 1707.5 c 128,-1,31
 757 1690 757 1690 780 1690 c 0,32,33
 819 1690 819 1690 840.5 1722.5 c 128,-1,34
 862 1755 862 1755 874 1839 c 1,35,36
 911 1829 911 1829 987 1817 c 1,37,38
 974 1679 974 1679 922.5 1624 c 128,-1,39
 871 1569 871 1569 782 1569 c 0,40,41
 744 1569 744 1569 708 1586.5 c 128,-1,42
 672 1604 672 1604 645 1629.5 c 128,-1,43
 618 1655 618 1655 593.5 1680.5 c 128,-1,44
 569 1706 569 1706 543.5 1723.5 c 128,-1,45
 518 1741 518 1741 496 1741 c 0,46,47
 458 1741 458 1741 433 1701 c 128,-1,48
 408 1661 408 1661 401 1585 c 1,21,22
EndSplineSet
EndChar

StartChar: Adieresis
Encoding: 196 196 127
Width: 1280
GlyphClass: 1
Flags: W
LayerCount: 2
Fore
SplineSet
55 45 m 1,0,1
 230 584 230 584 489 1438 c 1,2,-1
 760 1442 l 1,3,4
 987 704 987 704 1225 -43 c 1,5,6
 1126 -43 1126 -43 1032 -47 c 1,7,8
 990 96 990 96 920 332 c 1,9,10
 686 338 686 338 326 338 c 1,11,12
 323 329 323 329 244 41 c 1,13,14
 151 45 151 45 55 45 c 1,0,1
616 1335 m 1,15,16
 480 875 480 875 367 481 c 1,17,18
 535 479 535 479 877 479 c 1,19,20
 831 635 831 635 616 1335 c 1,15,16
457 1591 m 0,21,22
 407 1591 407 1591 374.5 1624 c 128,-1,23
 342 1657 342 1657 342 1710 c 0,24,25
 342 1761 342 1761 376 1791 c 128,-1,26
 410 1821 410 1821 459 1821 c 0,27,28
 514 1821 514 1821 544.5 1787 c 128,-1,29
 575 1753 575 1753 575 1706 c 0,30,31
 575 1652 575 1652 543 1621.5 c 128,-1,32
 511 1591 511 1591 457 1591 c 0,21,22
827 1593 m 0,33,34
 779 1593 779 1593 747 1625.5 c 128,-1,35
 715 1658 715 1658 715 1712 c 0,36,37
 715 1758 715 1758 747 1789.5 c 128,-1,38
 779 1821 779 1821 829 1821 c 0,39,40
 875 1821 875 1821 906.5 1790.5 c 128,-1,41
 938 1760 938 1760 938 1708 c 0,42,43
 938 1657 938 1657 908 1625 c 128,-1,44
 878 1593 878 1593 827 1593 c 0,33,34
EndSplineSet
EndChar

StartChar: Aring
Encoding: 197 197 128
Width: 1280
GlyphClass: 1
Flags: W
LayerCount: 2
Fore
SplineSet
55 45 m 1,0,1
 230 584 230 584 489 1438 c 1,2,-1
 760 1442 l 1,3,4
 987 704 987 704 1225 -43 c 1,5,6
 1126 -43 1126 -43 1032 -47 c 1,7,8
 990 96 990 96 920 332 c 1,9,10
 686 338 686 338 326 338 c 1,11,12
 323 329 323 329 244 41 c 1,13,14
 151 45 151 45 55 45 c 1,0,1
616 1335 m 1,15,16
 480 875 480 875 367 481 c 1,17,18
 535 479 535 479 877 479 c 1,19,20
 831 635 831 635 616 1335 c 1,15,16
635 1538 m 0,21,22
 530 1538 530 1538 465.5 1600.5 c 128,-1,23
 401 1663 401 1663 401 1755 c 128,-1,24
 401 1847 401 1847 466 1908.5 c 128,-1,25
 531 1970 531 1970 635 1970 c 0,26,27
 752 1970 752 1970 814.5 1907 c 128,-1,28
 877 1844 877 1844 877 1755 c 0,29,30
 877 1658 877 1658 809 1598 c 128,-1,31
 741 1538 741 1538 635 1538 c 0,21,22
639 1624 m 0,32,33
 701 1624 701 1624 737.5 1658 c 128,-1,34
 774 1692 774 1692 774 1755 c 0,35,36
 774 1815 774 1815 740 1851.5 c 128,-1,37
 706 1888 706 1888 641 1888 c 128,-1,38
 576 1888 576 1888 541 1851.5 c 128,-1,39
 506 1815 506 1815 506 1757 c 0,40,41
 506 1700 506 1700 541 1662 c 128,-1,42
 576 1624 576 1624 639 1624 c 0,32,33
EndSplineSet
EndChar

StartChar: AE
Encoding: 198 198 129
Width: 1781
GlyphClass: 1
Flags: W
LayerCount: 2
Fore
SplineSet
1604 582 m 1,0,1
 1578 583 1578 583 1531 583.5 c 128,-1,2
 1484 584 1484 584 1329.5 585 c 128,-1,3
 1175 586 1175 586 1028 584 c 1,4,5
 1052 506 1052 506 1101 351 c 128,-1,6
 1150 196 1150 196 1169 133 c 1,7,8
 1355 131 1355 131 1686 143 c 1,9,10
 1685 137 1685 137 1684.5 125 c 128,-1,11
 1684 113 1684 113 1683 73 c 128,-1,12
 1682 33 1682 33 1683 -8 c 1,13,14
 1488 -9 1488 -9 1022 -23 c 1,15,-1
 924 332 l 1,16,17
 666 338 666 338 332 338 c 1,18,19
 319 296 319 296 304.5 247 c 128,-1,20
 290 198 290 198 272.5 135.5 c 128,-1,21
 255 73 255 73 244 37 c 1,22,-1
 55 39 l 1,23,24
 246 619 246 619 496 1440 c 1,25,26
 831 1436 831 1436 1126.5 1435 c 128,-1,27
 1422 1434 1422 1434 1550 1435 c 2,28,-1
 1677 1436 l 1,29,30
 1677 1378 1677 1378 1681 1282 c 1,31,32
 1655 1283 1655 1283 1598 1283.5 c 128,-1,33
 1541 1284 1541 1284 1324 1285 c 128,-1,34
 1107 1286 1107 1286 823 1284 c 1,35,36
 887 1053 887 1053 983 735 c 1,37,38
 1421 735 1421 735 1602 737 c 1,39,40
 1600 668 1600 668 1604 582 c 1,0,1
633 1341 m 1,41,42
 561 1108 561 1108 375 481 c 1,43,44
 613 477 613 477 883 479 c 1,45,46
 786 825 786 825 633 1341 c 1,41,42
EndSplineSet
EndChar

StartChar: Ccedilla
Encoding: 199 199 130
Width: 1353
GlyphClass: 1
Flags: W
LayerCount: 2
Fore
SplineSet
1264 508 m 1,0,1
 1233 243 1233 243 1102.5 105.5 c 128,-1,2
 972 -32 972 -32 748 -41 c 1,3,4
 740 -109 740 -109 739 -143 c 1,5,6
 845 -143 845 -143 899.5 -187 c 128,-1,7
 954 -231 954 -231 954 -291 c 0,8,9
 954 -372 954 -372 880 -419.5 c 128,-1,10
 806 -467 806 -467 684 -467 c 0,11,12
 634 -467 634 -467 575.5 -451.5 c 128,-1,13
 517 -436 517 -436 473 -410 c 1,14,15
 492 -370 492 -370 512 -313 c 1,16,17
 600 -365 600 -365 684 -365 c 0,18,19
 737 -365 737 -365 772 -345.5 c 128,-1,20
 807 -326 807 -326 807 -293 c 0,21,22
 807 -210 807 -210 610 -233 c 1,23,24
 627 -162 627 -162 645 -37 c 1,25,26
 469 -21 469 -21 350 79 c 128,-1,27
 231 179 231 179 176 339 c 128,-1,28
 121 499 121 499 121 713 c 0,29,30
 121 1062 121 1062 276.5 1263 c 128,-1,31
 432 1464 432 1464 719 1464 c 0,32,33
 940 1464 940 1464 1064 1336 c 128,-1,34
 1188 1208 1188 1208 1223 977 c 1,35,36
 1166 969 1166 969 1118 960.5 c 128,-1,37
 1070 952 1070 952 1051 947 c 2,38,-1
 1032 942 l 1,39,40
 1005 1121 1005 1121 929 1213 c 128,-1,41
 853 1305 853 1305 715 1305 c 0,42,43
 615 1305 615 1305 537.5 1259.5 c 128,-1,44
 460 1214 460 1214 412 1133.5 c 128,-1,45
 364 1053 364 1053 339.5 948.5 c 128,-1,46
 315 844 315 844 315 719 c 0,47,48
 315 617 315 617 329.5 528 c 128,-1,49
 344 439 344 439 375.5 363.5 c 128,-1,50
 407 288 407 288 453.5 234.5 c 128,-1,51
 500 181 500 181 566.5 151 c 128,-1,52
 633 121 633 121 715 121 c 0,53,54
 871 121 871 121 959.5 220.5 c 128,-1,55
 1048 320 1048 320 1069 535 c 1,56,-1
 1264 508 l 1,0,1
EndSplineSet
EndChar

StartChar: Egrave
Encoding: 200 200 131
Width: 1148
GlyphClass: 1
Flags: W
LayerCount: 2
Fore
SplineSet
174 8 m 1,0,1
 172 596 172 596 158 1421 c 1,2,3
 546 1426 546 1426 1030 1436 c 1,4,5
 1030 1382 1030 1382 1032 1282 c 1,6,7
 710 1280 710 1280 342 1272 c 1,8,9
 342 1072 342 1072 346 739 c 1,10,11
 804 739 804 739 952 741 c 1,12,13
 952 678 952 678 954 580 c 1,14,15
 918 581 918 581 861 581.5 c 128,-1,16
 804 582 804 582 633.5 583 c 128,-1,17
 463 584 463 584 348 582 c 1,18,19
 353 287 353 287 356 156 c 1,20,-1
 1053 147 l 1,21,22
 1053 90 1053 90 1051 -6 c 1,23,24
 576 6 576 6 174 8 c 1,0,1
631 1538 m 1,25,26
 535 1653 535 1653 336 1862 c 1,27,28
 377 1891 377 1891 463 1954 c 1,29,30
 557 1823 557 1823 729 1610 c 1,31,32
 705 1593 705 1593 631 1538 c 1,25,26
EndSplineSet
EndChar

StartChar: Eacute
Encoding: 201 201 132
Width: 1148
GlyphClass: 1
Flags: W
LayerCount: 2
Fore
SplineSet
174 8 m 1,0,1
 172 596 172 596 158 1421 c 1,2,3
 546 1426 546 1426 1030 1436 c 1,4,5
 1030 1382 1030 1382 1032 1282 c 1,6,7
 710 1280 710 1280 342 1272 c 1,8,9
 342 1072 342 1072 346 739 c 1,10,11
 804 739 804 739 952 741 c 1,12,13
 952 678 952 678 954 580 c 1,14,15
 918 581 918 581 861 581.5 c 128,-1,16
 804 582 804 582 633.5 583 c 128,-1,17
 463 584 463 584 348 582 c 1,18,19
 353 287 353 287 356 156 c 1,20,-1
 1053 147 l 1,21,22
 1053 90 1053 90 1051 -6 c 1,23,24
 576 6 576 6 174 8 c 1,0,1
596 1544 m 1,25,-1
 500 1616 l 1,26,27
 577 1712 577 1712 643.5 1798.5 c 128,-1,28
 710 1885 710 1885 738 1924 c 2,29,-1
 766 1962 l 1,30,-1
 893 1872 l 1,31,32
 805 1779 805 1779 730.5 1697 c 128,-1,33
 656 1615 656 1615 626 1580 c 2,34,-1
 596 1544 l 1,25,-1
EndSplineSet
EndChar

StartChar: Ecircumflex
Encoding: 202 202 133
Width: 1148
GlyphClass: 1
Flags: W
LayerCount: 2
Fore
SplineSet
174 8 m 1,0,1
 172 596 172 596 158 1421 c 1,2,3
 546 1426 546 1426 1030 1436 c 1,4,5
 1030 1382 1030 1382 1032 1282 c 1,6,7
 710 1280 710 1280 342 1272 c 1,8,9
 342 1072 342 1072 346 739 c 1,10,11
 804 739 804 739 952 741 c 1,12,13
 952 678 952 678 954 580 c 1,14,15
 918 581 918 581 861 581.5 c 128,-1,16
 804 582 804 582 633.5 583 c 128,-1,17
 463 584 463 584 348 582 c 1,18,19
 353 287 353 287 356 156 c 1,20,-1
 1053 147 l 1,21,22
 1053 90 1053 90 1051 -6 c 1,23,24
 576 6 576 6 174 8 c 1,0,1
391 1530 m 1,25,26
 358 1561 358 1561 299 1606 c 1,27,28
 406 1722 406 1722 541 1886 c 1,29,30
 590 1884 590 1884 686 1886 c 1,31,32
 776 1778 776 1778 930 1614 c 1,33,34
 901 1593 901 1593 840 1536 c 1,35,36
 741 1649 741 1649 612 1780 c 1,37,38
 532 1704 532 1704 391 1530 c 1,25,26
EndSplineSet
EndChar

StartChar: Edieresis
Encoding: 203 203 134
Width: 1148
GlyphClass: 1
Flags: W
LayerCount: 2
Fore
SplineSet
174 8 m 1,0,1
 172 596 172 596 158 1421 c 1,2,3
 546 1426 546 1426 1030 1436 c 1,4,5
 1030 1382 1030 1382 1032 1282 c 1,6,7
 710 1280 710 1280 342 1272 c 1,8,9
 342 1072 342 1072 346 739 c 1,10,11
 804 739 804 739 952 741 c 1,12,13
 952 678 952 678 954 580 c 1,14,15
 918 581 918 581 861 581.5 c 128,-1,16
 804 582 804 582 633.5 583 c 128,-1,17
 463 584 463 584 348 582 c 1,18,19
 353 287 353 287 356 156 c 1,20,-1
 1053 147 l 1,21,22
 1053 90 1053 90 1051 -6 c 1,23,24
 576 6 576 6 174 8 c 1,0,1
432 1591 m 0,25,26
 382 1591 382 1591 349.5 1624 c 128,-1,27
 317 1657 317 1657 317 1710 c 0,28,29
 317 1761 317 1761 351 1791 c 128,-1,30
 385 1821 385 1821 434 1821 c 0,31,32
 489 1821 489 1821 520 1786.5 c 128,-1,33
 551 1752 551 1752 551 1706 c 0,34,35
 551 1652 551 1652 518.5 1621.5 c 128,-1,36
 486 1591 486 1591 432 1591 c 0,25,26
803 1593 m 0,37,38
 754 1593 754 1593 722 1625.5 c 128,-1,39
 690 1658 690 1658 690 1712 c 0,40,41
 690 1758 690 1758 722.5 1789.5 c 128,-1,42
 755 1821 755 1821 805 1821 c 0,43,44
 851 1821 851 1821 882 1790.5 c 128,-1,45
 913 1760 913 1760 913 1708 c 128,-1,46
 913 1656 913 1656 883 1624.5 c 128,-1,47
 853 1593 853 1593 803 1593 c 0,37,38
EndSplineSet
EndChar

StartChar: Igrave
Encoding: 204 204 135
Width: 550
GlyphClass: 1
Flags: W
LayerCount: 2
Fore
SplineSet
186 -2 m 1,0,1
 186 624 186 624 178 1421 c 1,2,3
 243 1423 243 1423 362 1423 c 1,4,5
 365 740 365 740 373 -2 c 1,6,7
 288 0 288 0 186 -2 c 1,0,1
291 1538 m 1,8,9
 195 1653 195 1653 -4 1862 c 1,10,11
 37 1891 37 1891 123 1954 c 1,12,13
 217 1823 217 1823 389 1610 c 1,14,15
 365 1593 365 1593 291 1538 c 1,8,9
EndSplineSet
EndChar

StartChar: Iacute
Encoding: 205 205 136
Width: 550
GlyphClass: 1
Flags: W
LayerCount: 2
Fore
SplineSet
186 -2 m 1,0,1
 186 624 186 624 178 1421 c 1,2,3
 243 1423 243 1423 362 1423 c 1,4,5
 365 740 365 740 373 -2 c 1,6,7
 288 0 288 0 186 -2 c 1,0,1
256 1544 m 1,8,-1
 160 1616 l 1,9,10
 237 1712 237 1712 303.5 1798.5 c 128,-1,11
 370 1885 370 1885 398 1924 c 2,12,-1
 426 1962 l 1,13,-1
 553 1872 l 1,14,15
 465 1779 465 1779 390.5 1697 c 128,-1,16
 316 1615 316 1615 286 1580 c 2,17,-1
 256 1544 l 1,8,-1
EndSplineSet
EndChar

StartChar: Icircumflex
Encoding: 206 206 137
Width: 550
GlyphClass: 1
Flags: W
LayerCount: 2
Fore
SplineSet
186 -2 m 1,0,1
 186 624 186 624 178 1421 c 1,2,3
 243 1423 243 1423 362 1423 c 1,4,5
 365 740 365 740 373 -2 c 1,6,7
 288 0 288 0 186 -2 c 1,0,1
51 1530 m 1,8,9
 18 1561 18 1561 -41 1606 c 1,10,11
 66 1722 66 1722 201 1886 c 1,12,13
 250 1884 250 1884 346 1886 c 1,14,15
 436 1778 436 1778 590 1614 c 1,16,17
 561 1593 561 1593 500 1536 c 1,18,19
 401 1649 401 1649 272 1780 c 1,20,21
 192 1704 192 1704 51 1530 c 1,8,9
EndSplineSet
EndChar

StartChar: Idieresis
Encoding: 207 207 138
Width: 550
GlyphClass: 1
Flags: W
LayerCount: 2
Fore
SplineSet
186 -2 m 1,0,1
 186 624 186 624 178 1421 c 1,2,3
 243 1423 243 1423 362 1423 c 1,4,5
 365 740 365 740 373 -2 c 1,6,7
 288 0 288 0 186 -2 c 1,0,1
92 1591 m 0,8,9
 42 1591 42 1591 9.5 1624 c 128,-1,10
 -23 1657 -23 1657 -23 1710 c 0,11,12
 -23 1761 -23 1761 11 1791 c 128,-1,13
 45 1821 45 1821 94 1821 c 0,14,15
 149 1821 149 1821 180 1786.5 c 128,-1,16
 211 1752 211 1752 211 1706 c 0,17,18
 211 1652 211 1652 178.5 1621.5 c 128,-1,19
 146 1591 146 1591 92 1591 c 0,8,9
463 1593 m 0,20,21
 414 1593 414 1593 382 1625.5 c 128,-1,22
 350 1658 350 1658 350 1712 c 0,23,24
 350 1758 350 1758 382.5 1789.5 c 128,-1,25
 415 1821 415 1821 465 1821 c 0,26,27
 511 1821 511 1821 542 1790.5 c 128,-1,28
 573 1760 573 1760 573 1708 c 128,-1,29
 573 1656 573 1656 543 1624.5 c 128,-1,30
 513 1593 513 1593 463 1593 c 0,20,21
EndSplineSet
EndChar

StartChar: Eth
Encoding: 208 208 139
Width: 1435
GlyphClass: 1
Flags: W
LayerCount: 2
Fore
SplineSet
41 625 m 1,0,-1
 43 782 l 1,1,2
 109 778 109 778 246 774 c 1,3,-1
 242 1411 l 1,4,5
 402 1434 402 1434 545 1434 c 0,6,7
 739 1434 739 1434 887.5 1381.5 c 128,-1,8
 1036 1329 1036 1329 1129 1233.5 c 128,-1,9
 1222 1138 1222 1138 1268.5 1008.5 c 128,-1,10
 1315 879 1315 879 1315 719 c 0,11,12
 1315 360 1315 360 1111.5 174 c 128,-1,13
 908 -12 908 -12 496 -12 c 0,14,15
 388 -12 388 -12 244 4 c 1,16,17
 246 237 246 237 246 625 c 1,18,-1
 41 625 l 1,0,-1
434 150 m 1,19,20
 487 147 487 147 532 147 c 0,21,22
 825 147 825 147 973.5 281 c 128,-1,23
 1122 415 1122 415 1122 721 c 0,24,25
 1122 982 1122 982 974 1129 c 128,-1,26
 826 1276 826 1276 532 1276 c 0,27,28
 480 1276 480 1276 422 1270 c 1,29,30
 422 924 422 924 424 772 c 1,31,32
 504 770 504 770 705 770 c 1,33,34
 703 717 703 717 707 623 c 1,35,36
 596 625 596 625 426 625 c 1,37,-1
 434 150 l 1,19,20
EndSplineSet
EndChar

StartChar: Ntilde
Encoding: 209 209 140
Width: 1343
GlyphClass: 1
Flags: W
LayerCount: 2
Fore
SplineSet
164 41 m 1,0,1
 168 542 168 542 158 1376 c 1,2,3
 245 1383 245 1383 358 1389 c 1,4,5
 667 824 667 824 1016 207 c 1,6,7
 1007 997 1007 997 993 1466 c 1,8,9
 1067 1464 1067 1464 1169 1464 c 1,10,11
 1172 878 1172 878 1186 -31 c 1,12,-1
 977 -45 l 1,13,14
 692 480 692 480 326 1126 c 1,15,16
 326 575 326 575 340 37 c 1,17,18
 262 39 262 39 164 41 c 1,0,1
434 1585 m 1,19,20
 394 1598 394 1598 324 1606 c 1,21,22
 329 1726 329 1726 385 1794 c 128,-1,23
 441 1862 441 1862 537 1862 c 0,24,25
 573 1862 573 1862 607 1844.5 c 128,-1,26
 641 1827 641 1827 667 1801.5 c 128,-1,27
 693 1776 693 1776 716.5 1750.5 c 128,-1,28
 740 1725 740 1725 765 1707.5 c 128,-1,29
 790 1690 790 1690 813 1690 c 0,30,31
 852 1690 852 1690 873.5 1722.5 c 128,-1,32
 895 1755 895 1755 907 1839 c 1,33,34
 944 1829 944 1829 1020 1817 c 1,35,36
 1007 1679 1007 1679 955.5 1624 c 128,-1,37
 904 1569 904 1569 815 1569 c 0,38,39
 777 1569 777 1569 741 1586.5 c 128,-1,40
 705 1604 705 1604 677.5 1629.5 c 128,-1,41
 650 1655 650 1655 625.5 1680.5 c 128,-1,42
 601 1706 601 1706 575.5 1723.5 c 128,-1,43
 550 1741 550 1741 528 1741 c 0,44,45
 449 1741 449 1741 434 1585 c 1,19,20
EndSplineSet
EndChar

StartChar: Ograve
Encoding: 210 210 141
Width: 1433
GlyphClass: 1
Flags: W
LayerCount: 2
Fore
SplineSet
717 -47 m 0,0,1
 445 -47 445 -47 284 149 c 128,-1,2
 123 345 123 345 123 694 c 0,3,4
 123 1052 123 1052 285 1259 c 128,-1,5
 447 1466 447 1466 725 1466 c 0,6,7
 995 1466 995 1466 1153 1258 c 128,-1,8
 1311 1050 1311 1050 1311 698 c 0,9,10
 1311 342 1311 342 1153 147.5 c 128,-1,11
 995 -47 995 -47 717 -47 c 0,0,1
715 111 m 0,12,13
 893 111 893 111 1003.5 262.5 c 128,-1,14
 1114 414 1114 414 1114 707 c 0,15,16
 1114 995 1114 995 1009 1153 c 128,-1,17
 904 1311 904 1311 719 1311 c 0,18,19
 528 1311 528 1311 423.5 1148 c 128,-1,20
 319 985 319 985 319 707 c 0,21,22
 319 431 319 431 425.5 271 c 128,-1,23
 532 111 532 111 715 111 c 0,12,13
733 1538 m 1,24,25
 637 1653 637 1653 438 1862 c 1,26,27
 479 1891 479 1891 565 1954 c 1,28,29
 659 1823 659 1823 831 1610 c 1,30,31
 807 1593 807 1593 733 1538 c 1,24,25
EndSplineSet
EndChar

StartChar: Oacute
Encoding: 211 211 142
Width: 1433
GlyphClass: 1
Flags: W
LayerCount: 2
Fore
SplineSet
717 -47 m 0,0,1
 445 -47 445 -47 284 149 c 128,-1,2
 123 345 123 345 123 694 c 0,3,4
 123 1052 123 1052 285 1259 c 128,-1,5
 447 1466 447 1466 725 1466 c 0,6,7
 995 1466 995 1466 1153 1258 c 128,-1,8
 1311 1050 1311 1050 1311 698 c 0,9,10
 1311 342 1311 342 1153 147.5 c 128,-1,11
 995 -47 995 -47 717 -47 c 0,0,1
715 111 m 0,12,13
 893 111 893 111 1003.5 262.5 c 128,-1,14
 1114 414 1114 414 1114 707 c 0,15,16
 1114 995 1114 995 1009 1153 c 128,-1,17
 904 1311 904 1311 719 1311 c 0,18,19
 528 1311 528 1311 423.5 1148 c 128,-1,20
 319 985 319 985 319 707 c 0,21,22
 319 431 319 431 425.5 271 c 128,-1,23
 532 111 532 111 715 111 c 0,12,13
698 1544 m 1,24,-1
 602 1616 l 1,25,26
 679 1712 679 1712 745.5 1798.5 c 128,-1,27
 812 1885 812 1885 840 1924 c 2,28,-1
 868 1962 l 1,29,-1
 995 1872 l 1,30,31
 907 1779 907 1779 832.5 1697 c 128,-1,32
 758 1615 758 1615 728 1580 c 2,33,-1
 698 1544 l 1,24,-1
EndSplineSet
EndChar

StartChar: Ocircumflex
Encoding: 212 212 143
Width: 1433
GlyphClass: 1
Flags: W
LayerCount: 2
Fore
SplineSet
717 -47 m 0,0,1
 445 -47 445 -47 284 149 c 128,-1,2
 123 345 123 345 123 694 c 0,3,4
 123 1052 123 1052 285 1259 c 128,-1,5
 447 1466 447 1466 725 1466 c 0,6,7
 995 1466 995 1466 1153 1258 c 128,-1,8
 1311 1050 1311 1050 1311 698 c 0,9,10
 1311 342 1311 342 1153 147.5 c 128,-1,11
 995 -47 995 -47 717 -47 c 0,0,1
715 111 m 0,12,13
 893 111 893 111 1003.5 262.5 c 128,-1,14
 1114 414 1114 414 1114 707 c 0,15,16
 1114 995 1114 995 1009 1153 c 128,-1,17
 904 1311 904 1311 719 1311 c 0,18,19
 528 1311 528 1311 423.5 1148 c 128,-1,20
 319 985 319 985 319 707 c 0,21,22
 319 431 319 431 425.5 271 c 128,-1,23
 532 111 532 111 715 111 c 0,12,13
494 1530 m 1,24,25
 460 1561 460 1561 401 1606 c 1,26,27
 508 1722 508 1722 643 1886 c 1,28,29
 692 1884 692 1884 788 1886 c 1,30,31
 878 1778 878 1778 1032 1614 c 1,32,33
 1003 1593 1003 1593 942 1536 c 1,34,35
 844 1649 844 1649 715 1780 c 1,36,37
 635 1704 635 1704 494 1530 c 1,24,25
EndSplineSet
EndChar

StartChar: Otilde
Encoding: 213 213 144
Width: 1433
GlyphClass: 1
Flags: W
LayerCount: 2
Fore
SplineSet
717 -47 m 0,0,1
 445 -47 445 -47 284 149 c 128,-1,2
 123 345 123 345 123 694 c 0,3,4
 123 1052 123 1052 285 1259 c 128,-1,5
 447 1466 447 1466 725 1466 c 0,6,7
 995 1466 995 1466 1153 1258 c 128,-1,8
 1311 1050 1311 1050 1311 698 c 0,9,10
 1311 342 1311 342 1153 147.5 c 128,-1,11
 995 -47 995 -47 717 -47 c 0,0,1
715 111 m 0,12,13
 893 111 893 111 1003.5 262.5 c 128,-1,14
 1114 414 1114 414 1114 707 c 0,15,16
 1114 995 1114 995 1009 1153 c 128,-1,17
 904 1311 904 1311 719 1311 c 0,18,19
 528 1311 528 1311 423.5 1148 c 128,-1,20
 319 985 319 985 319 707 c 0,21,22
 319 431 319 431 425.5 271 c 128,-1,23
 532 111 532 111 715 111 c 0,12,13
479 1585 m 1,24,25
 439 1598 439 1598 369 1606 c 1,26,27
 374 1726 374 1726 430 1794 c 128,-1,28
 486 1862 486 1862 582 1862 c 0,29,30
 618 1862 618 1862 652 1844.5 c 128,-1,31
 686 1827 686 1827 712 1801.5 c 128,-1,32
 738 1776 738 1776 761.5 1750.5 c 128,-1,33
 785 1725 785 1725 810 1707.5 c 128,-1,34
 835 1690 835 1690 858 1690 c 0,35,36
 897 1690 897 1690 918.5 1722.5 c 128,-1,37
 940 1755 940 1755 952 1839 c 1,38,39
 989 1829 989 1829 1065 1817 c 1,40,41
 1052 1679 1052 1679 1000.5 1624 c 128,-1,42
 949 1569 949 1569 860 1569 c 0,43,44
 822 1569 822 1569 786 1586.5 c 128,-1,45
 750 1604 750 1604 722.5 1629.5 c 128,-1,46
 695 1655 695 1655 670.5 1680.5 c 128,-1,47
 646 1706 646 1706 620.5 1723.5 c 128,-1,48
 595 1741 595 1741 573 1741 c 0,49,50
 494 1741 494 1741 479 1585 c 1,24,25
EndSplineSet
EndChar

StartChar: Odieresis
Encoding: 214 214 145
Width: 1433
GlyphClass: 1
Flags: W
LayerCount: 2
Fore
SplineSet
717 -47 m 0,0,1
 445 -47 445 -47 284 149 c 128,-1,2
 123 345 123 345 123 694 c 0,3,4
 123 1052 123 1052 285 1259 c 128,-1,5
 447 1466 447 1466 725 1466 c 0,6,7
 995 1466 995 1466 1153 1258 c 128,-1,8
 1311 1050 1311 1050 1311 698 c 0,9,10
 1311 342 1311 342 1153 147.5 c 128,-1,11
 995 -47 995 -47 717 -47 c 0,0,1
715 111 m 0,12,13
 893 111 893 111 1003.5 262.5 c 128,-1,14
 1114 414 1114 414 1114 707 c 0,15,16
 1114 995 1114 995 1009 1153 c 128,-1,17
 904 1311 904 1311 719 1311 c 0,18,19
 528 1311 528 1311 423.5 1148 c 128,-1,20
 319 985 319 985 319 707 c 0,21,22
 319 431 319 431 425.5 271 c 128,-1,23
 532 111 532 111 715 111 c 0,12,13
535 1591 m 0,24,25
 485 1591 485 1591 452.5 1624 c 128,-1,26
 420 1657 420 1657 420 1710 c 0,27,28
 420 1761 420 1761 454 1791 c 128,-1,29
 488 1821 488 1821 537 1821 c 0,30,31
 592 1821 592 1821 622.5 1787 c 128,-1,32
 653 1753 653 1753 653 1706 c 0,33,34
 653 1652 653 1652 621 1621.5 c 128,-1,35
 589 1591 589 1591 535 1591 c 0,24,25
905 1593 m 0,36,37
 857 1593 857 1593 825 1625.5 c 128,-1,38
 793 1658 793 1658 793 1712 c 0,39,40
 793 1758 793 1758 825 1789.5 c 128,-1,41
 857 1821 857 1821 907 1821 c 0,42,43
 953 1821 953 1821 984.5 1790.5 c 128,-1,44
 1016 1760 1016 1760 1016 1708 c 0,45,46
 1016 1657 1016 1657 986 1625 c 128,-1,47
 956 1593 956 1593 905 1593 c 0,36,37
EndSplineSet
EndChar

StartChar: multiply
Encoding: 215 215 146
Width: 1040
GlyphClass: 1
Flags: W
LayerCount: 2
Fore
SplineSet
203 236 m 1,0,1
 170 269 170 269 102 330 c 1,2,3
 248 481 248 481 430 678 c 1,4,-1
 113 1018 l 1,5,-1
 211 1116 l 1,6,7
 339 971 339 971 520 774 c 1,8,-1
 840 1128 l 1,9,10
 883 1081 883 1081 938 1030 c 1,11,12
 790 877 790 877 608 680 c 1,13,14
 687 594 687 594 768 508 c 128,-1,15
 849 422 849 422 890 379 c 2,16,-1
 932 336 l 1,17,-1
 829 242 l 1,18,19
 555 545 555 545 518 584 c 1,20,21
 482 544 482 544 417.5 473.5 c 128,-1,22
 353 403 353 403 299.5 344 c 128,-1,23
 246 285 246 285 203 236 c 1,0,1
EndSplineSet
Substitution2: "<6,0> Monospaced Numbers in Latin lookup 6 subtable" multiply.tab
EndChar

StartChar: Oslash
Encoding: 216 216 147
Width: 1433
GlyphClass: 1
Flags: W
LayerCount: 2
Fore
SplineSet
356 -178 m 1,0,1
 319 -158 319 -158 233 -115 c 1,2,3
 272 -39 272 -39 338 94 c 1,4,5
 233 192 233 192 178 351 c 128,-1,6
 123 510 123 510 123 711 c 0,7,8
 123 938 123 938 193 1107.5 c 128,-1,9
 263 1277 263 1277 400.5 1371.5 c 128,-1,10
 538 1466 538 1466 727 1466 c 0,11,12
 864 1466 864 1466 979 1407 c 1,13,-1
 1067 1591 l 1,14,15
 1098 1575 1098 1575 1202 1524 c 1,16,17
 1164 1450 1164 1450 1098 1323 c 1,18,19
 1201 1225 1201 1225 1256 1068.5 c 128,-1,20
 1311 912 1311 912 1311 709 c 0,21,22
 1311 350 1311 350 1152 152.5 c 128,-1,23
 993 -45 993 -45 713 -45 c 0,24,25
 564 -45 564 -45 449 14 c 1,26,27
 412 -59 412 -59 356 -178 c 1,0,1
713 109 m 0,28,29
 899 109 899 109 1006.5 265.5 c 128,-1,30
 1114 422 1114 422 1114 713 c 0,31,32
 1114 990 1114 990 1010 1147 c 1,33,34
 879 891 879 891 520 164 c 1,35,36
 602 109 602 109 713 109 c 0,28,29
317 713 m 0,37,38
 317 422 317 422 422 266 c 1,39,40
 447 318 447 318 619 669 c 128,-1,41
 791 1020 791 1020 905 1255 c 1,42,43
 819 1315 819 1315 717 1315 c 0,44,45
 593 1315 593 1315 502 1237.5 c 128,-1,46
 411 1160 411 1160 364 1024.5 c 128,-1,47
 317 889 317 889 317 713 c 0,37,38
EndSplineSet
EndChar

StartChar: Ugrave
Encoding: 217 217 148
Width: 1296
GlyphClass: 1
Flags: W
LayerCount: 2
Fore
SplineSet
659 -29 m 0,0,1
 390 -29 390 -29 265.5 129.5 c 128,-1,2
 141 288 141 288 141 594 c 2,3,-1
 137 1382 l 1,4,-1
 328 1380 l 1,5,6
 324 821 324 821 324 612 c 0,7,8
 324 362 324 362 406 249.5 c 128,-1,9
 488 137 488 137 666 137 c 0,10,11
 833 137 833 137 906 255 c 128,-1,12
 979 373 979 373 979 623 c 2,13,-1
 977 1458 l 1,14,15
 1032 1456 1032 1456 1159 1462 c 1,16,17
 1155 883 1155 883 1155 614 c 0,18,19
 1155 -29 1155 -29 659 -29 c 0,0,1
664 1538 m 1,20,21
 568 1653 568 1653 369 1862 c 1,22,23
 410 1891 410 1891 496 1954 c 1,24,25
 590 1823 590 1823 762 1610 c 1,26,27
 738 1593 738 1593 664 1538 c 1,20,21
EndSplineSet
EndChar

StartChar: Uacute
Encoding: 218 218 149
Width: 1296
GlyphClass: 1
Flags: W
LayerCount: 2
Fore
SplineSet
659 -29 m 0,0,1
 390 -29 390 -29 265.5 129.5 c 128,-1,2
 141 288 141 288 141 594 c 2,3,-1
 137 1382 l 1,4,-1
 328 1380 l 1,5,6
 324 821 324 821 324 612 c 0,7,8
 324 362 324 362 406 249.5 c 128,-1,9
 488 137 488 137 666 137 c 0,10,11
 833 137 833 137 906 255 c 128,-1,12
 979 373 979 373 979 623 c 2,13,-1
 977 1458 l 1,14,15
 1032 1456 1032 1456 1159 1462 c 1,16,17
 1155 883 1155 883 1155 614 c 0,18,19
 1155 -29 1155 -29 659 -29 c 0,0,1
629 1544 m 1,20,-1
 532 1616 l 1,21,22
 609 1712 609 1712 676 1798.5 c 128,-1,23
 743 1885 743 1885 771 1924 c 2,24,-1
 799 1962 l 1,25,-1
 926 1872 l 1,26,27
 838 1779 838 1779 763.5 1697 c 128,-1,28
 689 1615 689 1615 659 1580 c 2,29,-1
 629 1544 l 1,20,-1
EndSplineSet
EndChar

StartChar: Ucircumflex
Encoding: 219 219 150
Width: 1296
GlyphClass: 1
Flags: W
LayerCount: 2
Fore
SplineSet
659 -29 m 0,0,1
 390 -29 390 -29 265.5 129.5 c 128,-1,2
 141 288 141 288 141 594 c 2,3,-1
 137 1382 l 1,4,-1
 328 1380 l 1,5,6
 324 821 324 821 324 612 c 0,7,8
 324 362 324 362 406 249.5 c 128,-1,9
 488 137 488 137 666 137 c 0,10,11
 833 137 833 137 906 255 c 128,-1,12
 979 373 979 373 979 623 c 2,13,-1
 977 1458 l 1,14,15
 1032 1456 1032 1456 1159 1462 c 1,16,17
 1155 883 1155 883 1155 614 c 0,18,19
 1155 -29 1155 -29 659 -29 c 0,0,1
424 1530 m 1,20,21
 391 1561 391 1561 332 1606 c 1,22,23
 438 1722 438 1722 573 1886 c 1,24,25
 623 1884 623 1884 719 1886 c 1,26,27
 809 1778 809 1778 963 1614 c 1,28,29
 933 1593 933 1593 872 1536 c 1,30,31
 774 1649 774 1649 645 1780 c 1,32,33
 565 1704 565 1704 424 1530 c 1,20,21
EndSplineSet
EndChar

StartChar: Udieresis
Encoding: 220 220 151
Width: 1296
GlyphClass: 1
Flags: W
LayerCount: 2
Fore
SplineSet
659 -29 m 0,0,1
 390 -29 390 -29 265.5 129.5 c 128,-1,2
 141 288 141 288 141 594 c 2,3,-1
 137 1382 l 1,4,-1
 328 1380 l 1,5,6
 324 821 324 821 324 612 c 0,7,8
 324 362 324 362 406 249.5 c 128,-1,9
 488 137 488 137 666 137 c 0,10,11
 833 137 833 137 906 255 c 128,-1,12
 979 373 979 373 979 623 c 2,13,-1
 977 1458 l 1,14,15
 1032 1456 1032 1456 1159 1462 c 1,16,17
 1155 883 1155 883 1155 614 c 0,18,19
 1155 -29 1155 -29 659 -29 c 0,0,1
465 1591 m 0,20,21
 415 1591 415 1591 382.5 1624 c 128,-1,22
 350 1657 350 1657 350 1710 c 0,23,24
 350 1761 350 1761 384 1791 c 128,-1,25
 418 1821 418 1821 467 1821 c 0,26,27
 522 1821 522 1821 553 1786.5 c 128,-1,28
 584 1752 584 1752 584 1706 c 0,29,30
 584 1652 584 1652 551.5 1621.5 c 128,-1,31
 519 1591 519 1591 465 1591 c 0,20,21
836 1593 m 0,32,33
 787 1593 787 1593 755 1625.5 c 128,-1,34
 723 1658 723 1658 723 1712 c 0,35,36
 723 1758 723 1758 755.5 1789.5 c 128,-1,37
 788 1821 788 1821 838 1821 c 0,38,39
 884 1821 884 1821 915 1790.5 c 128,-1,40
 946 1760 946 1760 946 1708 c 128,-1,41
 946 1656 946 1656 916 1624.5 c 128,-1,42
 886 1593 886 1593 836 1593 c 0,32,33
EndSplineSet
EndChar

StartChar: Yacute
Encoding: 221 221 152
Width: 1245
GlyphClass: 1
Flags: W
LayerCount: 2
Fore
SplineSet
510 -20 m 1,0,1
 509 -12 509 -12 509 53.5 c 128,-1,2
 509 119 509 119 507 226 c 128,-1,3
 505 333 505 333 502 424 c 1,4,5
 380 702 380 702 45 1395 c 1,6,7
 109 1397 109 1397 248 1405 c 1,8,9
 342 1179 342 1179 596 631 c 1,10,11
 738 900 738 900 997 1444 c 1,12,13
 1079 1442 1079 1442 1200 1438 c 1,14,15
 996 1064 996 1064 688 426 c 1,16,17
 686 262 686 262 694 -18 c 1,18,19
 623 -16 623 -16 510 -20 c 1,0,1
604 1544 m 1,20,-1
 508 1616 l 1,21,22
 585 1712 585 1712 651.5 1798.5 c 128,-1,23
 718 1885 718 1885 746 1924 c 2,24,-1
 774 1962 l 1,25,-1
 901 1872 l 1,26,27
 813 1779 813 1779 738.5 1697 c 128,-1,28
 664 1615 664 1615 634 1580 c 2,29,-1
 604 1544 l 1,20,-1
EndSplineSet
EndChar

StartChar: Thorn
Encoding: 222 222 153
Width: 1212
GlyphClass: 1
Flags: W
LayerCount: 2
Fore
SplineSet
160 10 m 1,0,1
 168 567 168 567 158 1421 c 1,2,3
 231 1415 231 1415 342 1415 c 1,4,5
 340 1323 340 1323 338 1171 c 1,6,7
 438 1178 438 1178 502 1178 c 0,8,9
 667 1178 667 1178 791.5 1144.5 c 128,-1,10
 916 1111 916 1111 991.5 1049.5 c 128,-1,11
 1067 988 1067 988 1104 908.5 c 128,-1,12
 1141 829 1141 829 1141 731 c 0,13,14
 1141 502 1141 502 965.5 380 c 128,-1,15
 790 258 790 258 487 258 c 0,16,17
 418 258 418 258 344 264 c 1,18,19
 348 96 348 96 352 12 c 1,20,21
 275 14 275 14 160 10 c 1,0,1
338 1026 m 1,22,23
 338 652 338 652 342 412 c 1,24,25
 428 403 428 403 504 403 c 0,26,27
 712 403 712 403 833 487 c 128,-1,28
 954 571 954 571 954 719 c 0,29,30
 954 860 954 860 841 946 c 128,-1,31
 728 1032 728 1032 498 1032 c 0,32,33
 424 1032 424 1032 338 1026 c 1,22,23
EndSplineSet
EndChar

StartChar: germandbls
Encoding: 223 223 154
Width: 1224
GlyphClass: 1
Flags: W
LayerCount: 2
Fore
SplineSet
143 41 m 1,0,1
 147 538 147 538 147 887 c 0,2,3
 147 1152 147 1152 276.5 1300 c 128,-1,4
 406 1448 406 1448 641 1448 c 0,5,6
 746 1448 746 1448 832.5 1415 c 128,-1,7
 919 1382 919 1382 973.5 1327.5 c 128,-1,8
 1028 1273 1028 1273 1057.5 1204 c 128,-1,9
 1087 1135 1087 1135 1087 1061 c 0,10,11
 1087 924 1087 924 992.5 831 c 128,-1,12
 898 738 898 738 758 719 c 1,13,14
 932 695 932 695 1022 598 c 128,-1,15
 1112 501 1112 501 1112 362 c 0,16,17
 1112 173 1112 173 988 70 c 128,-1,18
 864 -33 864 -33 647 -33 c 0,19,20
 564 -33 564 -33 465 -18 c 1,21,22
 471 29 471 29 473 119 c 1,23,24
 546 106 546 106 602 106 c 0,25,26
 758 106 758 106 842 173.5 c 128,-1,27
 926 241 926 241 926 373 c 0,28,29
 926 501 926 501 820.5 576.5 c 128,-1,30
 715 652 715 652 496 645 c 1,31,-1
 498 788 l 1,32,33
 688 775 688 775 795.5 839.5 c 128,-1,34
 903 904 903 904 903 1053 c 0,35,36
 903 1159 903 1159 831.5 1231 c 128,-1,37
 760 1303 760 1303 631 1303 c 0,38,39
 485 1303 485 1303 405.5 1193.5 c 128,-1,40
 326 1084 326 1084 326 874 c 2,41,-1
 330 39 l 1,42,-1
 143 41 l 1,0,1
EndSplineSet
EndChar

StartChar: agrave
Encoding: 224 224 155
Width: 1114
GlyphClass: 1
Flags: W
LayerCount: 2
Fore
SplineSet
446 -33 m 0,0,1
 293 -33 293 -33 197.5 46.5 c 128,-1,2
 102 126 102 126 102 272 c 0,3,4
 102 445 102 445 273.5 542.5 c 128,-1,5
 445 640 445 640 793 653 c 1,6,-1
 793 674 l 2,7,8
 793 793 793 793 735.5 862.5 c 128,-1,9
 678 932 678 932 565 932 c 0,10,11
 466 932 466 932 402 880 c 128,-1,12
 338 828 338 828 303 713 c 1,13,14
 237 738 237 738 141 756 c 1,15,16
 245 1063 245 1063 575 1063 c 0,17,18
 761 1063 761 1063 866 956.5 c 128,-1,19
 971 850 971 850 975 641 c 0,20,21
 979 484 979 484 979.5 315.5 c 128,-1,22
 980 147 980 147 978 57 c 2,23,-1
 977 -33 l 1,24,25
 923 -35 923 -35 823 -37 c 1,26,27
 827 62 827 62 829 209 c 1,28,29
 777 98 777 98 680 32.5 c 128,-1,30
 583 -33 583 -33 446 -33 c 0,0,1
801 469 m 2,31,-1
 801 535 l 1,32,33
 528 520 528 520 406.5 457 c 128,-1,34
 285 394 285 394 285 283 c 0,35,36
 285 201 285 201 338.5 154 c 128,-1,37
 392 107 392 107 489 106 c 0,38,39
 624 104 624 104 712.5 199 c 128,-1,40
 801 294 801 294 801 469 c 2,31,-1
578 1139 m 1,41,42
 482 1253 482 1253 283 1462 c 1,43,44
 324 1491 324 1491 410 1554 c 1,45,46
 504 1423 504 1423 676 1210 c 1,47,48
 652 1194 652 1194 578 1139 c 1,41,42
EndSplineSet
EndChar

StartChar: aacute
Encoding: 225 225 156
Width: 1114
GlyphClass: 1
Flags: W
LayerCount: 2
Fore
SplineSet
446 -33 m 0,0,1
 293 -33 293 -33 197.5 46.5 c 128,-1,2
 102 126 102 126 102 272 c 0,3,4
 102 445 102 445 273.5 542.5 c 128,-1,5
 445 640 445 640 793 653 c 1,6,-1
 793 674 l 2,7,8
 793 793 793 793 735.5 862.5 c 128,-1,9
 678 932 678 932 565 932 c 0,10,11
 466 932 466 932 402 880 c 128,-1,12
 338 828 338 828 303 713 c 1,13,14
 237 738 237 738 141 756 c 1,15,16
 245 1063 245 1063 575 1063 c 0,17,18
 761 1063 761 1063 866 956.5 c 128,-1,19
 971 850 971 850 975 641 c 0,20,21
 979 484 979 484 979.5 315.5 c 128,-1,22
 980 147 980 147 978 57 c 2,23,-1
 977 -33 l 1,24,25
 923 -35 923 -35 823 -37 c 1,26,27
 827 62 827 62 829 209 c 1,28,29
 777 98 777 98 680 32.5 c 128,-1,30
 583 -33 583 -33 446 -33 c 0,0,1
801 469 m 2,31,-1
 801 535 l 1,32,33
 528 520 528 520 406.5 457 c 128,-1,34
 285 394 285 394 285 283 c 0,35,36
 285 201 285 201 338.5 154 c 128,-1,37
 392 107 392 107 489 106 c 0,38,39
 624 104 624 104 712.5 199 c 128,-1,40
 801 294 801 294 801 469 c 2,31,-1
543 1145 m 1,41,-1
 446 1217 l 1,42,43
 523 1313 523 1313 590 1399.5 c 128,-1,44
 657 1486 657 1486 685 1524 c 2,45,-1
 713 1563 l 1,46,-1
 840 1473 l 1,47,48
 752 1380 752 1380 677.5 1298 c 128,-1,49
 603 1216 603 1216 573 1180 c 2,50,-1
 543 1145 l 1,41,-1
EndSplineSet
EndChar

StartChar: acircumflex
Encoding: 226 226 157
Width: 1114
GlyphClass: 1
Flags: W
LayerCount: 2
Fore
SplineSet
446 -33 m 0,0,1
 293 -33 293 -33 197.5 46.5 c 128,-1,2
 102 126 102 126 102 272 c 0,3,4
 102 445 102 445 273.5 542.5 c 128,-1,5
 445 640 445 640 793 653 c 1,6,-1
 793 674 l 2,7,8
 793 793 793 793 735.5 862.5 c 128,-1,9
 678 932 678 932 565 932 c 0,10,11
 466 932 466 932 402 880 c 128,-1,12
 338 828 338 828 303 713 c 1,13,14
 237 738 237 738 141 756 c 1,15,16
 245 1063 245 1063 575 1063 c 0,17,18
 761 1063 761 1063 866 956.5 c 128,-1,19
 971 850 971 850 975 641 c 0,20,21
 979 484 979 484 979.5 315.5 c 128,-1,22
 980 147 980 147 978 57 c 2,23,-1
 977 -33 l 1,24,25
 923 -35 923 -35 823 -37 c 1,26,27
 827 62 827 62 829 209 c 1,28,29
 777 98 777 98 680 32.5 c 128,-1,30
 583 -33 583 -33 446 -33 c 0,0,1
801 469 m 2,31,-1
 801 535 l 1,32,33
 528 520 528 520 406.5 457 c 128,-1,34
 285 394 285 394 285 283 c 0,35,36
 285 201 285 201 338.5 154 c 128,-1,37
 392 107 392 107 489 106 c 0,38,39
 624 104 624 104 712.5 199 c 128,-1,40
 801 294 801 294 801 469 c 2,31,-1
338 1130 m 1,41,42
 305 1161 305 1161 246 1206 c 1,43,44
 352 1323 352 1323 487 1487 c 1,45,46
 537 1485 537 1485 633 1487 c 1,47,48
 723 1378 723 1378 877 1214 c 1,49,50
 847 1194 847 1194 786 1137 c 1,51,52
 688 1249 688 1249 559 1380 c 1,53,54
 479 1304 479 1304 338 1130 c 1,41,42
EndSplineSet
EndChar

StartChar: atilde
Encoding: 227 227 158
Width: 1114
GlyphClass: 1
Flags: W
LayerCount: 2
Fore
SplineSet
446 -33 m 0,0,1
 293 -33 293 -33 197.5 46.5 c 128,-1,2
 102 126 102 126 102 272 c 0,3,4
 102 445 102 445 273.5 542.5 c 128,-1,5
 445 640 445 640 793 653 c 1,6,-1
 793 674 l 2,7,8
 793 793 793 793 735.5 862.5 c 128,-1,9
 678 932 678 932 565 932 c 0,10,11
 466 932 466 932 402 880 c 128,-1,12
 338 828 338 828 303 713 c 1,13,14
 237 738 237 738 141 756 c 1,15,16
 245 1063 245 1063 575 1063 c 0,17,18
 761 1063 761 1063 866 956.5 c 128,-1,19
 971 850 971 850 975 641 c 0,20,21
 979 484 979 484 979.5 315.5 c 128,-1,22
 980 147 980 147 978 57 c 2,23,-1
 977 -33 l 1,24,25
 923 -35 923 -35 823 -37 c 1,26,27
 827 62 827 62 829 209 c 1,28,29
 777 98 777 98 680 32.5 c 128,-1,30
 583 -33 583 -33 446 -33 c 0,0,1
801 469 m 2,31,-1
 801 535 l 1,32,33
 528 520 528 520 406.5 457 c 128,-1,34
 285 394 285 394 285 283 c 0,35,36
 285 201 285 201 338.5 154 c 128,-1,37
 392 107 392 107 489 106 c 0,38,39
 624 104 624 104 712.5 199 c 128,-1,40
 801 294 801 294 801 469 c 2,31,-1
324 1186 m 1,41,42
 283 1198 283 1198 213 1206 c 1,43,44
 218 1326 218 1326 274 1394 c 128,-1,45
 330 1462 330 1462 426 1462 c 0,46,47
 462 1462 462 1462 496 1444.5 c 128,-1,48
 530 1427 530 1427 556 1401.5 c 128,-1,49
 582 1376 582 1376 605.5 1350.5 c 128,-1,50
 629 1325 629 1325 654 1307.5 c 128,-1,51
 679 1290 679 1290 702 1290 c 0,52,53
 741 1290 741 1290 763 1323 c 128,-1,54
 785 1356 785 1356 797 1440 c 1,55,56
 833 1429 833 1429 909 1417 c 1,57,58
 896 1279 896 1279 845 1224 c 128,-1,59
 794 1169 794 1169 705 1169 c 0,60,61
 667 1169 667 1169 631 1186.5 c 128,-1,62
 595 1204 595 1204 567.5 1229.5 c 128,-1,63
 540 1255 540 1255 515.5 1280.5 c 128,-1,64
 491 1306 491 1306 465.5 1323.5 c 128,-1,65
 440 1341 440 1341 418 1341 c 0,66,67
 339 1341 339 1341 324 1186 c 1,41,42
EndSplineSet
EndChar

StartChar: adieresis
Encoding: 228 228 159
Width: 1114
GlyphClass: 1
Flags: W
LayerCount: 2
Fore
SplineSet
446 -33 m 0,0,1
 293 -33 293 -33 197.5 46.5 c 128,-1,2
 102 126 102 126 102 272 c 0,3,4
 102 445 102 445 273.5 542.5 c 128,-1,5
 445 640 445 640 793 653 c 1,6,-1
 793 674 l 2,7,8
 793 793 793 793 735.5 862.5 c 128,-1,9
 678 932 678 932 565 932 c 0,10,11
 466 932 466 932 402 880 c 128,-1,12
 338 828 338 828 303 713 c 1,13,14
 237 738 237 738 141 756 c 1,15,16
 245 1063 245 1063 575 1063 c 0,17,18
 761 1063 761 1063 866 956.5 c 128,-1,19
 971 850 971 850 975 641 c 0,20,21
 979 484 979 484 979.5 315.5 c 128,-1,22
 980 147 980 147 978 57 c 2,23,-1
 977 -33 l 1,24,25
 923 -35 923 -35 823 -37 c 1,26,27
 827 62 827 62 829 209 c 1,28,29
 777 98 777 98 680 32.5 c 128,-1,30
 583 -33 583 -33 446 -33 c 0,0,1
801 469 m 2,31,-1
 801 535 l 1,32,33
 528 520 528 520 406.5 457 c 128,-1,34
 285 394 285 394 285 283 c 0,35,36
 285 201 285 201 338.5 154 c 128,-1,37
 392 107 392 107 489 106 c 0,38,39
 624 104 624 104 712.5 199 c 128,-1,40
 801 294 801 294 801 469 c 2,31,-1
379 1192 m 0,41,42
 329 1192 329 1192 296.5 1225 c 128,-1,43
 264 1258 264 1258 264 1311 c 0,44,45
 264 1362 264 1362 298 1391.5 c 128,-1,46
 332 1421 332 1421 381 1421 c 0,47,48
 436 1421 436 1421 467 1387 c 128,-1,49
 498 1353 498 1353 498 1307 c 0,50,51
 498 1253 498 1253 465.5 1222.5 c 128,-1,52
 433 1192 433 1192 379 1192 c 0,41,42
750 1194 m 0,53,54
 701 1194 701 1194 669 1226.5 c 128,-1,55
 637 1259 637 1259 637 1313 c 0,56,57
 637 1359 637 1359 669.5 1390 c 128,-1,58
 702 1421 702 1421 752 1421 c 0,59,60
 798 1421 798 1421 829 1391 c 128,-1,61
 860 1361 860 1361 860 1309 c 128,-1,62
 860 1257 860 1257 830 1225.5 c 128,-1,63
 800 1194 800 1194 750 1194 c 0,53,54
EndSplineSet
EndChar

StartChar: aring
Encoding: 229 229 160
Width: 1114
GlyphClass: 1
Flags: W
LayerCount: 2
Fore
SplineSet
446 -33 m 0,0,1
 293 -33 293 -33 197.5 46.5 c 128,-1,2
 102 126 102 126 102 272 c 0,3,4
 102 445 102 445 273.5 542.5 c 128,-1,5
 445 640 445 640 793 653 c 1,6,-1
 793 674 l 2,7,8
 793 793 793 793 735.5 862.5 c 128,-1,9
 678 932 678 932 565 932 c 0,10,11
 466 932 466 932 402 880 c 128,-1,12
 338 828 338 828 303 713 c 1,13,14
 237 738 237 738 141 756 c 1,15,16
 245 1063 245 1063 575 1063 c 0,17,18
 761 1063 761 1063 866 956.5 c 128,-1,19
 971 850 971 850 975 641 c 0,20,21
 979 484 979 484 979.5 315.5 c 128,-1,22
 980 147 980 147 978 57 c 2,23,-1
 977 -33 l 1,24,25
 923 -35 923 -35 823 -37 c 1,26,27
 827 62 827 62 829 209 c 1,28,29
 777 98 777 98 680 32.5 c 128,-1,30
 583 -33 583 -33 446 -33 c 0,0,1
801 469 m 2,31,-1
 801 535 l 1,32,33
 528 520 528 520 406.5 457 c 128,-1,34
 285 394 285 394 285 283 c 0,35,36
 285 201 285 201 338.5 154 c 128,-1,37
 392 107 392 107 489 106 c 0,38,39
 624 104 624 104 712.5 199 c 128,-1,40
 801 294 801 294 801 469 c 2,31,-1
557 1139 m 0,41,42
 452 1139 452 1139 388 1201.5 c 128,-1,43
 324 1264 324 1264 324 1356 c 128,-1,44
 324 1448 324 1448 388.5 1509.5 c 128,-1,45
 453 1571 453 1571 557 1571 c 0,46,47
 674 1571 674 1571 736.5 1508 c 128,-1,48
 799 1445 799 1445 799 1356 c 0,49,50
 799 1259 799 1259 731 1199 c 128,-1,51
 663 1139 663 1139 557 1139 c 0,41,42
561 1225 m 0,52,53
 623 1225 623 1225 659.5 1259 c 128,-1,54
 696 1293 696 1293 696 1356 c 0,55,56
 696 1416 696 1416 662 1452.5 c 128,-1,57
 628 1489 628 1489 563 1489 c 128,-1,58
 498 1489 498 1489 463 1452.5 c 128,-1,59
 428 1416 428 1416 428 1358 c 0,60,61
 428 1301 428 1301 463 1263 c 128,-1,62
 498 1225 498 1225 561 1225 c 0,52,53
EndSplineSet
EndChar

StartChar: ae
Encoding: 230 230 161
Width: 1802
GlyphClass: 1
Flags: W
LayerCount: 2
Fore
SplineSet
1270 -45 m 0,0,1
 1121 -45 1121 -45 1020 27.5 c 128,-1,2
 919 100 919 100 877 231 c 1,3,4
 828 103 828 103 720 34 c 128,-1,5
 612 -35 612 -35 469 -35 c 0,6,7
 293 -35 293 -35 197.5 46 c 128,-1,8
 102 127 102 127 102 264 c 0,9,10
 102 421 102 421 280 513 c 128,-1,11
 458 605 458 605 795 608 c 1,12,-1
 795 641 l 2,13,14
 795 769 795 769 737.5 846.5 c 128,-1,15
 680 924 680 924 557 924 c 0,16,17
 459 924 459 924 402 869.5 c 128,-1,18
 345 815 345 815 311 713 c 1,19,20
 258 735 258 735 152 762 c 1,21,22
 194 900 194 900 305 981.5 c 128,-1,23
 416 1063 416 1063 553 1063 c 0,24,25
 689 1063 689 1063 780.5 1004 c 128,-1,26
 872 945 872 945 913 840 c 1,27,28
 967 940 967 940 1061 999.5 c 128,-1,29
 1155 1059 1155 1059 1282 1059 c 0,30,31
 1431 1059 1431 1059 1529.5 982.5 c 128,-1,32
 1628 906 1628 906 1666.5 781 c 128,-1,33
 1705 656 1705 656 1690 496 c 1,34,35
 1519 497 1519 497 975 483 c 1,36,37
 982 300 982 300 1061 197 c 128,-1,38
 1140 94 1140 94 1268 94 c 0,39,40
 1468 94 1468 94 1540 315 c 1,41,42
 1571 301 1571 301 1696 264 c 1,43,44
 1672 185 1672 185 1626 124 c 128,-1,45
 1580 63 1580 63 1521.5 27 c 128,-1,46
 1463 -9 1463 -9 1399.5 -27 c 128,-1,47
 1336 -45 1336 -45 1270 -45 c 0,0,1
498 102 m 0,48,49
 627 102 627 102 714 196.5 c 128,-1,50
 801 291 801 291 801 455 c 2,51,-1
 801 483 l 1,52,53
 650 479 650 479 547 461.5 c 128,-1,54
 444 444 444 444 388 414 c 128,-1,55
 332 384 332 384 308.5 346.5 c 128,-1,56
 285 309 285 309 285 258 c 0,57,58
 285 191 285 191 339.5 146.5 c 128,-1,59
 394 102 394 102 498 102 c 0,48,49
1276 926 m 0,60,61
 1152 926 1152 926 1076 839.5 c 128,-1,62
 1000 753 1000 753 981 608 c 1,63,64
 1118 608 1118 608 1526 623 c 1,65,66
 1524 754 1524 754 1457.5 840 c 128,-1,67
 1391 926 1391 926 1276 926 c 0,60,61
EndSplineSet
EndChar

StartChar: ccedilla
Encoding: 231 231 162
Width: 1132
GlyphClass: 1
Flags: W
LayerCount: 2
Fore
SplineSet
1030 330 m 1,0,1
 992 151 992 151 896 60 c 128,-1,2
 800 -31 800 -31 639 -43 c 1,3,-1
 633 -137 l 1,4,5
 739 -137 739 -137 793.5 -181 c 128,-1,6
 848 -225 848 -225 848 -285 c 0,7,8
 848 -366 848 -366 774 -413.5 c 128,-1,9
 700 -461 700 -461 578 -461 c 0,10,11
 528 -461 528 -461 469.5 -445 c 128,-1,12
 411 -429 411 -429 367 -403 c 1,13,14
 386 -364 386 -364 406 -307 c 1,15,16
 492 -358 492 -358 578 -358 c 0,17,18
 631 -358 631 -358 665.5 -339 c 128,-1,19
 700 -320 700 -320 700 -287 c 0,20,21
 700 -204 700 -204 504 -227 c 1,22,23
 519 -160 519 -160 537 -43 c 1,24,25
 329 -23 329 -23 220.5 128.5 c 128,-1,26
 112 280 112 280 115 510 c 0,27,28
 115 748 115 748 243 903.5 c 128,-1,29
 371 1059 371 1059 588 1059 c 0,30,31
 770 1059 770 1059 876.5 964.5 c 128,-1,32
 983 870 983 870 1020 698 c 1,33,34
 972 694 972 694 927 687 c 128,-1,35
 882 680 882 680 861 675 c 2,36,-1
 840 670 l 1,37,38
 814 785 814 785 755.5 850 c 128,-1,39
 697 915 697 915 586 915 c 0,40,41
 445 915 445 915 370 803 c 128,-1,42
 295 691 295 691 295 506 c 0,43,44
 295 318 295 318 370 209 c 128,-1,45
 445 100 445 100 588 100 c 0,46,47
 694 100 694 100 758 160 c 128,-1,48
 822 220 822 220 858 360 c 1,49,50
 907 346 907 346 1030 330 c 1,0,1
EndSplineSet
EndChar

StartChar: egrave
Encoding: 232 232 163
Width: 1138
GlyphClass: 1
Flags: W
LayerCount: 2
Fore
SplineSet
584 -43 m 0,0,1
 466 -43 466 -43 374.5 0.5 c 128,-1,2
 283 44 283 44 227 120.5 c 128,-1,3
 171 197 171 197 142.5 296 c 128,-1,4
 114 395 114 395 115 512 c 0,5,6
 115 664 115 664 170.5 786.5 c 128,-1,7
 226 909 226 909 338.5 984 c 128,-1,8
 451 1059 451 1059 604 1059 c 0,9,10
 718 1058 718 1058 806 1009 c 128,-1,11
 894 960 894 960 943.5 879.5 c 128,-1,12
 993 799 993 799 1011 698 c 128,-1,13
 1029 597 1029 597 1012 489 c 1,14,15
 798 487 798 487 299 471 c 1,16,17
 307 297 307 297 382 196.5 c 128,-1,18
 457 96 457 96 590 96 c 0,19,20
 797 96 797 96 868 322 c 1,21,22
 903 308 903 308 1032 279 c 1,23,24
 978 126 978 126 865 41.5 c 128,-1,25
 752 -43 752 -43 584 -43 c 0,0,1
596 924 m 0,26,27
 475 924 475 924 399.5 839 c 128,-1,28
 324 754 324 754 305 606 c 1,29,30
 310 606 310 606 846 629 c 1,31,32
 843 755 843 755 778 839.5 c 128,-1,33
 713 924 713 924 596 924 c 0,26,27
590 1139 m 1,34,35
 494 1253 494 1253 295 1462 c 1,36,37
 336 1491 336 1491 422 1554 c 1,38,39
 516 1423 516 1423 688 1210 c 1,40,41
 664 1194 664 1194 590 1139 c 1,34,35
EndSplineSet
EndChar

StartChar: eacute
Encoding: 233 233 164
Width: 1138
GlyphClass: 1
Flags: W
LayerCount: 2
Fore
SplineSet
584 -43 m 0,0,1
 466 -43 466 -43 374.5 0.5 c 128,-1,2
 283 44 283 44 227 120.5 c 128,-1,3
 171 197 171 197 142.5 296 c 128,-1,4
 114 395 114 395 115 512 c 0,5,6
 115 664 115 664 170.5 786.5 c 128,-1,7
 226 909 226 909 338.5 984 c 128,-1,8
 451 1059 451 1059 604 1059 c 0,9,10
 718 1058 718 1058 806 1009 c 128,-1,11
 894 960 894 960 943.5 879.5 c 128,-1,12
 993 799 993 799 1011 698 c 128,-1,13
 1029 597 1029 597 1012 489 c 1,14,15
 798 487 798 487 299 471 c 1,16,17
 307 297 307 297 382 196.5 c 128,-1,18
 457 96 457 96 590 96 c 0,19,20
 797 96 797 96 868 322 c 1,21,22
 903 308 903 308 1032 279 c 1,23,24
 978 126 978 126 865 41.5 c 128,-1,25
 752 -43 752 -43 584 -43 c 0,0,1
596 924 m 0,26,27
 475 924 475 924 399.5 839 c 128,-1,28
 324 754 324 754 305 606 c 1,29,30
 310 606 310 606 846 629 c 1,31,32
 843 755 843 755 778 839.5 c 128,-1,33
 713 924 713 924 596 924 c 0,26,27
555 1145 m 1,34,-1
 459 1217 l 1,35,36
 536 1313 536 1313 602.5 1399.5 c 128,-1,37
 669 1486 669 1486 697 1524 c 2,38,-1
 725 1563 l 1,39,-1
 852 1473 l 1,40,41
 764 1380 764 1380 689.5 1298 c 128,-1,42
 615 1216 615 1216 585 1180 c 2,43,-1
 555 1145 l 1,34,-1
EndSplineSet
EndChar

StartChar: ecircumflex
Encoding: 234 234 165
Width: 1138
GlyphClass: 1
Flags: W
LayerCount: 2
Fore
SplineSet
584 -43 m 0,0,1
 466 -43 466 -43 374.5 0.5 c 128,-1,2
 283 44 283 44 227 120.5 c 128,-1,3
 171 197 171 197 142.5 296 c 128,-1,4
 114 395 114 395 115 512 c 0,5,6
 115 664 115 664 170.5 786.5 c 128,-1,7
 226 909 226 909 338.5 984 c 128,-1,8
 451 1059 451 1059 604 1059 c 0,9,10
 718 1058 718 1058 806 1009 c 128,-1,11
 894 960 894 960 943.5 879.5 c 128,-1,12
 993 799 993 799 1011 698 c 128,-1,13
 1029 597 1029 597 1012 489 c 1,14,15
 798 487 798 487 299 471 c 1,16,17
 307 297 307 297 382 196.5 c 128,-1,18
 457 96 457 96 590 96 c 0,19,20
 797 96 797 96 868 322 c 1,21,22
 903 308 903 308 1032 279 c 1,23,24
 978 126 978 126 865 41.5 c 128,-1,25
 752 -43 752 -43 584 -43 c 0,0,1
596 924 m 0,26,27
 475 924 475 924 399.5 839 c 128,-1,28
 324 754 324 754 305 606 c 1,29,30
 310 606 310 606 846 629 c 1,31,32
 843 755 843 755 778 839.5 c 128,-1,33
 713 924 713 924 596 924 c 0,26,27
350 1130 m 1,34,35
 317 1161 317 1161 258 1206 c 1,36,37
 365 1323 365 1323 500 1487 c 1,38,39
 549 1485 549 1485 645 1487 c 1,40,41
 735 1378 735 1378 889 1214 c 1,42,43
 860 1194 860 1194 799 1137 c 1,44,45
 700 1249 700 1249 571 1380 c 1,46,47
 491 1304 491 1304 350 1130 c 1,34,35
EndSplineSet
EndChar

StartChar: edieresis
Encoding: 235 235 166
Width: 1138
GlyphClass: 1
Flags: W
LayerCount: 2
Fore
SplineSet
584 -43 m 0,0,1
 466 -43 466 -43 374.5 0.5 c 128,-1,2
 283 44 283 44 227 120.5 c 128,-1,3
 171 197 171 197 142.5 296 c 128,-1,4
 114 395 114 395 115 512 c 0,5,6
 115 664 115 664 170.5 786.5 c 128,-1,7
 226 909 226 909 338.5 984 c 128,-1,8
 451 1059 451 1059 604 1059 c 0,9,10
 718 1058 718 1058 806 1009 c 128,-1,11
 894 960 894 960 943.5 879.5 c 128,-1,12
 993 799 993 799 1011 698 c 128,-1,13
 1029 597 1029 597 1012 489 c 1,14,15
 798 487 798 487 299 471 c 1,16,17
 307 297 307 297 382 196.5 c 128,-1,18
 457 96 457 96 590 96 c 0,19,20
 797 96 797 96 868 322 c 1,21,22
 903 308 903 308 1032 279 c 1,23,24
 978 126 978 126 865 41.5 c 128,-1,25
 752 -43 752 -43 584 -43 c 0,0,1
596 924 m 0,26,27
 475 924 475 924 399.5 839 c 128,-1,28
 324 754 324 754 305 606 c 1,29,30
 310 606 310 606 846 629 c 1,31,32
 843 755 843 755 778 839.5 c 128,-1,33
 713 924 713 924 596 924 c 0,26,27
391 1192 m 0,34,35
 341 1192 341 1192 308.5 1225 c 128,-1,36
 276 1258 276 1258 276 1311 c 0,37,38
 276 1362 276 1362 310 1391.5 c 128,-1,39
 344 1421 344 1421 393 1421 c 0,40,41
 448 1421 448 1421 479 1387 c 128,-1,42
 510 1353 510 1353 510 1307 c 0,43,44
 510 1253 510 1253 477.5 1222.5 c 128,-1,45
 445 1192 445 1192 391 1192 c 0,34,35
762 1194 m 0,46,47
 713 1194 713 1194 681 1226.5 c 128,-1,48
 649 1259 649 1259 649 1313 c 0,49,50
 649 1359 649 1359 681.5 1390 c 128,-1,51
 714 1421 714 1421 764 1421 c 0,52,53
 810 1421 810 1421 841 1391 c 128,-1,54
 872 1361 872 1361 872 1309 c 128,-1,55
 872 1257 872 1257 842 1225.5 c 128,-1,56
 812 1194 812 1194 762 1194 c 0,46,47
EndSplineSet
EndChar

StartChar: igrave
Encoding: 236 236 167
Width: 534
GlyphClass: 1
Flags: W
LayerCount: 2
Fore
SplineSet
184 4 m 1,0,1
 188 275 188 275 180 1026 c 1,2,3
 252 1026 252 1026 356 1028 c 1,4,5
 357 632 357 632 365 6 c 1,6,7
 288 6 288 6 184 4 c 1,0,1
289 1139 m 1,8,9
 193 1253 193 1253 -6 1462 c 1,10,11
 35 1491 35 1491 121 1554 c 1,12,13
 215 1423 215 1423 387 1210 c 1,14,15
 363 1194 363 1194 289 1139 c 1,8,9
EndSplineSet
EndChar

StartChar: iacute
Encoding: 237 237 168
Width: 534
GlyphClass: 1
Flags: W
LayerCount: 2
Fore
SplineSet
184 4 m 1,0,1
 188 275 188 275 180 1026 c 1,2,3
 252 1026 252 1026 356 1028 c 1,4,5
 357 632 357 632 365 6 c 1,6,7
 288 6 288 6 184 4 c 1,0,1
254 1145 m 1,8,-1
 158 1217 l 1,9,10
 235 1313 235 1313 301.5 1399.5 c 128,-1,11
 368 1486 368 1486 396 1524 c 2,12,-1
 424 1563 l 1,13,-1
 551 1473 l 1,14,15
 463 1380 463 1380 388.5 1298 c 128,-1,16
 314 1216 314 1216 284 1180 c 2,17,-1
 254 1145 l 1,8,-1
EndSplineSet
EndChar

StartChar: icircumflex
Encoding: 238 238 169
Width: 534
GlyphClass: 1
Flags: W
LayerCount: 2
Fore
SplineSet
184 4 m 1,0,1
 188 275 188 275 180 1026 c 1,2,3
 252 1026 252 1026 356 1028 c 1,4,5
 357 632 357 632 365 6 c 1,6,7
 288 6 288 6 184 4 c 1,0,1
49 1130 m 1,8,9
 16 1161 16 1161 -43 1206 c 1,10,11
 64 1323 64 1323 199 1487 c 1,12,13
 248 1485 248 1485 344 1487 c 1,14,15
 434 1378 434 1378 588 1214 c 1,16,17
 559 1194 559 1194 498 1137 c 1,18,19
 399 1249 399 1249 270 1380 c 1,20,21
 190 1304 190 1304 49 1130 c 1,8,9
EndSplineSet
EndChar

StartChar: idieresis
Encoding: 239 239 170
Width: 534
GlyphClass: 1
Flags: W
LayerCount: 2
Fore
SplineSet
184 4 m 1,0,1
 188 275 188 275 180 1026 c 1,2,3
 252 1026 252 1026 356 1028 c 1,4,5
 357 632 357 632 365 6 c 1,6,7
 288 6 288 6 184 4 c 1,0,1
90 1192 m 0,8,9
 40 1192 40 1192 7.5 1225 c 128,-1,10
 -25 1258 -25 1258 -25 1311 c 0,11,12
 -25 1362 -25 1362 9 1391.5 c 128,-1,13
 43 1421 43 1421 92 1421 c 0,14,15
 147 1421 147 1421 178 1387 c 128,-1,16
 209 1353 209 1353 209 1307 c 0,17,18
 209 1253 209 1253 176.5 1222.5 c 128,-1,19
 144 1192 144 1192 90 1192 c 0,8,9
461 1194 m 0,20,21
 412 1194 412 1194 380 1226.5 c 128,-1,22
 348 1259 348 1259 348 1313 c 0,23,24
 348 1359 348 1359 380.5 1390 c 128,-1,25
 413 1421 413 1421 463 1421 c 0,26,27
 509 1421 509 1421 540 1391 c 128,-1,28
 571 1361 571 1361 571 1309 c 128,-1,29
 571 1257 571 1257 541 1225.5 c 128,-1,30
 511 1194 511 1194 461 1194 c 0,20,21
EndSplineSet
EndChar

StartChar: eth
Encoding: 240 240 171
Width: 1187
GlyphClass: 1
Flags: W
LayerCount: 2
Fore
SplineSet
592 -43 m 0,0,1
 371 -43 371 -43 242 112.5 c 128,-1,2
 113 268 113 268 113 522 c 0,3,4
 113 664 113 664 165.5 785.5 c 128,-1,5
 218 907 218 907 319 982 c 128,-1,6
 420 1057 420 1057 549 1057 c 0,7,8
 657 1057 657 1057 756 980 c 128,-1,9
 855 903 855 903 901 786 c 1,10,11
 871 1032 871 1032 743 1176 c 1,12,-1
 670 1104 l 1,13,14
 643 1133 643 1133 590 1180 c 1,15,16
 623 1212 623 1212 664 1257 c 1,17,18
 625 1290 625 1290 530 1354 c 1,19,20
 567 1398 567 1398 614 1466 c 1,21,22
 700 1416 700 1416 760 1364 c 1,23,24
 774 1379 774 1379 789 1396 c 128,-1,25
 804 1413 804 1413 821.5 1433.5 c 128,-1,26
 839 1454 839 1454 850 1466 c 1,27,28
 876 1437 876 1437 944 1374 c 1,29,-1
 848 1278 l 1,30,31
 1075 1015 1075 1015 1075 571 c 0,32,33
 1075 417 1075 417 1035.5 297 c 128,-1,34
 996 177 996 177 928 104 c 128,-1,35
 860 31 860 31 775 -6 c 128,-1,36
 690 -43 690 -43 592 -43 c 0,0,1
598 94 m 0,37,38
 726 94 726 94 809.5 203.5 c 128,-1,39
 893 313 893 313 893 520 c 0,40,41
 893 615 893 615 855 706.5 c 128,-1,42
 817 798 817 798 743.5 860 c 128,-1,43
 670 922 670 922 580 922 c 0,44,45
 463 922 463 922 379 809 c 128,-1,46
 295 696 295 696 295 512 c 0,47,48
 295 332 295 332 379.5 213 c 128,-1,49
 464 94 464 94 598 94 c 0,37,38
EndSplineSet
EndChar

StartChar: ntilde
Encoding: 241 241 172
Width: 1142
GlyphClass: 1
Flags: W
LayerCount: 2
Fore
SplineSet
829 -45 m 1,0,-1
 831 618 l 2,1,2
 831 754 831 754 788 825.5 c 128,-1,3
 745 897 745 897 637 897 c 0,4,5
 550 897 550 897 477.5 837 c 128,-1,6
 405 777 405 777 365 679 c 128,-1,7
 325 581 325 581 324 469 c 0,8,9
 322 405 322 405 322 298 c 128,-1,10
 322 191 322 191 323 116 c 2,11,-1
 324 41 l 1,12,13
 227 43 227 43 143 41 c 1,14,15
 144 83 144 83 144.5 159 c 128,-1,16
 145 235 145 235 146 489 c 128,-1,17
 147 743 147 743 145 995 c 1,18,19
 225 993 225 993 297 997 c 1,20,21
 296 983 296 983 295 958 c 128,-1,22
 294 933 294 933 293 865 c 128,-1,23
 292 797 292 797 293 741 c 1,24,25
 345 888 345 888 454 970.5 c 128,-1,26
 563 1053 563 1053 694 1051 c 0,27,28
 777 1051 777 1051 838 1022 c 128,-1,29
 899 993 899 993 934 940.5 c 128,-1,30
 969 888 969 888 986.5 823 c 128,-1,31
 1004 758 1004 758 1006 676 c 2,32,-1
 1010 -43 l 1,33,-1
 829 -45 l 1,0,-1
358 1186 m 1,34,35
 318 1198 318 1198 248 1206 c 1,36,37
 253 1326 253 1326 309 1394 c 128,-1,38
 365 1462 365 1462 461 1462 c 0,39,40
 497 1462 497 1462 531 1444.5 c 128,-1,41
 565 1427 565 1427 591 1401.5 c 128,-1,42
 617 1376 617 1376 640.5 1350.5 c 128,-1,43
 664 1325 664 1325 689 1307.5 c 128,-1,44
 714 1290 714 1290 737 1290 c 0,45,46
 775 1290 775 1290 797 1322.5 c 128,-1,47
 819 1355 819 1355 831 1440 c 1,48,49
 868 1429 868 1429 944 1417 c 1,50,51
 931 1279 931 1279 879.5 1224 c 128,-1,52
 828 1169 828 1169 739 1169 c 0,53,54
 701 1169 701 1169 665 1186.5 c 128,-1,55
 629 1204 629 1204 602 1229.5 c 128,-1,56
 575 1255 575 1255 550.5 1280.5 c 128,-1,57
 526 1306 526 1306 500.5 1323.5 c 128,-1,58
 475 1341 475 1341 453 1341 c 0,59,60
 373 1341 373 1341 358 1186 c 1,34,35
EndSplineSet
EndChar

StartChar: ograve
Encoding: 242 242 173
Width: 1187
GlyphClass: 1
Flags: W
LayerCount: 2
Fore
SplineSet
592 -41 m 0,0,1
 366 -41 366 -41 239.5 107.5 c 128,-1,2
 113 256 113 256 113 516 c 0,3,4
 113 761 113 761 245 910 c 128,-1,5
 377 1059 377 1059 594 1059 c 0,6,7
 814 1059 814 1059 944.5 911 c 128,-1,8
 1075 763 1075 763 1075 514 c 0,9,10
 1075 249 1075 249 942 104 c 128,-1,11
 809 -41 809 -41 592 -41 c 0,0,1
594 96 m 0,12,13
 728 96 728 96 809 204 c 128,-1,14
 890 312 890 312 891 514 c 0,15,16
 891 696 891 696 815 809 c 128,-1,17
 739 922 739 922 596 922 c 0,18,19
 465 922 465 922 381 812 c 128,-1,20
 297 702 297 702 297 520 c 0,21,22
 297 310 297 310 377 203 c 128,-1,23
 457 96 457 96 594 96 c 0,12,13
610 1139 m 1,24,25
 514 1253 514 1253 315 1462 c 1,26,27
 356 1491 356 1491 442 1554 c 1,28,29
 537 1423 537 1423 709 1210 c 1,30,31
 684 1194 684 1194 610 1139 c 1,24,25
EndSplineSet
EndChar

StartChar: oacute
Encoding: 243 243 174
Width: 1187
GlyphClass: 1
Flags: W
LayerCount: 2
Fore
SplineSet
592 -41 m 0,0,1
 366 -41 366 -41 239.5 107.5 c 128,-1,2
 113 256 113 256 113 516 c 0,3,4
 113 761 113 761 245 910 c 128,-1,5
 377 1059 377 1059 594 1059 c 0,6,7
 814 1059 814 1059 944.5 911 c 128,-1,8
 1075 763 1075 763 1075 514 c 0,9,10
 1075 249 1075 249 942 104 c 128,-1,11
 809 -41 809 -41 592 -41 c 0,0,1
594 96 m 0,12,13
 728 96 728 96 809 204 c 128,-1,14
 890 312 890 312 891 514 c 0,15,16
 891 696 891 696 815 809 c 128,-1,17
 739 922 739 922 596 922 c 0,18,19
 465 922 465 922 381 812 c 128,-1,20
 297 702 297 702 297 520 c 0,21,22
 297 310 297 310 377 203 c 128,-1,23
 457 96 457 96 594 96 c 0,12,13
575 1145 m 1,24,-1
 479 1217 l 1,25,26
 556 1313 556 1313 622.5 1399.5 c 128,-1,27
 689 1486 689 1486 717 1524 c 2,28,-1
 745 1563 l 1,29,-1
 872 1473 l 1,30,31
 784 1380 784 1380 709.5 1298 c 128,-1,32
 635 1216 635 1216 605 1180 c 2,33,-1
 575 1145 l 1,24,-1
EndSplineSet
EndChar

StartChar: ocircumflex
Encoding: 244 244 175
Width: 1187
GlyphClass: 1
Flags: W
LayerCount: 2
Fore
SplineSet
592 -41 m 0,0,1
 366 -41 366 -41 239.5 107.5 c 128,-1,2
 113 256 113 256 113 516 c 0,3,4
 113 761 113 761 245 910 c 128,-1,5
 377 1059 377 1059 594 1059 c 0,6,7
 814 1059 814 1059 944.5 911 c 128,-1,8
 1075 763 1075 763 1075 514 c 0,9,10
 1075 249 1075 249 942 104 c 128,-1,11
 809 -41 809 -41 592 -41 c 0,0,1
594 96 m 0,12,13
 728 96 728 96 809 204 c 128,-1,14
 890 312 890 312 891 514 c 0,15,16
 891 696 891 696 815 809 c 128,-1,17
 739 922 739 922 596 922 c 0,18,19
 465 922 465 922 381 812 c 128,-1,20
 297 702 297 702 297 520 c 0,21,22
 297 310 297 310 377 203 c 128,-1,23
 457 96 457 96 594 96 c 0,12,13
371 1130 m 1,24,25
 338 1161 338 1161 279 1206 c 1,26,27
 385 1323 385 1323 520 1487 c 1,28,29
 570 1485 570 1485 666 1487 c 1,30,31
 755 1378 755 1378 909 1214 c 1,32,33
 880 1194 880 1194 819 1137 c 1,34,35
 721 1249 721 1249 592 1380 c 1,36,37
 512 1304 512 1304 371 1130 c 1,24,25
EndSplineSet
EndChar

StartChar: otilde
Encoding: 245 245 176
Width: 1187
GlyphClass: 1
Flags: W
LayerCount: 2
Fore
SplineSet
592 -41 m 0,0,1
 366 -41 366 -41 239.5 107.5 c 128,-1,2
 113 256 113 256 113 516 c 0,3,4
 113 761 113 761 245 910 c 128,-1,5
 377 1059 377 1059 594 1059 c 0,6,7
 814 1059 814 1059 944.5 911 c 128,-1,8
 1075 763 1075 763 1075 514 c 0,9,10
 1075 249 1075 249 942 104 c 128,-1,11
 809 -41 809 -41 592 -41 c 0,0,1
594 96 m 0,12,13
 728 96 728 96 809 204 c 128,-1,14
 890 312 890 312 891 514 c 0,15,16
 891 696 891 696 815 809 c 128,-1,17
 739 922 739 922 596 922 c 0,18,19
 465 922 465 922 381 812 c 128,-1,20
 297 702 297 702 297 520 c 0,21,22
 297 310 297 310 377 203 c 128,-1,23
 457 96 457 96 594 96 c 0,12,13
356 1186 m 1,24,25
 316 1198 316 1198 246 1206 c 1,26,27
 251 1326 251 1326 307 1394 c 128,-1,28
 363 1462 363 1462 459 1462 c 0,29,30
 495 1462 495 1462 529 1444.5 c 128,-1,31
 563 1427 563 1427 589 1401.5 c 128,-1,32
 615 1376 615 1376 638.5 1350.5 c 128,-1,33
 662 1325 662 1325 687 1307.5 c 128,-1,34
 712 1290 712 1290 735 1290 c 0,35,36
 773 1290 773 1290 795 1322.5 c 128,-1,37
 817 1355 817 1355 829 1440 c 1,38,39
 866 1429 866 1429 942 1417 c 1,40,41
 929 1279 929 1279 877.5 1224 c 128,-1,42
 826 1169 826 1169 737 1169 c 0,43,44
 699 1169 699 1169 663 1186.5 c 128,-1,45
 627 1204 627 1204 600 1229.5 c 128,-1,46
 573 1255 573 1255 548.5 1280.5 c 128,-1,47
 524 1306 524 1306 498.5 1323.5 c 128,-1,48
 473 1341 473 1341 451 1341 c 0,49,50
 371 1341 371 1341 356 1186 c 1,24,25
EndSplineSet
EndChar

StartChar: odieresis
Encoding: 246 246 177
Width: 1187
GlyphClass: 1
Flags: W
LayerCount: 2
Fore
SplineSet
592 -41 m 0,0,1
 366 -41 366 -41 239.5 107.5 c 128,-1,2
 113 256 113 256 113 516 c 0,3,4
 113 761 113 761 245 910 c 128,-1,5
 377 1059 377 1059 594 1059 c 0,6,7
 814 1059 814 1059 944.5 911 c 128,-1,8
 1075 763 1075 763 1075 514 c 0,9,10
 1075 249 1075 249 942 104 c 128,-1,11
 809 -41 809 -41 592 -41 c 0,0,1
594 96 m 0,12,13
 728 96 728 96 809 204 c 128,-1,14
 890 312 890 312 891 514 c 0,15,16
 891 696 891 696 815 809 c 128,-1,17
 739 922 739 922 596 922 c 0,18,19
 465 922 465 922 381 812 c 128,-1,20
 297 702 297 702 297 520 c 0,21,22
 297 310 297 310 377 203 c 128,-1,23
 457 96 457 96 594 96 c 0,12,13
412 1192 m 0,24,25
 362 1192 362 1192 329.5 1225 c 128,-1,26
 297 1258 297 1258 297 1311 c 0,27,28
 297 1362 297 1362 331 1391.5 c 128,-1,29
 365 1421 365 1421 414 1421 c 0,30,31
 469 1421 469 1421 499.5 1387 c 128,-1,32
 530 1353 530 1353 530 1307 c 0,33,34
 530 1253 530 1253 498 1222.5 c 128,-1,35
 466 1192 466 1192 412 1192 c 0,24,25
782 1194 m 0,36,37
 734 1194 734 1194 702 1226.5 c 128,-1,38
 670 1259 670 1259 670 1313 c 0,39,40
 670 1359 670 1359 702 1390 c 128,-1,41
 734 1421 734 1421 784 1421 c 0,42,43
 830 1421 830 1421 861.5 1391 c 128,-1,44
 893 1361 893 1361 893 1309 c 0,45,46
 893 1258 893 1258 863 1226 c 128,-1,47
 833 1194 833 1194 782 1194 c 0,36,37
EndSplineSet
EndChar

StartChar: divide
Encoding: 247 247 178
Width: 1058
GlyphClass: 1
Flags: W
LayerCount: 2
Fore
SplineSet
104 750 m 1,0,1
 240 748 240 748 398.5 747.5 c 128,-1,2
 557 747 557 747 664 747.5 c 128,-1,3
 771 748 771 748 862.5 749 c 128,-1,4
 954 750 954 750 956 750 c 1,5,-1
 956 596 l 1,6,7
 855 598 855 598 734 599 c 128,-1,8
 613 600 613 600 507.5 600 c 128,-1,9
 402 600 402 600 316.5 599.5 c 128,-1,10
 231 599 231 599 168.5 598.5 c 128,-1,11
 106 598 106 598 102 598 c 1,12,-1
 104 750 l 1,0,1
526 1180 m 0,13,14
 577 1180 577 1180 610 1143.5 c 128,-1,15
 643 1107 643 1107 643 1049 c 0,16,17
 643 990 643 990 610.5 954 c 128,-1,18
 578 918 578 918 524 918 c 0,19,20
 468 918 468 918 438 952.5 c 128,-1,21
 408 987 408 987 408 1049 c 0,22,23
 408 1112 408 1112 439.5 1146 c 128,-1,24
 471 1180 471 1180 526 1180 c 0,13,14
528 430 m 0,25,26
 582 430 582 430 613.5 393.5 c 128,-1,27
 645 357 645 357 645 293 c 0,28,29
 645 237 645 237 612 203.5 c 128,-1,30
 579 170 579 170 526 170 c 0,31,32
 470 170 470 170 440 203.5 c 128,-1,33
 410 237 410 237 410 293 c 0,34,35
 410 361 410 361 441.5 395.5 c 128,-1,36
 473 430 473 430 528 430 c 0,25,26
EndSplineSet
Substitution2: "<6,0> Monospaced Numbers in Latin lookup 6 subtable" divide.tab
EndChar

StartChar: oslash
Encoding: 248 248 179
Width: 1187
GlyphClass: 1
Flags: W
LayerCount: 2
Fore
SplineSet
594 -33 m 0,0,1
 481 -33 481 -33 391 2 c 1,2,3
 381 -17 381 -17 370 -39.5 c 128,-1,4
 359 -62 359 -62 345.5 -90.5 c 128,-1,5
 332 -119 332 -119 324 -135 c 1,6,7
 281 -111 281 -111 207 -74 c 1,8,9
 236 -22 236 -22 283 68 c 1,10,11
 111 209 111 209 111 516 c 0,12,13
 111 630 111 630 141 728 c 128,-1,14
 171 826 171 826 229.5 902.5 c 128,-1,15
 288 979 288 979 383.5 1023 c 128,-1,16
 479 1067 479 1067 600 1067 c 0,17,18
 686 1067 686 1067 774 1036 c 1,19,20
 787 1060 787 1060 809 1105.5 c 128,-1,21
 831 1151 831 1151 840 1169 c 1,22,23
 877 1153 877 1153 965 1112 c 1,24,25
 936 1061 936 1061 889 971 c 1,26,27
 980 899 980 899 1028.5 782 c 128,-1,28
 1077 665 1077 665 1077 520 c 0,29,30
 1077 266 1077 266 949 116.5 c 128,-1,31
 821 -33 821 -33 594 -33 c 0,0,1
596 102 m 0,32,33
 732 102 732 102 811.5 211.5 c 128,-1,34
 891 321 891 321 891 522 c 0,35,36
 891 711 891 711 809 821 c 1,37,38
 585 394 585 394 457 135 c 1,39,40
 513 102 513 102 596 102 c 0,32,33
295 516 m 0,41,42
 295 332 295 332 365 223 c 1,43,44
 491 464 491 464 711 907 c 1,45,46
 656 932 656 932 596 932 c 0,47,48
 456 932 456 932 375.5 814 c 128,-1,49
 295 696 295 696 295 516 c 0,41,42
EndSplineSet
EndChar

StartChar: ugrave
Encoding: 249 249 180
Width: 1136
GlyphClass: 1
Flags: W
LayerCount: 2
Fore
SplineSet
492 -6 m 0,0,1
 326 -6 326 -6 231.5 104.5 c 128,-1,2
 137 215 137 215 137 420 c 2,3,-1
 133 999 l 1,4,5
 192 995 192 995 315 995 c 1,6,7
 311 775 311 775 311 442 c 0,8,9
 311 284 311 284 362.5 212.5 c 128,-1,10
 414 141 414 141 535 141 c 0,11,12
 648 141 648 141 729.5 260 c 128,-1,13
 811 379 811 379 815 578 c 0,14,15
 818 698 818 698 817.5 807.5 c 128,-1,16
 817 917 817 917 815 994 c 2,17,-1
 813 1071 l 1,18,19
 862 1069 862 1069 993 1069 c 1,20,21
 987 620 987 620 993 -20 c 1,22,23
 920 -20 920 -20 834 -18 c 1,24,25
 838 94 838 94 840 256 c 1,26,27
 791 130 791 130 700 62 c 128,-1,28
 609 -6 609 -6 492 -6 c 0,0,1
580 1139 m 1,29,30
 484 1253 484 1253 285 1462 c 1,31,32
 326 1491 326 1491 412 1554 c 1,33,34
 506 1423 506 1423 678 1210 c 1,35,36
 654 1194 654 1194 580 1139 c 1,29,30
EndSplineSet
EndChar

StartChar: uacute
Encoding: 250 250 181
Width: 1136
GlyphClass: 1
Flags: W
LayerCount: 2
Fore
SplineSet
492 -6 m 0,0,1
 326 -6 326 -6 231.5 104.5 c 128,-1,2
 137 215 137 215 137 420 c 2,3,-1
 133 999 l 1,4,5
 192 995 192 995 315 995 c 1,6,7
 311 775 311 775 311 442 c 0,8,9
 311 284 311 284 362.5 212.5 c 128,-1,10
 414 141 414 141 535 141 c 0,11,12
 648 141 648 141 729.5 260 c 128,-1,13
 811 379 811 379 815 578 c 0,14,15
 818 698 818 698 817.5 807.5 c 128,-1,16
 817 917 817 917 815 994 c 2,17,-1
 813 1071 l 1,18,19
 862 1069 862 1069 993 1069 c 1,20,21
 987 620 987 620 993 -20 c 1,22,23
 920 -20 920 -20 834 -18 c 1,24,25
 838 94 838 94 840 256 c 1,26,27
 791 130 791 130 700 62 c 128,-1,28
 609 -6 609 -6 492 -6 c 0,0,1
545 1145 m 1,29,-1
 449 1217 l 1,30,31
 526 1313 526 1313 592.5 1399.5 c 128,-1,32
 659 1486 659 1486 687 1524 c 2,33,-1
 715 1563 l 1,34,-1
 842 1473 l 1,35,36
 754 1380 754 1380 679.5 1298 c 128,-1,37
 605 1216 605 1216 575 1180 c 2,38,-1
 545 1145 l 1,29,-1
EndSplineSet
EndChar

StartChar: ucircumflex
Encoding: 251 251 182
Width: 1136
GlyphClass: 1
Flags: W
LayerCount: 2
Fore
SplineSet
492 -6 m 0,0,1
 326 -6 326 -6 231.5 104.5 c 128,-1,2
 137 215 137 215 137 420 c 2,3,-1
 133 999 l 1,4,5
 192 995 192 995 315 995 c 1,6,7
 311 775 311 775 311 442 c 0,8,9
 311 284 311 284 362.5 212.5 c 128,-1,10
 414 141 414 141 535 141 c 0,11,12
 648 141 648 141 729.5 260 c 128,-1,13
 811 379 811 379 815 578 c 0,14,15
 818 698 818 698 817.5 807.5 c 128,-1,16
 817 917 817 917 815 994 c 2,17,-1
 813 1071 l 1,18,19
 862 1069 862 1069 993 1069 c 1,20,21
 987 620 987 620 993 -20 c 1,22,23
 920 -20 920 -20 834 -18 c 1,24,25
 838 94 838 94 840 256 c 1,26,27
 791 130 791 130 700 62 c 128,-1,28
 609 -6 609 -6 492 -6 c 0,0,1
340 1130 m 1,29,30
 307 1161 307 1161 248 1206 c 1,31,32
 354 1323 354 1323 489 1487 c 1,33,34
 539 1485 539 1485 635 1487 c 1,35,36
 725 1378 725 1378 879 1214 c 1,37,38
 849 1194 849 1194 788 1137 c 1,39,40
 690 1249 690 1249 561 1380 c 1,41,42
 481 1304 481 1304 340 1130 c 1,29,30
EndSplineSet
EndChar

StartChar: udieresis
Encoding: 252 252 183
Width: 1136
GlyphClass: 1
Flags: W
LayerCount: 2
Fore
SplineSet
492 -6 m 0,0,1
 326 -6 326 -6 231.5 104.5 c 128,-1,2
 137 215 137 215 137 420 c 2,3,-1
 133 999 l 1,4,5
 192 995 192 995 315 995 c 1,6,7
 311 775 311 775 311 442 c 0,8,9
 311 284 311 284 362.5 212.5 c 128,-1,10
 414 141 414 141 535 141 c 0,11,12
 648 141 648 141 729.5 260 c 128,-1,13
 811 379 811 379 815 578 c 0,14,15
 818 698 818 698 817.5 807.5 c 128,-1,16
 817 917 817 917 815 994 c 2,17,-1
 813 1071 l 1,18,19
 862 1069 862 1069 993 1069 c 1,20,21
 987 620 987 620 993 -20 c 1,22,23
 920 -20 920 -20 834 -18 c 1,24,25
 838 94 838 94 840 256 c 1,26,27
 791 130 791 130 700 62 c 128,-1,28
 609 -6 609 -6 492 -6 c 0,0,1
381 1192 m 0,29,30
 331 1192 331 1192 298.5 1225 c 128,-1,31
 266 1258 266 1258 266 1311 c 0,32,33
 266 1362 266 1362 300 1391.5 c 128,-1,34
 334 1421 334 1421 383 1421 c 0,35,36
 438 1421 438 1421 469 1387 c 128,-1,37
 500 1353 500 1353 500 1307 c 0,38,39
 500 1253 500 1253 467.5 1222.5 c 128,-1,40
 435 1192 435 1192 381 1192 c 0,29,30
752 1194 m 0,41,42
 703 1194 703 1194 671 1226.5 c 128,-1,43
 639 1259 639 1259 639 1313 c 0,44,45
 639 1359 639 1359 671.5 1390 c 128,-1,46
 704 1421 704 1421 754 1421 c 0,47,48
 800 1421 800 1421 831 1391 c 128,-1,49
 862 1361 862 1361 862 1309 c 128,-1,50
 862 1257 862 1257 832 1225.5 c 128,-1,51
 802 1194 802 1194 752 1194 c 0,41,42
EndSplineSet
EndChar

StartChar: yacute
Encoding: 253 253 184
Width: 1009
GlyphClass: 1
Flags: W
LayerCount: 2
Fore
SplineSet
979 1059 m 1,0,-1
 467 -483 l 1,1,-1
 295 -446 l 1,2,3
 394 -166 394 -166 426 -55 c 1,4,5
 317 244 317 244 218 505.5 c 128,-1,6
 119 767 119 767 75 879 c 2,7,-1
 31 991 l 1,8,-1
 225 1001 l 1,9,10
 327 691 327 691 518 137 c 1,11,12
 602 404 602 404 672.5 637.5 c 128,-1,13
 743 871 743 871 772 971 c 2,14,-1
 801 1071 l 1,15,-1
 979 1059 l 1,0,-1
485 1145 m 1,16,-1
 389 1217 l 1,17,18
 466 1313 466 1313 532.5 1399.5 c 128,-1,19
 599 1486 599 1486 627 1524 c 2,20,-1
 655 1563 l 1,21,-1
 782 1473 l 1,22,23
 694 1380 694 1380 619.5 1298 c 128,-1,24
 545 1216 545 1216 515 1180 c 2,25,-1
 485 1145 l 1,16,-1
EndSplineSet
EndChar

StartChar: thorn
Encoding: 254 254 185
Width: 1210
GlyphClass: 1
Flags: W
LayerCount: 2
Fore
SplineSet
145 -438 m 1,0,1
 147 4 147 4 146.5 411.5 c 128,-1,2
 146 819 146 819 144 1107 c 2,3,-1
 143 1395 l 1,4,-1
 328 1397 l 1,5,6
 319 1099 319 1099 319 823 c 1,7,8
 372 938 372 938 467 1001.5 c 128,-1,9
 562 1065 562 1065 672 1065 c 0,10,11
 875 1065 875 1065 990.5 910 c 128,-1,12
 1106 755 1106 755 1106 514 c 0,13,14
 1107 253 1107 253 983.5 108 c 128,-1,15
 860 -37 860 -37 655 -37 c 0,16,17
 558 -37 558 -37 467.5 13 c 128,-1,18
 377 63 377 63 319 154 c 1,19,20
 322 -16 322 -16 326 -163.5 c 128,-1,21
 330 -311 330 -311 333 -374 c 2,22,-1
 336 -436 l 1,23,-1
 145 -438 l 1,0,1
633 88 m 0,24,25
 760 88 760 88 841 197.5 c 128,-1,26
 922 307 922 307 922 510 c 0,27,28
 922 627 922 627 890.5 721 c 128,-1,29
 859 815 859 815 791 874.5 c 128,-1,30
 723 934 723 934 629 934 c 0,31,32
 549 934 549 934 478.5 874 c 128,-1,33
 408 814 408 814 367 716 c 128,-1,34
 326 618 326 618 326 510 c 0,35,36
 326 333 326 333 413.5 210.5 c 128,-1,37
 501 88 501 88 633 88 c 0,24,25
EndSplineSet
EndChar

StartChar: ydieresis
Encoding: 255 255 186
Width: 1009
GlyphClass: 1
Flags: W
LayerCount: 2
Fore
SplineSet
979 1059 m 1,0,-1
 467 -483 l 1,1,-1
 295 -446 l 1,2,3
 394 -166 394 -166 426 -55 c 1,4,5
 317 244 317 244 218 505.5 c 128,-1,6
 119 767 119 767 75 879 c 2,7,-1
 31 991 l 1,8,-1
 225 1001 l 1,9,10
 327 691 327 691 518 137 c 1,11,12
 602 404 602 404 672.5 637.5 c 128,-1,13
 743 871 743 871 772 971 c 2,14,-1
 801 1071 l 1,15,-1
 979 1059 l 1,0,-1
322 1192 m 0,16,17
 272 1192 272 1192 239.5 1225 c 128,-1,18
 207 1258 207 1258 207 1311 c 0,19,20
 207 1362 207 1362 241 1391.5 c 128,-1,21
 275 1421 275 1421 324 1421 c 0,22,23
 379 1421 379 1421 409.5 1387 c 128,-1,24
 440 1353 440 1353 440 1307 c 0,25,26
 440 1253 440 1253 408 1222.5 c 128,-1,27
 376 1192 376 1192 322 1192 c 0,16,17
692 1194 m 0,28,29
 644 1194 644 1194 612 1226.5 c 128,-1,30
 580 1259 580 1259 580 1313 c 0,31,32
 580 1359 580 1359 612 1390 c 128,-1,33
 644 1421 644 1421 694 1421 c 0,34,35
 740 1421 740 1421 771.5 1391 c 128,-1,36
 803 1361 803 1361 803 1309 c 0,37,38
 803 1258 803 1258 773 1226 c 128,-1,39
 743 1194 743 1194 692 1194 c 0,28,29
EndSplineSet
EndChar

StartChar: Amacron
Encoding: 256 256 187
Width: 1280
GlyphClass: 1
Flags: W
LayerCount: 2
Fore
SplineSet
55 45 m 1,0,1
 230 584 230 584 489 1438 c 1,2,-1
 760 1442 l 1,3,4
 987 704 987 704 1225 -43 c 1,5,6
 1126 -43 1126 -43 1032 -47 c 1,7,8
 990 96 990 96 920 332 c 1,9,10
 686 338 686 338 326 338 c 1,11,12
 323 329 323 329 244 41 c 1,13,14
 151 45 151 45 55 45 c 1,0,1
616 1335 m 1,15,16
 480 875 480 875 367 481 c 1,17,18
 535 479 535 479 877 479 c 1,19,20
 831 635 831 635 616 1335 c 1,15,16
358 1649 m 1,21,22
 360 1694 360 1694 356 1776 c 1,23,24
 519 1774 519 1774 924 1780 c 1,25,-1
 922 1651 l 1,26,27
 715 1655 715 1655 358 1649 c 1,21,22
EndSplineSet
Substitution2: "'rtla' Right to Left Alternates in Latin lookup 0 subtable" amacron
EndChar

StartChar: amacron
Encoding: 257 257 188
Width: 1114
GlyphClass: 1
Flags: W
LayerCount: 2
Fore
SplineSet
446 -33 m 0,0,1
 293 -33 293 -33 197.5 46.5 c 128,-1,2
 102 126 102 126 102 272 c 0,3,4
 102 445 102 445 273.5 542.5 c 128,-1,5
 445 640 445 640 793 653 c 1,6,-1
 793 674 l 2,7,8
 793 793 793 793 735.5 862.5 c 128,-1,9
 678 932 678 932 565 932 c 0,10,11
 466 932 466 932 402 880 c 128,-1,12
 338 828 338 828 303 713 c 1,13,14
 237 738 237 738 141 756 c 1,15,16
 245 1063 245 1063 575 1063 c 0,17,18
 761 1063 761 1063 866 956.5 c 128,-1,19
 971 850 971 850 975 641 c 0,20,21
 979 484 979 484 979.5 315.5 c 128,-1,22
 980 147 980 147 978 57 c 2,23,-1
 977 -33 l 1,24,25
 923 -35 923 -35 823 -37 c 1,26,27
 827 62 827 62 829 209 c 1,28,29
 777 98 777 98 680 32.5 c 128,-1,30
 583 -33 583 -33 446 -33 c 0,0,1
801 469 m 2,31,-1
 801 535 l 1,32,33
 528 520 528 520 406.5 457 c 128,-1,34
 285 394 285 394 285 283 c 0,35,36
 285 201 285 201 338.5 154 c 128,-1,37
 392 107 392 107 489 106 c 0,38,39
 624 104 624 104 712.5 199 c 128,-1,40
 801 294 801 294 801 469 c 2,31,-1
281 1249 m 1,41,42
 283 1294 283 1294 279 1376 c 1,43,44
 441 1374 441 1374 846 1380 c 1,45,-1
 844 1251 l 1,46,47
 638 1255 638 1255 281 1249 c 1,41,42
EndSplineSet
Substitution2: "'rtla' Right to Left Alternates in Latin lookup 0 subtable" Amacron
EndChar

StartChar: Abreve
Encoding: 258 258 189
Width: 1280
GlyphClass: 1
Flags: W
LayerCount: 2
Fore
SplineSet
55 45 m 1,0,1
 230 584 230 584 489 1438 c 1,2,-1
 760 1442 l 1,3,4
 987 704 987 704 1225 -43 c 1,5,6
 1126 -43 1126 -43 1032 -47 c 1,7,8
 990 96 990 96 920 332 c 1,9,10
 686 338 686 338 326 338 c 1,11,12
 323 329 323 329 244 41 c 1,13,14
 151 45 151 45 55 45 c 1,0,1
616 1335 m 1,15,16
 480 875 480 875 367 481 c 1,17,18
 535 479 535 479 877 479 c 1,19,20
 831 635 831 635 616 1335 c 1,15,16
643 1567 m 0,21,22
 495 1567 495 1567 415.5 1638.5 c 128,-1,23
 336 1710 336 1710 336 1843 c 1,24,25
 391 1841 391 1841 467 1847 c 1,26,27
 467 1761 467 1761 513.5 1717 c 128,-1,28
 560 1673 560 1673 645 1673 c 0,29,30
 723 1673 723 1673 766.5 1721 c 128,-1,31
 810 1769 810 1769 809 1870 c 1,32,33
 856 1868 856 1868 940 1872 c 1,34,35
 944 1727 944 1727 866 1647 c 128,-1,36
 788 1567 788 1567 643 1567 c 0,21,22
EndSplineSet
Substitution2: "'rtla' Right to Left Alternates in Latin lookup 0 subtable" abreve
EndChar

StartChar: abreve
Encoding: 259 259 190
Width: 1114
GlyphClass: 1
Flags: W
LayerCount: 2
Fore
SplineSet
446 -33 m 0,0,1
 293 -33 293 -33 197.5 46.5 c 128,-1,2
 102 126 102 126 102 272 c 0,3,4
 102 445 102 445 273.5 542.5 c 128,-1,5
 445 640 445 640 793 653 c 1,6,-1
 793 674 l 2,7,8
 793 793 793 793 735.5 862.5 c 128,-1,9
 678 932 678 932 565 932 c 0,10,11
 466 932 466 932 402 880 c 128,-1,12
 338 828 338 828 303 713 c 1,13,14
 237 738 237 738 141 756 c 1,15,16
 245 1063 245 1063 575 1063 c 0,17,18
 761 1063 761 1063 866 956.5 c 128,-1,19
 971 850 971 850 975 641 c 0,20,21
 979 484 979 484 979.5 315.5 c 128,-1,22
 980 147 980 147 978 57 c 2,23,-1
 977 -33 l 1,24,25
 923 -35 923 -35 823 -37 c 1,26,27
 827 62 827 62 829 209 c 1,28,29
 777 98 777 98 680 32.5 c 128,-1,30
 583 -33 583 -33 446 -33 c 0,0,1
801 469 m 2,31,-1
 801 535 l 1,32,33
 528 520 528 520 406.5 457 c 128,-1,34
 285 394 285 394 285 283 c 0,35,36
 285 201 285 201 338.5 154 c 128,-1,37
 392 107 392 107 489 106 c 0,38,39
 624 104 624 104 712.5 199 c 128,-1,40
 801 294 801 294 801 469 c 2,31,-1
567 1167 m 0,41,42
 419 1167 419 1167 339.5 1239 c 128,-1,43
 260 1311 260 1311 260 1444 c 1,44,45
 315 1442 315 1442 391 1448 c 1,46,47
 391 1362 391 1362 437.5 1318 c 128,-1,48
 484 1274 484 1274 569 1274 c 0,49,50
 648 1274 648 1274 691 1322 c 128,-1,51
 734 1370 734 1370 733 1470 c 1,52,53
 780 1469 780 1469 864 1473 c 1,54,55
 868 1328 868 1328 790 1247.5 c 128,-1,56
 712 1167 712 1167 567 1167 c 0,41,42
EndSplineSet
Substitution2: "'rtla' Right to Left Alternates in Latin lookup 0 subtable" Abreve
EndChar

StartChar: Aogonek
Encoding: 260 260 191
Width: 1280
GlyphClass: 1
Flags: W
LayerCount: 2
Fore
SplineSet
1163 -440 m 1,0,1
 1126 -446 1126 -446 1090 -446 c 0,2,3
 977 -446 977 -446 907.5 -400 c 128,-1,4
 838 -354 838 -354 838 -272 c 0,5,6
 836 -208 836 -208 885.5 -140 c 128,-1,7
 935 -72 935 -72 1026 -31 c 1,8,-1
 920 332 l 1,9,10
 686 338 686 338 326 338 c 1,11,12
 323 329 323 329 244 41 c 1,13,14
 151 45 151 45 55 45 c 1,15,16
 230 584 230 584 489 1438 c 1,17,-1
 760 1442 l 1,18,19
 987 704 987 704 1225 -43 c 1,20,-1
 1124 -43 l 1,21,22
 1050 -84 1050 -84 1011.5 -139 c 128,-1,23
 973 -194 973 -194 973 -240 c 0,24,25
 973 -289 973 -289 1025 -311.5 c 128,-1,26
 1077 -334 1077 -334 1167 -328 c 1,27,28
 1163 -368 1163 -368 1163 -440 c 1,0,1
616 1335 m 1,29,30
 480 875 480 875 367 481 c 1,31,32
 535 479 535 479 877 479 c 1,33,34
 831 635 831 635 616 1335 c 1,29,30
EndSplineSet
Substitution2: "'rtla' Right to Left Alternates in Latin lookup 0 subtable" aogonek
EndChar

StartChar: aogonek
Encoding: 261 261 192
Width: 1114
GlyphClass: 1
Flags: W
LayerCount: 2
Fore
SplineSet
942 -428 m 1,0,1
 905 -434 905 -434 868 -434 c 0,2,3
 755 -434 755 -434 685.5 -388 c 128,-1,4
 616 -342 616 -342 616 -260 c 0,5,6
 614 -192 614 -192 669 -120.5 c 128,-1,7
 724 -49 724 -49 823 -10 c 1,8,-1
 829 209 l 1,9,10
 777 98 777 98 680 32.5 c 128,-1,11
 583 -33 583 -33 446 -33 c 0,12,13
 293 -33 293 -33 197.5 46.5 c 128,-1,14
 102 126 102 126 102 272 c 0,15,16
 102 445 102 445 273.5 542.5 c 128,-1,17
 445 640 445 640 793 653 c 1,18,-1
 793 674 l 2,19,20
 793 793 793 793 735.5 862.5 c 128,-1,21
 678 932 678 932 565 932 c 0,22,23
 466 932 466 932 402 880 c 128,-1,24
 338 828 338 828 303 713 c 1,25,26
 237 738 237 738 141 756 c 1,27,28
 245 1063 245 1063 575 1063 c 0,29,30
 761 1063 761 1063 866 956.5 c 128,-1,31
 971 850 971 850 975 641 c 0,32,33
 979 484 979 484 979.5 315.5 c 128,-1,34
 980 147 980 147 978 57 c 2,35,-1
 977 -33 l 1,36,37
 946 -35 946 -35 895 -35 c 1,38,39
 825 -77 825 -77 788.5 -129.5 c 128,-1,40
 752 -182 752 -182 752 -227 c 0,41,42
 752 -276 752 -276 804 -298.5 c 128,-1,43
 856 -321 856 -321 946 -315 c 1,44,45
 942 -356 942 -356 942 -428 c 1,0,1
801 469 m 2,46,-1
 801 535 l 1,47,48
 528 520 528 520 406.5 457 c 128,-1,49
 285 394 285 394 285 283 c 0,50,51
 285 201 285 201 338.5 154 c 128,-1,52
 392 107 392 107 489 106 c 0,53,54
 624 104 624 104 712.5 199 c 128,-1,55
 801 294 801 294 801 469 c 2,46,-1
EndSplineSet
Substitution2: "'rtla' Right to Left Alternates in Latin lookup 0 subtable" Aogonek
EndChar

StartChar: Cacute
Encoding: 262 262 193
Width: 1353
GlyphClass: 1
Flags: W
LayerCount: 2
Fore
SplineSet
715 -41 m 0,0,1
 564 -41 564 -41 449.5 14 c 128,-1,2
 335 69 335 69 263.5 170 c 128,-1,3
 192 271 192 271 156.5 407.5 c 128,-1,4
 121 544 121 544 121 713 c 0,5,6
 121 1062 121 1062 276.5 1263 c 128,-1,7
 432 1464 432 1464 719 1464 c 0,8,9
 940 1464 940 1464 1064 1336 c 128,-1,10
 1188 1208 1188 1208 1223 977 c 1,11,12
 1166 969 1166 969 1118 960.5 c 128,-1,13
 1070 952 1070 952 1051 947 c 2,14,-1
 1032 942 l 1,15,16
 1005 1121 1005 1121 929 1213 c 128,-1,17
 853 1305 853 1305 715 1305 c 0,18,19
 615 1305 615 1305 537.5 1259.5 c 128,-1,20
 460 1214 460 1214 412 1133.5 c 128,-1,21
 364 1053 364 1053 339.5 948.5 c 128,-1,22
 315 844 315 844 315 719 c 0,23,24
 315 617 315 617 329.5 528 c 128,-1,25
 344 439 344 439 375.5 363.5 c 128,-1,26
 407 288 407 288 453.5 234.5 c 128,-1,27
 500 181 500 181 566.5 151 c 128,-1,28
 633 121 633 121 715 121 c 0,29,30
 871 121 871 121 959.5 220.5 c 128,-1,31
 1048 320 1048 320 1069 535 c 1,32,-1
 1264 508 l 1,33,34
 1234 234 1234 234 1094.5 96.5 c 128,-1,35
 955 -41 955 -41 715 -41 c 0,0,1
674 1544 m 1,36,-1
 578 1616 l 1,37,38
 655 1712 655 1712 721.5 1798.5 c 128,-1,39
 788 1885 788 1885 816 1924 c 2,40,-1
 844 1962 l 1,41,-1
 971 1872 l 1,42,43
 883 1779 883 1779 808.5 1697 c 128,-1,44
 734 1615 734 1615 704 1580 c 2,45,-1
 674 1544 l 1,36,-1
EndSplineSet
Substitution2: "'rtla' Right to Left Alternates in Latin lookup 0 subtable" cacute
EndChar

StartChar: cacute
Encoding: 263 263 194
Width: 1132
GlyphClass: 1
Flags: W
LayerCount: 2
Fore
SplineSet
590 -45 m 0,0,1
 495 -45 495 -45 416.5 -17 c 128,-1,2
 338 11 338 11 282 61 c 128,-1,3
 226 111 226 111 188 180.5 c 128,-1,4
 150 250 150 250 132 333 c 128,-1,5
 114 416 114 416 115 510 c 0,6,7
 115 748 115 748 243 903.5 c 128,-1,8
 371 1059 371 1059 588 1059 c 0,9,10
 770 1059 770 1059 876.5 964.5 c 128,-1,11
 983 870 983 870 1020 698 c 1,12,13
 972 694 972 694 927 687 c 128,-1,14
 882 680 882 680 861 675 c 2,15,-1
 840 670 l 1,16,17
 814 785 814 785 755.5 850 c 128,-1,18
 697 915 697 915 586 915 c 0,19,20
 445 915 445 915 370 803 c 128,-1,21
 295 691 295 691 295 506 c 0,22,23
 295 318 295 318 370 209 c 128,-1,24
 445 100 445 100 588 100 c 0,25,26
 694 100 694 100 758 160 c 128,-1,27
 822 220 822 220 858 360 c 1,28,29
 907 346 907 346 1030 330 c 1,30,31
 989 138 989 138 881 46.5 c 128,-1,32
 773 -45 773 -45 590 -45 c 0,0,1
555 1145 m 1,33,-1
 459 1217 l 1,34,35
 536 1313 536 1313 602.5 1399.5 c 128,-1,36
 669 1486 669 1486 697 1524 c 2,37,-1
 725 1563 l 1,38,-1
 852 1473 l 1,39,40
 764 1380 764 1380 689.5 1298 c 128,-1,41
 615 1216 615 1216 585 1180 c 2,42,-1
 555 1145 l 1,33,-1
EndSplineSet
Substitution2: "'rtla' Right to Left Alternates in Latin lookup 0 subtable" Cacute
EndChar

StartChar: Ccircumflex
Encoding: 264 264 195
Width: 1353
GlyphClass: 1
Flags: W
LayerCount: 2
Fore
SplineSet
715 -41 m 0,0,1
 564 -41 564 -41 449.5 14 c 128,-1,2
 335 69 335 69 263.5 170 c 128,-1,3
 192 271 192 271 156.5 407.5 c 128,-1,4
 121 544 121 544 121 713 c 0,5,6
 121 1062 121 1062 276.5 1263 c 128,-1,7
 432 1464 432 1464 719 1464 c 0,8,9
 940 1464 940 1464 1064 1336 c 128,-1,10
 1188 1208 1188 1208 1223 977 c 1,11,12
 1166 969 1166 969 1118 960.5 c 128,-1,13
 1070 952 1070 952 1051 947 c 2,14,-1
 1032 942 l 1,15,16
 1005 1121 1005 1121 929 1213 c 128,-1,17
 853 1305 853 1305 715 1305 c 0,18,19
 615 1305 615 1305 537.5 1259.5 c 128,-1,20
 460 1214 460 1214 412 1133.5 c 128,-1,21
 364 1053 364 1053 339.5 948.5 c 128,-1,22
 315 844 315 844 315 719 c 0,23,24
 315 617 315 617 329.5 528 c 128,-1,25
 344 439 344 439 375.5 363.5 c 128,-1,26
 407 288 407 288 453.5 234.5 c 128,-1,27
 500 181 500 181 566.5 151 c 128,-1,28
 633 121 633 121 715 121 c 0,29,30
 871 121 871 121 959.5 220.5 c 128,-1,31
 1048 320 1048 320 1069 535 c 1,32,-1
 1264 508 l 1,33,34
 1234 234 1234 234 1094.5 96.5 c 128,-1,35
 955 -41 955 -41 715 -41 c 0,0,1
469 1530 m 1,36,37
 436 1561 436 1561 377 1606 c 1,38,39
 483 1722 483 1722 618 1886 c 1,40,41
 668 1884 668 1884 764 1886 c 1,42,43
 854 1778 854 1778 1008 1614 c 1,44,45
 979 1593 979 1593 918 1536 c 1,46,47
 819 1649 819 1649 690 1780 c 1,48,49
 610 1704 610 1704 469 1530 c 1,36,37
EndSplineSet
Substitution2: "'rtla' Right to Left Alternates in Latin lookup 0 subtable" ccircumflex
EndChar

StartChar: ccircumflex
Encoding: 265 265 196
Width: 1132
GlyphClass: 1
Flags: W
LayerCount: 2
Fore
SplineSet
590 -45 m 0,0,1
 495 -45 495 -45 416.5 -17 c 128,-1,2
 338 11 338 11 282 61 c 128,-1,3
 226 111 226 111 188 180.5 c 128,-1,4
 150 250 150 250 132 333 c 128,-1,5
 114 416 114 416 115 510 c 0,6,7
 115 748 115 748 243 903.5 c 128,-1,8
 371 1059 371 1059 588 1059 c 0,9,10
 770 1059 770 1059 876.5 964.5 c 128,-1,11
 983 870 983 870 1020 698 c 1,12,13
 972 694 972 694 927 687 c 128,-1,14
 882 680 882 680 861 675 c 2,15,-1
 840 670 l 1,16,17
 814 785 814 785 755.5 850 c 128,-1,18
 697 915 697 915 586 915 c 0,19,20
 445 915 445 915 370 803 c 128,-1,21
 295 691 295 691 295 506 c 0,22,23
 295 318 295 318 370 209 c 128,-1,24
 445 100 445 100 588 100 c 0,25,26
 694 100 694 100 758 160 c 128,-1,27
 822 220 822 220 858 360 c 1,28,29
 907 346 907 346 1030 330 c 1,30,31
 989 138 989 138 881 46.5 c 128,-1,32
 773 -45 773 -45 590 -45 c 0,0,1
350 1130 m 1,33,34
 317 1161 317 1161 258 1206 c 1,35,36
 365 1323 365 1323 500 1487 c 1,37,38
 549 1485 549 1485 645 1487 c 1,39,40
 735 1378 735 1378 889 1214 c 1,41,42
 860 1194 860 1194 799 1137 c 1,43,44
 700 1249 700 1249 571 1380 c 1,45,46
 491 1304 491 1304 350 1130 c 1,33,34
EndSplineSet
Substitution2: "'rtla' Right to Left Alternates in Latin lookup 0 subtable" Ccircumflex
EndChar

StartChar: Ccaron
Encoding: 268 268 197
Width: 1353
GlyphClass: 1
Flags: W
LayerCount: 2
Fore
SplineSet
715 -41 m 0,0,1
 564 -41 564 -41 449.5 14 c 128,-1,2
 335 69 335 69 263.5 170 c 128,-1,3
 192 271 192 271 156.5 407.5 c 128,-1,4
 121 544 121 544 121 713 c 0,5,6
 121 1062 121 1062 276.5 1263 c 128,-1,7
 432 1464 432 1464 719 1464 c 0,8,9
 940 1464 940 1464 1064 1336 c 128,-1,10
 1188 1208 1188 1208 1223 977 c 1,11,12
 1166 969 1166 969 1118 960.5 c 128,-1,13
 1070 952 1070 952 1051 947 c 2,14,-1
 1032 942 l 1,15,16
 1005 1121 1005 1121 929 1213 c 128,-1,17
 853 1305 853 1305 715 1305 c 0,18,19
 615 1305 615 1305 537.5 1259.5 c 128,-1,20
 460 1214 460 1214 412 1133.5 c 128,-1,21
 364 1053 364 1053 339.5 948.5 c 128,-1,22
 315 844 315 844 315 719 c 0,23,24
 315 617 315 617 329.5 528 c 128,-1,25
 344 439 344 439 375.5 363.5 c 128,-1,26
 407 288 407 288 453.5 234.5 c 128,-1,27
 500 181 500 181 566.5 151 c 128,-1,28
 633 121 633 121 715 121 c 0,29,30
 871 121 871 121 959.5 220.5 c 128,-1,31
 1048 320 1048 320 1069 535 c 1,32,-1
 1264 508 l 1,33,34
 1234 234 1234 234 1094.5 96.5 c 128,-1,35
 955 -41 955 -41 715 -41 c 0,0,1
915 1886 m 1,36,37
 949 1855 949 1855 1008 1810 c 1,38,39
 897 1694 897 1694 762 1530 c 1,40,41
 721 1532 721 1532 625 1530 c 1,42,43
 531 1638 531 1638 377 1802 c 1,44,45
 406 1823 406 1823 467 1880 c 1,46,47
 565 1767 565 1767 694 1636 c 1,48,49
 768 1710 768 1710 915 1886 c 1,36,37
EndSplineSet
Substitution2: "'rtla' Right to Left Alternates in Latin lookup 0 subtable" ccaron
EndChar

StartChar: ccaron
Encoding: 269 269 198
Width: 1132
GlyphClass: 1
Flags: W
LayerCount: 2
Fore
SplineSet
590 -45 m 0,0,1
 495 -45 495 -45 416.5 -17 c 128,-1,2
 338 11 338 11 282 61 c 128,-1,3
 226 111 226 111 188 180.5 c 128,-1,4
 150 250 150 250 132 333 c 128,-1,5
 114 416 114 416 115 510 c 0,6,7
 115 748 115 748 243 903.5 c 128,-1,8
 371 1059 371 1059 588 1059 c 0,9,10
 770 1059 770 1059 876.5 964.5 c 128,-1,11
 983 870 983 870 1020 698 c 1,12,13
 972 694 972 694 927 687 c 128,-1,14
 882 680 882 680 861 675 c 2,15,-1
 840 670 l 1,16,17
 814 785 814 785 755.5 850 c 128,-1,18
 697 915 697 915 586 915 c 0,19,20
 445 915 445 915 370 803 c 128,-1,21
 295 691 295 691 295 506 c 0,22,23
 295 318 295 318 370 209 c 128,-1,24
 445 100 445 100 588 100 c 0,25,26
 694 100 694 100 758 160 c 128,-1,27
 822 220 822 220 858 360 c 1,28,29
 907 346 907 346 1030 330 c 1,30,31
 989 138 989 138 881 46.5 c 128,-1,32
 773 -45 773 -45 590 -45 c 0,0,1
797 1487 m 1,33,34
 830 1456 830 1456 889 1411 c 1,35,36
 778 1294 778 1294 643 1130 c 1,37,38
 602 1132 602 1132 506 1130 c 1,39,40
 412 1239 412 1239 258 1403 c 1,41,42
 287 1424 287 1424 348 1481 c 1,43,44
 446 1368 446 1368 575 1237 c 1,45,46
 650 1311 650 1311 797 1487 c 1,33,34
EndSplineSet
Substitution2: "'rtla' Right to Left Alternates in Latin lookup 0 subtable" Ccaron
EndChar

StartChar: Dcaron
Encoding: 270 270 199
Width: 1351
GlyphClass: 1
Flags: W
LayerCount: 2
Fore
SplineSet
350 150 m 1,0,1
 396 147 396 147 438 147 c 0,2,3
 586 147 586 147 694.5 177.5 c 128,-1,4
 803 208 803 208 881.5 275 c 128,-1,5
 960 342 960 342 999 453 c 128,-1,6
 1038 564 1038 564 1038 721 c 0,7,8
 1038 979 1038 979 891.5 1127.5 c 128,-1,9
 745 1276 745 1276 463 1276 c 0,10,11
 406 1276 406 1276 338 1270 c 1,12,13
 339 1005 339 1005 342 725 c 128,-1,14
 345 445 345 445 348 298 c 2,15,-1
 350 150 l 1,0,1
160 4 m 1,16,17
 163 405 163 405 162.5 718 c 128,-1,18
 162 1031 162 1031 160 1221 c 2,19,-1
 158 1411 l 1,20,21
 318 1434 318 1434 461 1434 c 0,22,23
 655 1434 655 1434 803.5 1381.5 c 128,-1,24
 952 1329 952 1329 1045 1233.5 c 128,-1,25
 1138 1138 1138 1138 1184.5 1008.5 c 128,-1,26
 1231 879 1231 879 1231 719 c 0,27,28
 1231 360 1231 360 1027.5 174 c 128,-1,29
 824 -12 824 -12 412 -12 c 0,30,31
 304 -12 304 -12 160 4 c 1,16,17
827 1886 m 1,32,33
 861 1855 861 1855 920 1810 c 1,34,35
 809 1694 809 1694 674 1530 c 1,36,37
 633 1532 633 1532 537 1530 c 1,38,39
 443 1638 443 1638 289 1802 c 1,40,41
 318 1823 318 1823 379 1880 c 1,42,43
 477 1767 477 1767 606 1636 c 1,44,45
 680 1710 680 1710 827 1886 c 1,32,33
EndSplineSet
Substitution2: "'rtla' Right to Left Alternates in Latin lookup 0 subtable" dcaron
EndChar

StartChar: dcaron
Encoding: 271 271 200
Width: 1212
GlyphClass: 1
Flags: W
LayerCount: 2
Fore
SplineSet
1069 -37 m 1,0,1
 977 -35 977 -35 903 -35 c 1,2,3
 907 63 907 63 911 213 c 1,4,5
 864 90 864 90 760 26.5 c 128,-1,6
 656 -37 656 -37 532 -37 c 0,7,8
 345 -37 345 -37 229 110 c 128,-1,9
 113 257 113 257 113 498 c 0,10,11
 113 748 113 748 233 903.5 c 128,-1,12
 353 1059 353 1059 545 1059 c 0,13,14
 664 1059 664 1059 754 998 c 128,-1,15
 844 937 844 937 893 840 c 1,16,17
 886 1277 886 1277 883 1405 c 1,18,19
 926 1403 926 1403 1069 1407 c 1,20,21
 1063 760 1063 760 1069 -37 c 1,0,1
582 94 m 0,22,23
 715 94 715 94 803 205.5 c 128,-1,24
 891 317 891 317 891 496 c 1,25,26
 886 619 886 619 851.5 713 c 128,-1,27
 817 807 817 807 745 865.5 c 128,-1,28
 673 924 673 924 571 924 c 0,29,30
 446 924 446 924 371.5 804 c 128,-1,31
 297 684 297 684 297 508 c 0,32,33
 297 319 297 319 369.5 206.5 c 128,-1,34
 442 94 442 94 582 94 c 0,22,23
1434 1282 m 0,35,36
 1434 1211 1434 1211 1384 1131 c 128,-1,37
 1334 1051 1334 1051 1251 987 c 1,38,39
 1199 1042 1199 1042 1192 1044 c 1,40,41
 1255 1098 1255 1098 1305 1180 c 1,42,43
 1257 1189 1257 1189 1230.5 1220 c 128,-1,44
 1204 1251 1204 1251 1204 1292 c 0,45,46
 1204 1338 1204 1338 1233 1372.5 c 128,-1,47
 1262 1407 1262 1407 1319 1407 c 0,48,49
 1372 1407 1372 1407 1403 1372 c 128,-1,50
 1434 1337 1434 1337 1434 1282 c 0,35,36
EndSplineSet
Substitution2: "'rtla' Right to Left Alternates in Latin lookup 0 subtable" Dcaron
EndChar

StartChar: Dcroat
Encoding: 272 272 201
Width: 1435
GlyphClass: 1
Flags: W
LayerCount: 2
Fore
SplineSet
41 625 m 1,0,-1
 43 782 l 1,1,2
 109 778 109 778 246 774 c 1,3,-1
 242 1411 l 1,4,5
 402 1434 402 1434 545 1434 c 0,6,7
 739 1434 739 1434 887.5 1381.5 c 128,-1,8
 1036 1329 1036 1329 1129 1233.5 c 128,-1,9
 1222 1138 1222 1138 1268.5 1008.5 c 128,-1,10
 1315 879 1315 879 1315 719 c 0,11,12
 1315 360 1315 360 1111.5 174 c 128,-1,13
 908 -12 908 -12 496 -12 c 0,14,15
 388 -12 388 -12 244 4 c 1,16,17
 246 237 246 237 246 625 c 1,18,-1
 41 625 l 1,0,-1
434 150 m 1,19,20
 487 147 487 147 532 147 c 0,21,22
 825 147 825 147 973.5 281 c 128,-1,23
 1122 415 1122 415 1122 721 c 0,24,25
 1122 982 1122 982 974 1129 c 128,-1,26
 826 1276 826 1276 532 1276 c 0,27,28
 480 1276 480 1276 422 1270 c 1,29,30
 422 924 422 924 424 772 c 1,31,32
 504 770 504 770 705 770 c 1,33,34
 703 717 703 717 707 623 c 1,35,36
 596 625 596 625 426 625 c 1,37,-1
 434 150 l 1,19,20
EndSplineSet
Substitution2: "'rtla' Right to Left Alternates in Latin lookup 0 subtable" dcroat
EndChar

StartChar: dcroat
Encoding: 273 273 202
Width: 1212
GlyphClass: 1
Flags: W
LayerCount: 2
Fore
SplineSet
1069 -37 m 1,0,1
 977 -35 977 -35 903 -35 c 1,2,3
 907 63 907 63 911 213 c 1,4,5
 864 90 864 90 760 26.5 c 128,-1,6
 656 -37 656 -37 532 -37 c 0,7,8
 345 -37 345 -37 229 110 c 128,-1,9
 113 257 113 257 113 498 c 0,10,11
 113 748 113 748 233 903.5 c 128,-1,12
 353 1059 353 1059 545 1059 c 0,13,14
 664 1059 664 1059 754 998 c 128,-1,15
 844 937 844 937 893 840 c 1,16,17
 893 896 893 896 889 1122 c 1,18,-1
 729 1122 l 1,19,-1
 727 1247 l 1,20,-1
 887 1247 l 1,21,22
 883 1345 883 1345 883 1405 c 1,23,24
 926 1403 926 1403 1069 1407 c 1,25,26
 1069 1341 1069 1341 1067 1247 c 1,27,-1
 1266 1251 l 1,28,-1
 1264 1120 l 1,29,30
 1198 1122 1198 1122 1067 1122 c 1,31,32
 1063 642 1063 642 1069 -37 c 1,0,1
582 94 m 0,33,34
 715 94 715 94 803 205.5 c 128,-1,35
 891 317 891 317 891 496 c 1,36,37
 886 619 886 619 851.5 713 c 128,-1,38
 817 807 817 807 745 865.5 c 128,-1,39
 673 924 673 924 571 924 c 0,40,41
 446 924 446 924 371.5 804 c 128,-1,42
 297 684 297 684 297 508 c 0,43,44
 297 319 297 319 369.5 206.5 c 128,-1,45
 442 94 442 94 582 94 c 0,33,34
EndSplineSet
Substitution2: "'rtla' Right to Left Alternates in Latin lookup 0 subtable" Dcroat
EndChar

StartChar: Emacron
Encoding: 274 274 203
Width: 1148
GlyphClass: 1
Flags: W
LayerCount: 2
Fore
SplineSet
174 8 m 1,0,1
 172 596 172 596 158 1421 c 1,2,3
 546 1426 546 1426 1030 1436 c 1,4,5
 1030 1382 1030 1382 1032 1282 c 1,6,7
 710 1280 710 1280 342 1272 c 1,8,9
 342 1072 342 1072 346 739 c 1,10,11
 804 739 804 739 952 741 c 1,12,13
 952 678 952 678 954 580 c 1,14,15
 918 581 918 581 861 581.5 c 128,-1,16
 804 582 804 582 633.5 583 c 128,-1,17
 463 584 463 584 348 582 c 1,18,19
 353 287 353 287 356 156 c 1,20,-1
 1053 147 l 1,21,22
 1053 90 1053 90 1051 -6 c 1,23,24
 576 6 576 6 174 8 c 1,0,1
334 1649 m 1,25,26
 336 1694 336 1694 332 1776 c 1,27,28
 494 1774 494 1774 899 1780 c 1,29,-1
 897 1651 l 1,30,31
 691 1655 691 1655 334 1649 c 1,25,26
EndSplineSet
Substitution2: "'rtla' Right to Left Alternates in Latin lookup 0 subtable" emacron
EndChar

